<svg width="248px" height="468px" viewBox="0 0 248 468" version="1.1" xmlns="http://www.w3.org/2000/svg" xmlns:xlink="http://www.w3.org/1999/xlink">
    <title>C0CA9C63-EFD3-4687-912A-AC9628A3CC97</title>
    <defs>
        <linearGradient x1="12.897244%" y1="31.3555351%" x2="74.8714661%" y2="3.73615496%" id="linearGradient-1">
            <stop stop-color="#FF5100" offset="0%"/>
            <stop stop-color="#FF4721" offset="50.2814513%"/>
            <stop stop-color="#FF201D" offset="100%"/>
        </linearGradient>
    </defs>
    <g id="Design" stroke="none" stroke-width="1" fill="none" fill-rule="evenodd">
        <g id="RIO-WEB-WWW-PROJECTS" transform="translate(0.000000, -1183.000000)" fill="url(#linearGradient-1)" fill-rule="nonzero">
            <path d="M18.6188679,1837.26934 C20.1212533,1837.645 24.4280912,1840.98496 28.4486895,1844.75782 L29.0207798,1845.29947 C30.0648183,1846.2969 31.0791272,1847.31575 32.0081816,1848.31055 L35.9976506,1852.62865 L34.4674433,1853.22991 C30.8605261,1854.65105 30.4779743,1854.65105 30.1500728,1853.33922 C29.882398,1852.31296 26.737675,1848.91912 23.2726194,1845.77429 L22.7507781,1845.30476 C22.1399061,1844.75992 21.5231389,1844.22671 20.9141788,1843.71916 C16.4328575,1840.05698 15.1212513,1836.39479 18.6188679,1837.26934 Z M-639.534211,870.07034 C-634.069185,875.645604 -628.549509,880.400976 -623.029832,884.445776 C-621.113658,885.836176 -619.274975,887.20074 -618.153097,888.042144 L-617.865383,888.258273 C-617.506741,888.528154 -617.250567,888.722878 -617.127604,888.818532 C-615.105545,890.512975 -612.536983,891.824802 -606.416153,894.448456 C-604.120843,895.432326 -601.716231,897.673363 -594.775648,905.598984 C-592.808239,907.840021 -589.474573,911.01027 -587.397863,912.650053 C-585.266503,914.344496 -582.370039,916.91349 -580.949132,918.389296 C-578.524648,920.893692 -573.036136,927.619064 -567.489812,934.780725 L-566.796438,935.677931 C-564.947797,938.075081 -563.106651,940.503185 -561.384339,942.822071 C-559.526231,945.391065 -556.137914,949.545183 -553.897254,952.114178 C-551.631192,954.725514 -547.12266,959.402047 -542.448076,964.087024 L-541.570153,964.965055 C-536.150544,970.373991 -530.682439,975.622361 -528.375582,977.530823 C-526.572124,979.006628 -522.965207,982.176876 -520.341994,984.527233 C-510.122396,993.655361 -508.592188,994.967188 -505.477124,996.825609 C-501.269054,999.339944 -500.012098,999.503923 -498.263289,997.75482 C-496.842383,996.333674 -496.787732,996.169696 -497.115634,991.523643 C-497.279585,988.954648 -497.880737,984.855189 -498.48189,982.450174 C-500.941152,972.77545 -501.050453,964.84983 -498.864442,963.046068 C-498.208639,962.499474 -498.153989,963.483344 -498.42724,969.167927 C-498.755142,977.093547 -498.099339,980.537093 -494.765673,987.041567 C-494.465096,987.633712 -494.184255,988.198526 -493.91328,988.75752 L-493.64523,989.315371 C-492.406266,991.917056 -491.310562,994.548132 -489.355297,999.394604 C-489.136696,999.995858 -488.098341,1002.2369 -487.114636,1004.31395 C-486.130932,1006.44567 -484.436774,1010.70911 -483.289118,1013.87936 C-482.141463,1017.04961 -480.064753,1022.02362 -478.698496,1024.92057 C-477.33224,1027.87218 -476.020634,1030.93311 -475.856683,1031.753 C-475.20088,1034.37665 -473.834623,1036.94565 -470.173056,1042.57557 L-469.805167,1043.13931 C-467.972529,1045.95549 -466.268978,1048.6906 -465.910335,1049.408 C-465.527784,1050.17323 -464.325478,1051.92234 -463.287123,1053.39814 C-460.663911,1057.06033 -459.461605,1056.89635 -456.182589,1052.52359 C-454.761682,1050.66517 -453.340776,1048.91607 -453.067524,1048.58811 C-452.13847,1047.60424 -453.231475,1050.61051 -455.253535,1054.60065 C-458.204649,1060.39455 -457.712797,1063.18218 -452.19312,1072.36497 C-452.091916,1072.53098 -451.989812,1072.69758 -451.887275,1072.864 L-451.578832,1073.36197 C-450.395059,1075.26282 -449.215693,1077.03734 -448.750154,1077.50296 C-448.203651,1078.10421 -447.766449,1078.76013 -447.766449,1078.97877 C-447.766449,1079.1974 -447.438548,1079.744 -447.001346,1080.12661 C-445.993531,1081.18765 -436.902914,1093.67979 -434.020518,1097.96208 L-433.775983,1098.32821 L-433.775983,1098.32821 C-432.628327,1100.13197 -431.535322,1101.7171 -431.371371,1101.88108 C-431.207421,1102.04505 -430.606268,1102.86495 -430.059765,1103.79416 C-429.458612,1104.66871 -428.802809,1105.65258 -428.529558,1105.98054 C-428.046932,1106.55978 -425.422577,1110.27224 -422.599644,1114.32268 L-422.099813,1115.0404 C-418.675625,1119.96104 -415.128888,1125.13406 -414.866993,1125.65794 C-414.539091,1126.25919 -414.101889,1126.86045 -413.883288,1127.02442 C-413.336786,1127.4617 -410.932174,1131.61582 -406.450853,1140.14269 C-405.8497,1141.18122 -404.865995,1142.82101 -404.155542,1143.80488 C-403.499739,1144.73409 -402.953236,1145.6633 -402.953236,1145.82728 C-402.953236,1146.04591 -402.679985,1146.48319 -402.406734,1146.86581 C-401.953633,1147.39054 -400.543169,1149.40359 -399.097134,1151.53341 L-398.735418,1152.0675 C-396.988698,1154.65303 -395.3022,1157.24216 -395.3022,1157.41508 C-395.3022,1157.57906 -394.974298,1158.07099 -394.591746,1158.45361 C-393.17084,1160.03873 -392.569687,1160.85863 -392.569687,1161.13192 C-392.569687,1161.23568 -392.209664,1161.82571 -391.62981,1162.70337 L-391.36825,1163.09653 C-389.403143,1166.03215 -385.553149,1171.41346 -383.880296,1173.48496 C-381.257083,1176.76453 -376.010658,1182.01183 -372.349091,1184.96344 C-370.709583,1186.32993 -368.632873,1188.07903 -367.703819,1188.89892 C-364.042251,1192.17849 -363.222497,1192.8344 -360.599285,1194.80214 C-354.806357,1199.12024 -352.511046,1199.77616 -347.209971,1198.51899 C-344.532108,1197.91773 -344.258857,1197.97239 -341.471694,1199.4482 L-338.52058,1201.03332 L-335.897367,1200.10411 C-331.853248,1198.68297 -330.541642,1198.84694 -328.792834,1201.1973 C-326.224271,1204.58619 -323.601059,1206.93654 -318.573235,1210.32543 C-315.895372,1212.12919 -310.976849,1216.28331 -307.643183,1219.56288 C-295.237574,1231.75193 -290.319051,1235.90605 -289.444647,1235.08616 C-289.226046,1234.86752 -289.499297,1233.11842 -289.991149,1231.20534 C-290.298557,1229.9755 -290.584617,1228.83107 -290.74259,1228.07897 L-290.798695,1227.79978 C-290.855591,1227.50017 -290.881493,1227.29491 -290.865553,1227.2152 C-290.865553,1226.77792 -289.280696,1230.93204 -288.187691,1234.43025 C-286.821434,1238.58437 -284.088921,1241.69995 -275.618131,1248.69636 C-274.579776,1249.57092 -272.885618,1251.04672 -271.847263,1252.03059 C-270.808908,1252.9598 -269.333351,1254.05299 -268.622898,1254.49027 C-267.475242,1255.09152 -267.201991,1255.03686 -266.600838,1254.21697 C-265.835734,1253.12378 -265.234581,1253.01446 -265.179931,1253.99833 C-265.179931,1254.32629 -263.649724,1255.91141 -261.846265,1257.38722 C-254.851032,1263.0718 -250.09646,1267.49922 -247.199996,1271.05208 C-245.560488,1273.07448 -243.647729,1275.37018 -242.937275,1276.19007 C-242.226822,1276.9553 -240.095462,1279.85225 -238.182703,1282.58523 C-234.138584,1288.26981 -233.537431,1288.8164 -222.498078,1295.92213 C-219.477409,1297.8778 -216.599823,1299.76692 -213.945784,1301.53444 L-213.115191,1302.08851 C-205.434099,1307.22083 -199.768538,1311.24665 -198.178713,1312.75724 C-195.774101,1314.99828 -192.768337,1316.91136 -190.910228,1317.45796 C-189.16142,1317.94989 -187.412612,1318.71512 -184.570798,1320.13627 C-181.783635,1321.50275 -179.433674,1321.12014 -179.433674,1319.26172 C-179.488324,1318.6058 -179.816225,1317.07534 -180.253427,1315.87283 C-181.182482,1313.30384 -181.237132,1313.03054 -180.581329,1313.74111 C-180.308078,1314.01441 -179.816225,1315.16226 -179.488324,1316.25545 C-178.449969,1319.4257 -177.848816,1319.64433 -173.258194,1318.66046 C-170.36173,1318.00455 -167.137365,1317.78591 -161.89094,1317.89523 C-152.381795,1318.05921 -152.163194,1318.00455 -144.348207,1310.68018 C-138.172727,1304.94094 -127.515927,1291.44006 -127.515927,1289.363 C-127.515927,1288.70708 -125.220616,1284.55297 -122.214852,1279.90691 C-120.903245,1277.82985 -119.75559,1275.42484 -119.70094,1274.55029 C-119.646289,1273.67573 -119.318388,1273.01982 -119.045137,1273.12914 C-118.717235,1273.1838 -116.859126,1271.59868 -114.891717,1269.63093 C-111.612701,1266.29671 -107.841833,1263.56374 -103.907015,1261.54134 C-100.737299,1259.90155 -98.7152399,1257.5512 -95.8187761,1252.19457 C-94.1792683,1249.13364 -91.7200066,1245.36214 -90.3537501,1243.83167 C-87.7851879,1240.8254 -86.8561335,1239.51358 -86.0363796,1237.70981 C-85.489877,1236.56197 -82.538763,1233.39172 -77.7295401,1228.90964 C-74.3958743,1225.79405 -72.3738146,1224.64621 -66.0890348,1222.40517 C-63.7390736,1221.53062 -60.9519103,1220.27345 -59.9135554,1219.56288 C-58.8752005,1218.8523 -57.9461461,1218.30571 -57.7821953,1218.30571 C-57.3449932,1218.30571 -54.3392289,1215.19012 -51.9892677,1212.23851 C-50.8416123,1210.81736 -49.092804,1208.79496 -47.9997988,1207.70178 C-45.5951873,1205.18744 -45.4858868,1203.16504 -47.5625967,1200.81468 C-48.7102521,1199.61218 -49.7486071,1199.12024 -51.6613662,1198.9016 C-55.0496823,1198.51899 -56.5798896,1197.80841 -57.8368455,1195.84067 C-59.203102,1193.87293 -60.8426098,1193.32634 -67.400641,1192.8344 C-70.2424545,1192.61577 -73.084268,1192.39713 -73.6854209,1192.28781 C-74.1362855,1192.24682 -75.140484,1192.17508 -76.1907937,1192.11871 L-76.7174429,1192.09202 C-76.892708,1192.08369 -77.0669057,1192.076 -77.2376878,1192.06917 L-79.6969495,1191.95985 L-77.1830375,1191.52258 C-75.816781,1191.30394 -73.3028691,1190.97598 -71.608711,1190.812 C-68.0564441,1190.42939 -66.7994881,1189.88279 -64.0123249,1187.36846 C-62.9193197,1186.38459 -61.0065606,1184.90878 -59.8042549,1184.08889 C-57.5635942,1182.61309 -56.3066383,1180.15341 -56.470589,1177.7484 C-56.6891901,1175.23406 -56.5798896,1175.1794 -53.7927263,1175.50736 C-51.5520657,1175.78066 -50.786962,1175.61668 -49.3660553,1174.57815 C-47.1253946,1172.99302 -44.1196303,1172.99302 -41.0592158,1174.57815 C-39.7476095,1175.23406 -38.5999541,1175.94463 -38.4360033,1176.16327 C-38.2720525,1176.32725 -36.7964955,1177.58442 -35.1569877,1178.9509 C-30.0198633,1183.10502 -27.6699021,1186.22061 -26.795498,1189.93745 C-26.4129461,1191.52258 -25.2652907,1192.23315 -23.9536845,1191.68656 C-23.4618321,1191.52258 -21.7130238,1189.11756 -20.073516,1186.27527 C-18.4340082,1183.48764 -16.8491507,1181.02796 -16.5758994,1180.86398 C-16.3026481,1180.70001 -17.122402,1182.33979 -18.379358,1184.52617 C-21.3851222,1189.66416 -22.0409254,1191.19462 -21.549073,1191.95985 C-21.2758217,1192.39713 -18.7619098,1192.61577 -14.0619874,1192.67043 C-7.28535521,1192.72509 -4.38889144,1192.39713 -3.18658573,1191.46792 C-2.85868417,1191.24928 -1.49242767,1190.75735 -0.0715209177,1190.42939 C1.34938584,1190.04677 2.60634181,1189.39086 2.77029259,1188.95358 C2.98889363,1188.51631 2.60634181,1187.0405 2.00518895,1185.67402 C0.802883239,1182.88638 0.857533499,1182.61309 4.13654909,1178.13101 C8.18066831,1172.61041 8.72717091,1171.51722 8.07136779,1169.49482 C7.47021494,1167.74572 4.24584961,1164.19285 3.20749467,1164.19285 C2.93424337,1164.19285 1.56798688,1163.53694 0.147080122,1162.77171 C-1.38312715,1161.89715 -2.85868417,1161.45988 -3.51448729,1161.62386 C-4.33424118,1161.8425 -4.77144326,1161.62386 -4.93539404,1160.85863 C-5.09934482,1160.31203 -6.73885261,1158.89088 -8.54231119,1157.7977 C-10.40042,1156.64985 -13.6794356,1153.97153 -15.865446,1151.78516 C-20.3467673,1147.24842 -22.587428,1146.10057 -29.2001094,1144.84341 C-34.0639825,1143.96885 -33.6267804,1144.24215 -38.2720525,1138.83087 C-40.8406147,1135.87926 -40.676664,1135.0047 -37.7255499,1135.5513 C-36.4685939,1135.76994 -34.4465343,1135.93392 -33.2442286,1135.87926 C-32.0419229,1135.87926 -30.1838141,1135.8246 -29.0908089,1135.76994 C-24.7187881,1135.60596 -20.2374668,1139.10416 -17.3956533,1144.78875 C-15.7561455,1148.01365 -14.2259382,1149.7081 -8.97951327,1153.86222 C-6.84815313,1155.55666 -5.5365469,1156.15791 -3.24123599,1156.48587 C-1.60172819,1156.70451 0.311030901,1157.2511 0.966834019,1157.68838 C2.93424337,1158.94554 7.14231338,1159.0002 9.10972273,1157.7977 C10.858531,1156.81383 10.9678316,1156.54053 12.9352409,1148.61491 C14.4107979,1142.54771 19.4386218,1130.57729 22.3350856,1126.09521 C23.6466918,1124.07281 25.8327022,1119.86404 27.0896582,1116.80311 C29.3849691,1111.44648 29.5489199,1110.46261 28.510565,1107.7843 C28.3466142,1107.34702 29.0024173,1106.19917 29.9314717,1105.16064 C30.8605261,1104.12211 32.2267826,1102.31835 32.9918863,1101.11584 C34.9046454,1098.16423 38.9487646,1087.94292 39.7138682,1084.06209 C40.5336221,1080.07195 41.0254745,1079.4707 43.2661351,1079.4707 C44.9056429,1079.4707 45.0149434,1079.58002 44.7416921,1081.00117 C44.5777413,1081.82106 43.9765885,1083.07822 43.4300859,1083.84346 C41.8998786,1085.92052 41.5173268,1089.09076 42.6649822,1090.34793 C43.4847361,1091.27714 43.7579874,1091.27714 46.0532984,1090.51191 C47.3649046,1090.07463 48.6218606,1089.856 48.7858113,1090.01998 C48.9497621,1090.18395 49.2230134,1091.27714 49.3869642,1092.47965 C49.6602155,1094.55671 49.550915,1094.77535 47.4742051,1096.25115 C45.2881947,1097.72696 44.4684408,1099.74936 45.7253968,1100.51459 C46.4905004,1101.00653 46.4358502,1103.68484 45.6160963,1104.50473 C45.2335445,1104.88735 43.9765885,1105.16064 42.7196325,1105.16064 C41.4626765,1105.16064 40.2057206,1105.43394 39.8231687,1105.81656 C39.3313164,1106.30849 38.9487646,1106.08985 38.0743604,1104.99667 C37.4185573,1104.17677 36.5988034,1103.52086 36.2162516,1103.52086 C33.2104873,1103.52086 28.1826634,1116.47515 29.7128707,1120.41063 C30.2593733,1121.88644 30.0954225,1122.15973 27.9094121,1124.34611 C26.5978059,1125.65794 25.2315494,1127.51636 24.9036478,1128.55489 C23.9199431,1131.61582 24.6303965,1136.15255 26.5978059,1138.94018 C28.0733629,1141.01724 28.1826634,1141.50918 27.7454613,1143.14896 C27.47221,1144.18749 25.7234017,1147.08444 23.9199431,1149.59878 C22.0618343,1152.11311 20.5862773,1154.62745 20.5862773,1155.11938 C20.5862773,1157.36042 22.6083369,1159.71078 25.8873525,1161.40522 C27.9640624,1162.44375 29.1117178,1162.55307 36.5441532,1162.55307 C42.2277802,1162.55307 45.7253968,1162.27977 47.4742051,1161.73318 C51.9008762,1160.42135 59.1147105,1156.64985 61.0274695,1154.62745 C62.7762779,1152.82369 62.9402286,1152.76903 63.9239333,1153.64358 C64.6343867,1154.29949 66.0552934,1154.62745 68.8424567,1154.73677 C74.7446848,1154.90074 77.9690501,1155.44734 80.9748144,1156.81383 C86.2758896,1159.16418 89.2270036,1162.71705 92.9432213,1171.29858 C95.3478327,1176.9285 96.0582861,1179.55216 96.3861876,1184.47151 C96.6594389,1189.00824 96.4954882,1190.53871 95.1838819,1196.05931 C93.8176254,1201.79855 93.7629752,1202.72777 94.364128,1204.91414 C94.7466798,1206.33529 95.5664337,1207.70178 96.3315374,1208.19371 C97.8617447,1209.17758 102.124465,1209.2869 106.660436,1208.46701 C108.463895,1208.13905 111.360359,1207.64712 113.054517,1207.31916 C114.748675,1207.04586 119.448597,1205.62472 123.438066,1204.14891 C127.427535,1202.67311 132.182108,1201.1973 133.930916,1200.81468 C135.734375,1200.43207 139.450592,1199.06558 142.237756,1197.75376 C144.970269,1196.44193 147.866732,1195.34874 148.577186,1195.34874 C149.340405,1195.34874 153.144804,1194.44208 157.06365,1193.40028 L157.848078,1193.19035 C161.246364,1192.27481 164.584058,1191.2964 165.955968,1190.75735 C166.634385,1190.50101 168.040606,1190.06998 169.74096,1189.58128 L170.391533,1189.39554 C174.698866,1188.17367 180.431686,1186.69613 181.309499,1186.65796 L181.367342,1186.65789 C182.077795,1186.65789 181.312691,1187.0405 176.88602,1188.89892 C175.519764,1189.50018 173.934906,1190.15609 173.333753,1190.42939 C172.131448,1190.92132 167.486176,1192.45179 161.037445,1194.47419 C158.796784,1195.18476 155.080567,1196.49659 152.839906,1197.37114 C150.599245,1198.30035 147.37488,1199.22956 145.680722,1199.39354 C143.713313,1199.66684 141.909854,1200.26809 140.762199,1201.14264 C139.778494,1201.85321 138.630838,1202.45447 138.248287,1202.45447 C137.865735,1202.45447 137.100631,1202.67311 136.554129,1203.00106 C133.766965,1204.53153 125.842678,1207.92041 122.509012,1209.06826 C115.84168,1211.3093 105.458131,1218.25105 102.015164,1222.84244 C99.7745037,1225.79405 99.0640504,1228.08975 98.1896462,1235.41412 C97.5884934,1240.60677 97.5884934,1240.88006 98.7361488,1242.02791 C100.047755,1243.44906 103.16282,1244.54225 106.004633,1244.54225 C108.245294,1244.54225 113.218468,1242.79314 116.497483,1240.93472 C117.699789,1240.22415 120.04975,1238.96698 121.689258,1238.14709 C123.328766,1237.3272 124.804323,1236.45265 124.858973,1236.23401 C124.968274,1236.01537 125.296175,1235.79673 125.624077,1235.79673 C125.897328,1235.79673 126.826382,1235.35946 127.591486,1234.81286 C128.11257,1234.45694 128.75188,1234.05077 129.426246,1233.64039 L129.834407,1233.39404 C129.902914,1233.35302 129.971604,1233.31205 130.040395,1233.27117 L130.453691,1233.02745 C132.381852,1231.89891 134.258818,1230.91806 134.258818,1231.09602 C134.258818,1231.20534 132.947211,1232.13455 131.417004,1233.11842 C129.832147,1234.15695 128.46589,1235.14082 128.35659,1235.35946 C128.247289,1235.63276 127.919388,1235.79673 127.646136,1235.79673 C127.372885,1235.79673 124.585722,1237.6005 121.470657,1239.78687 L121.177901,1239.98715 L121.177901,1239.98715 L120.589547,1240.38921 C117.741417,1242.33414 114.875054,1244.27066 113.983571,1244.81554 C112.945216,1245.4168 111.469659,1246.29135 110.595255,1246.78328 C109.775501,1247.27522 108.081343,1248.53239 106.879038,1249.51626 C105.622082,1250.55479 102.780268,1252.41321 100.539607,1253.61572 C98.0256954,1255.03686 96.0582861,1256.51267 95.402483,1257.60586 C94.7466798,1258.7537 93.107172,1259.90155 90.2653585,1261.26804 C87.8060968,1262.47055 86.1119388,1263.6184 86.0572885,1264.16499 C85.8933378,1266.18739 86.3305398,1267.99115 87.9153974,1271.59868 C90.1014078,1276.57269 90.6479104,1277.99383 92.1781176,1282.25727 C92.888571,1284.22501 93.9815762,1286.68468 94.5280788,1287.72321 C95.1292317,1288.76174 96.2222369,1290.72948 96.9873405,1292.09597 L98.353597,1294.50099 L97.096641,1296.74202 C96.3861876,1297.94453 94.7466798,1300.34955 93.4350736,1302.04399 C92.1781176,1303.73843 91.0851124,1305.37822 91.0851124,1305.76083 C91.0851124,1306.08879 90.7025606,1306.47141 90.2653585,1306.63538 C89.8281565,1306.85402 89.4456046,1307.18198 89.4456046,1307.50994 C89.4456046,1308.16585 82.0131693,1317.89523 79.4992574,1320.51888 C78.5155527,1321.55741 75.83769,1324.01709 73.5970293,1325.93017 C71.3563686,1327.89791 69.2250085,1329.75633 68.8424567,1330.02963 C68.4599049,1330.35759 67.858752,1330.90418 67.4762002,1331.23214 C66.1584238,1332.30681 64.1036081,1334.05095 62.0259874,1335.84229 L61.2134264,1336.54427 C58.4215147,1338.96101 55.7574141,1341.31603 54.9699328,1342.0857 L54.8414201,1342.21447 C54.78935,1342.26854 54.7559115,1342.30685 54.7426897,1342.32801 C54.5787389,1342.65596 54.8519902,1344.45972 55.3438425,1346.31815 C55.8356949,1348.23123 56.2728969,1351.51079 56.3275472,1353.58785 C56.3821975,1358.17925 55.234542,1360.36563 51.2997233,1363.53587 C49.8788165,1364.68372 48.4032595,1365.94089 48.0207077,1366.32351 C47.6381559,1366.65146 46.4358502,1366.97942 45.3974952,1366.97942 C43.5940367,1366.97942 38.6755133,1367.90863 33.155837,1369.27512 C29.4942696,1370.20433 25.0129483,1372.55468 22.0618343,1375.17834 C18.9467695,1377.91131 16.104956,1379.05916 13.9735959,1378.4579 C13.153842,1378.18461 11.5143342,1378.23927 10.3666787,1378.56722 C9.21902325,1378.84052 7.79811649,1379.22314 7.14231338,1379.38711 C6.04930818,1379.60575 4.19119935,1382.12009 4.19119935,1383.26794 C4.19119935,1383.54123 4.84700246,1383.97851 5.6121061,1384.14249 C7.5248652,1384.63442 7.03301286,1385.61829 3.91794805,1387.25808 C2.44239103,1388.02331 1.1307848,1389.00718 1.02148428,1389.44445 C0.420331421,1391.41219 -1.43777741,1395.07438 -2.25753131,1395.94893 C-2.80403391,1396.49552 -5.20864534,1397.86201 -7.61325677,1398.9552 C-13.2422335,1401.52419 -14.389889,1403.21864 -14.389889,1408.84856 C-14.389889,1414.36916 -17.6689046,1426.33958 -22.9153295,1439.78581 C-25.9757441,1447.65677 -26.3582959,1448.36734 -30.0745136,1453.55999 C-31.3861198,1455.30909 -32.8070265,1458.09673 -33.2988789,1459.84583 C-33.736081,1461.54027 -34.3372338,1463.50801 -34.6104851,1464.27324 C-34.8837364,1465.03848 -35.2662882,1466.24098 -35.3755888,1467.00622 C-36.2499929,1471.48829 -44.2289308,1494.9372 -46.6335423,1500.07518 C-49.8579076,1506.90762 -53.0822729,1517.73019 -55.3229336,1529.04469 C-55.8147859,1531.66835 -55.7054854,1541.78035 -55.1043325,1545.71583 C-54.1752781,1551.89235 -54.3938792,1556.42908 -55.9240864,1562.93355 C-56.7984906,1566.54108 -57.6182445,1570.20326 -57.7821953,1571.13247 C-58.2193973,1574.24806 -59.5856538,1577.85559 -61.935615,1582.11902 C-63.2472213,1584.52404 -64.8320788,1587.42099 -65.4332316,1588.56884 C-66.0890348,1589.77135 -67.5645918,1591.84841 -68.8215478,1593.21489 C-72.3738146,1597.20503 -74.0133224,1601.63245 -74.2319235,1607.69965 C-74.3958743,1612.3457 -73.5761204,1616.55448 -71.2261592,1623.44157 C-69.4227006,1628.68888 -69.2040996,1629.23547 -66.3076358,1635.63063 C-65.3239311,1637.76234 -63.9576746,1640.82327 -63.192571,1642.46306 C-62.0623043,1644.98485 -61.1920779,1646.87579 -60.2826192,1648.65355 L-60.0214477,1649.15885 C-59.452143,1650.24892 -58.8568811,1651.31451 -58.164665,1652.47843 L-57.8380378,1653.02305 C-56.2792379,1655.60135 -54.219992,1658.72342 -50.9509128,1663.61627 C-41.3871173,1677.88238 -35.5941898,1687.01051 -33.954682,1690.29008 C-30.8396172,1696.4666 -27.3966508,1702.86175 -25.4292415,1706.08666 C-24.1722855,1708.10906 -23.1339306,1709.96748 -23.1339306,1710.18612 C-23.1339306,1710.3501 -21.7676741,1712.26318 -20.1281663,1714.34024 C-18.5433087,1716.47196 -15.646845,1720.35278 -13.7340859,1722.97643 C-11.8213268,1725.60008 -8.65161171,1729.97284 -6.62955209,1732.65115 C-4.60749248,1735.32947 -2.53078261,1738.44506 -2.03893027,1739.5929 C-1.49242767,1740.74075 0.201730381,1743.52838 1.73193766,1745.76942 C5.83070714,1751.67264 9.65622533,1758.61439 9.65622533,1760.14486 C9.65622533,1761.8393 8.12601805,1762.98715 5.77605688,1762.98715 C3.75399727,1762.98715 3.26214493,1763.20579 2.16913973,1764.79091 C1.51333662,1765.82944 0.420331421,1768.01582 -0.180821437,1769.71026 C-1.10987585,1772.11528 -1.21917637,1773.04449 -0.727324035,1774.19234 C-0.399422477,1774.95757 2.71564233,1778.45577 6.26790922,1781.95398 C6.54403685,1782.22584 6.82186757,1782.50076 7.09994927,1782.77722 L7.65601705,1783.33173 C7.74860737,1783.42433 7.84111802,1783.517 7.9334952,1783.60966 L8.48572656,1784.16519 C11.2345733,1786.93829 13.7665001,1789.60918 14.629399,1790.64483 C15.7770544,1791.95666 17.2526114,1793.70576 17.9084146,1794.47099 C18.6188679,1795.23623 20.2037255,1797.03999 21.4060312,1798.51579 C23.8106426,1801.41274 27.5268603,1805.62152 30.2593733,1808.46381 C36.8720547,1815.40556 38.2383112,1819.28639 35.3964977,1823.33118 C33.1011868,1826.55609 33.9209407,1829.28906 41.0254745,1841.9154 C43.2661351,1845.9602 45.0149434,1849.4584 44.9056429,1849.67704 C44.5230911,1850.22364 42.5010315,1850.66091 42.2277802,1850.27829 C42.1184797,1850.05966 41.2987258,1848.52919 40.3696713,1846.88941 C39.4952672,1845.24963 37.8011091,1842.1887 36.5988034,1840.05698 C35.3964977,1837.97992 34.2488422,1835.52024 34.0302412,1834.59103 C33.5383889,1832.67795 30.1500728,1825.68154 28.1280131,1822.56595 C26.8164069,1820.48889 24.302495,1817.31864 15.066601,1805.84016 C7.19696364,1796.11078 3.91794805,1790.80881 2.00518895,1784.85093 C1.62263714,1783.64842 1.1307848,1782.44591 0.857533499,1782.11796 C0.5842822,1781.84466 0.365681161,1781.18875 0.365681161,1780.64215 C0.365681161,1780.09556 0.201730381,1779.65828 -0.0715209177,1779.65828 C-0.290121957,1779.65828 -0.781974295,1778.94771 -1.16452611,1778.0185 C-2.25753131,1775.61348 -4.49819196,1774.247 -8.15975937,1773.91904 C-13.6247853,1773.37245 -15.3735937,1772.66187 -17.7235548,1770.14754 C-20.073516,1767.68786 -20.292117,1767.35991 -22.806029,1762.65919 C-26.5768969,1755.60812 -30.8942674,1750.57945 -40.4034127,1742.27122 C-46.3499074,1737.06928 -53.0421706,1730.8483 -59.7101175,1724.39315 L-61.0001774,1723.14106 C-62.0746296,1722.09556 -63.1471568,1721.04528 -64.2145278,1719.99353 L-65.4926911,1718.73092 C-78.2454386,1706.10196 -90.0695688,1693.44939 -95.381574,1686.46392 C-96.2669082,1685.29967 -97.3981686,1683.73204 -98.5481194,1682.09603 L-99.1236003,1681.27387 L-99.1236003,1681.27387 L-99.5058677,1680.72403 C-101.854958,1677.33617 -104.016315,1674.05258 -104.016315,1673.78292 C-104.016315,1673.6736 -105.163971,1672.36178 -106.584877,1670.94063 C-112.323155,1665.25605 -116.148673,1659.95408 -114.618465,1659.95408 C-114.308106,1659.95408 -110.208295,1663.515 -105.932449,1667.38322 L-105.374028,1667.88925 C-102.300492,1670.67903 -99.2172126,1673.55416 -97.4582839,1675.31339 C-92.5397605,1680.2874 -82.3201619,1691.27395 -80.7899546,1693.24169 C-78.8159873,1695.87409 -74.053086,1701.33632 -68.8649733,1706.95136 L-68.1385288,1707.73557 C-68.0170741,1707.86635 -67.8954488,1707.99714 -67.7736828,1708.12792 L-67.0416351,1708.91208 L-67.0416351,1708.91208 L-66.3076358,1709.69418 L-66.3076358,1709.69418 C-65.7246997,1710.32277 -65.1235468,1710.96957 -64.5193579,1711.61865 L-63.9147191,1712.2679 C-61.0935962,1715.29577 -58.3165534,1718.2575 -57.1263922,1719.53289 C-54.995032,1721.88324 -54.2299284,1722.37518 -53.6834258,1721.88324 C-53.1915734,1721.39131 -53.1915734,1720.84471 -53.738076,1719.42357 C-54.1752781,1718.4397 -54.6671305,1717.51049 -54.8310812,1717.34651 C-54.995032,1717.18253 -56.7438403,1714.99615 -58.6565994,1712.42716 C-59.0108141,1711.95142 -59.3837702,1711.46068 -59.7633206,1710.96953 L-60.2211689,1710.38088 C-61.7526978,1708.42427 -63.3119919,1706.5543 -64.1216254,1705.70404 C-65.0785407,1704.64622 -68.6810455,1699.82825 -72.3627269,1694.71536 L-72.8329611,1694.06131 L-72.8329611,1694.06131 L-73.3028691,1693.40567 L-73.3028691,1693.40567 C-80.7353044,1683.02037 -84.1236205,1678.75693 -86.4735817,1676.67987 C-89.7525973,1673.83758 -91.8293071,1671.37791 -94.5618201,1667.22379 C-96.1466777,1664.70945 -97.4582839,1662.46842 -97.4582839,1662.14046 C-97.4582839,1661.86716 -97.6768849,1661.59387 -97.9501362,1661.59387 C-98.2233875,1661.59387 -98.6059393,1661.15659 -98.7698901,1660.66466 C-98.9338409,1660.11806 -99.9175456,1658.69691 -100.955901,1657.54907 C-102.704709,1655.52667 -104.016315,1652.46574 -104.016315,1650.55266 C-104.016315,1649.02219 -101.830305,1646.89047 -99.8628953,1646.50786 C-98.2780378,1646.23456 -97.2396828,1646.50786 -94.6164704,1647.87434 C-92.1572087,1649.13151 -90.5723512,1649.56879 -88.440991,1649.56879 C-85.8724288,1649.56879 -85.2166257,1649.84208 -81.0085557,1652.84835 C-74.2865737,1657.60373 -71.9912628,1658.91555 -71.0622084,1658.53294 C-68.7668975,1657.65839 -69.6959519,1653.12165 -73.3575193,1647.38241 C-74.8877266,1644.97739 -76.1446826,1642.73635 -76.1446826,1642.46306 C-76.1446826,1642.1351 -76.3632836,1641.91646 -76.6911852,1641.91646 C-76.9644365,1641.91646 -77.2376878,1641.69783 -77.2376878,1641.42453 C-77.2376878,1640.60464 -79.1504469,1637.70769 -86.6375324,1627.10375 C-92.9223123,1618.19426 -95.8187761,1614.86003 -102.048906,1609.23011 C-104.453517,1607.04373 -108.989489,1604.96667 -112.268504,1604.47474 C-114.509165,1604.14678 -119.646289,1602.7803 -127.242675,1600.53926 C-129.046134,1600.04732 -131.013543,1599.11811 -131.614696,1598.57152 C-136.69717,1593.70683 -140.304088,1595.07331 -135.713466,1600.04732 C-132.653051,1603.38155 -132.817002,1605.67725 -136.53322,1609.50341 C-138.063427,1611.08853 -141.506393,1612.94695 -142.98195,1612.94695 C-144.676108,1612.94695 -149.32138,1614.42276 -150.851588,1615.40663 C-151.562041,1615.89856 -153.42015,1616.3905 -155.005007,1616.55448 C-161.235137,1617.15573 -162.437443,1618.95949 -160.032831,1624.26146 C-159.267728,1625.90124 -157.464269,1632.13242 -155.988712,1638.14496 L-153.3655,1649.02219 L-154.677106,1651.20857 C-155.387559,1652.41108 -156.425914,1653.39495 -156.917767,1653.39495 C-157.409619,1653.39495 -158.939826,1652.62972 -160.251432,1651.75516 C-162.819995,1650.00606 -163.803699,1649.78742 -165.935059,1650.60732 C-167.683868,1651.31789 -168.17572,1652.90301 -167.410616,1655.36269 C-166.536212,1657.98634 -153.037598,1676.78919 -149.048129,1680.94331 C-148.793095,1681.2494 -147.252686,1683.222 -145.626586,1685.39458 L-145.277261,1685.86266 L-145.277261,1685.86266 C-141.943595,1690.3994 -133.308854,1699.25423 -130.521691,1701.00333 C-128.007779,1702.58846 -127.078725,1702.36982 -126.696173,1700.01946 C-126.09502,1695.81068 -125.603168,1694.1709 -124.892714,1693.95226 C-124.346212,1693.78828 -124.236911,1694.28022 -124.455512,1696.08398 C-124.728764,1698.54366 -123.526458,1703.95494 -122.542753,1704.50154 C-122.269502,1704.72017 -121.559048,1705.81336 -120.957896,1706.96121 C-118.771885,1711.22465 -115.001017,1714.1216 -107.568582,1717.34651 C-104.125616,1718.87697 -101.283802,1721.55528 -98.2233875,1726.256 C-96.9117813,1728.2784 -95.8187761,1730.08216 -95.8187761,1730.24614 C-95.8187761,1730.95671 -88.4956413,1741.66996 -85.1619754,1745.76942 C-81.6097085,1750.19684 -72.3191644,1759.76224 -67.619242,1763.80704 C-66.6841154,1764.61479 -64.6910676,1766.38143 -62.7200599,1768.15543 L-62.1584475,1768.66166 C-61.7856829,1768.99819 -61.4174496,1769.33169 -61.0612109,1769.6556 C-54.995032,1775.06689 -53.9566771,1775.88678 -50.2404594,1777.7452 C-47.6718972,1779.05703 -46.7428428,1779.87692 -45.5951873,1782.00864 C-44.7207832,1783.64842 -42.5347728,1785.94412 -39.8022598,1788.23982 C-37.3976484,1790.20756 -35.3209385,1792.01132 -35.1569877,1792.1753 C-34.8627171,1792.55791 -30.1951322,1796.28446 -25.5823965,1799.89032 L-24.9242856,1800.40424 C-21.2025235,1803.30761 -17.6548917,1806.02376 -16.6305496,1806.71471 C-14.1166377,1808.40915 -11.657376,1811.25145 -11.657376,1812.45395 C-11.657376,1812.83657 -12.4771299,1812.28998 -13.4608346,1811.25145 C-15.01946,1809.59198 -22.186623,1804.04637 -29.6162886,1798.541 L-30.5864247,1797.82346 C-38.9995568,1791.61235 -47.4511102,1785.67082 -48.2183998,1785.67082 C-48.5463014,1785.67082 -51.4427651,1783.15649 -54.7217807,1780.09556 C-57.9461461,1776.97997 -61.2251616,1773.9737 -61.935615,1773.37245 C-62.7007187,1772.71653 -65.925084,1769.9289 -69.0947991,1767.08661 C-78.7132448,1758.45042 -83.4131671,1754.51493 -84.0689702,1754.51493 C-84.2875713,1754.51493 -85.8177786,1753.4764 -87.5119366,1752.16458 C-89.2060947,1750.85275 -91.6653563,1749.37695 -92.9769626,1748.77569 C-94.2339186,1748.2291 -97.0757321,1746.2067 -99.2617425,1744.23896 C-103.415162,1740.52211 -118.990486,1729.91818 -120.302092,1729.91818 C-121.9416,1729.91818 -124.236911,1728.0051 -124.838064,1726.09202 C-125.220616,1724.94417 -126.969424,1722.64847 -129.374036,1720.29812 C-132.43445,1717.29185 -133.746056,1715.48809 -135.440214,1711.8259 C-136.953033,1708.5836 -138.703253,1706.10112 -143.256965,1701.53023 L-143.738144,1701.04981 C-146.031299,1698.77201 -148.998447,1695.9846 -152.928298,1692.36714 C-162.362218,1683.72966 -165.467654,1681.17983 -168.75282,1679.76644 L-169.023372,1679.65272 C-169.475413,1679.46713 -169.934173,1679.30031 -170.416381,1679.13955 C-174.4605,1677.77306 -176.154658,1676.67987 -176.154658,1675.36805 C-176.154658,1673.89224 -178.449969,1671.37791 -181.127832,1670.06608 C-182.548738,1669.30085 -184.078946,1668.69959 -184.461497,1668.69959 C-184.844049,1668.69959 -185.445202,1668.153 -185.773104,1667.44243 C-186.101005,1666.78651 -186.811459,1665.42003 -187.357961,1664.43616 C-188.068415,1663.01501 -188.123065,1662.46842 -187.631213,1661.86716 C-187.13936,1661.26591 -187.248661,1660.77397 -188.123065,1659.46215 C-188.778868,1658.5876 -189.434671,1657.11179 -189.598622,1656.18258 C-189.817223,1655.25337 -190.090474,1654.48814 -190.309075,1654.48814 C-190.527676,1654.48814 -192.003233,1653.28563 -193.642741,1651.80982 C-196.047353,1649.62345 -196.812456,1648.53026 -197.468259,1646.1799 C-198.288013,1643.33761 -198.397314,1643.28295 -200.474024,1643.17363 C-201.621679,1643.11897 -202.933285,1642.90033 -203.315837,1642.79101 C-204.408842,1642.35374 -204.190241,1641.36987 -202.987936,1641.36987 C-201.075176,1641.36987 -201.348428,1639.89406 -203.91699,1636.66916 C-205.433925,1634.72172 -208.254648,1631.64852 -211.158985,1628.66605 L-211.760675,1628.05068 C-212.061716,1627.74404 -212.362752,1627.43927 -212.662431,1627.13772 L-213.25958,1626.5393 C-216.62864,1623.17706 -219.707792,1620.34316 -220.530669,1619.99802 C-222.77133,1619.06881 -224.137586,1620.21666 -228.345656,1626.5025 C-234.788922,1636.04604 -237.690851,1640.05531 -239.561365,1641.95713 L-239.736471,1642.13199 C-239.879928,1642.27259 -240.01739,1642.40059 -240.150112,1642.51772 C-245.068636,1646.83581 -246.817444,1648.85821 -248.456952,1651.91914 C-250.588312,1655.85462 -250.642962,1655.96394 -253.867327,1660.77397 C-256.818441,1665.20139 -259.004452,1667.60641 -264.578778,1672.4711 C-266.764789,1674.38418 -269.333351,1677.11715 -270.317056,1678.48364 C-271.24611,1679.85012 -272.339115,1681.32593 -272.721667,1681.70854 C-273.869323,1682.91105 -276.383234,1686.79187 -278.022742,1690.01678 C-280.154102,1694.1709 -283.378468,1697.12251 -285.564478,1696.84921 C-286.438882,1696.73989 -287.641188,1696.30262 -288.187691,1695.92 C-293.488766,1692.03918 -293.871318,1691.8752 -296.54918,1692.09384 C-298.407289,1692.25782 -299.281693,1692.58578 -299.500294,1693.24169 C-300.483999,1696.4666 -301.139802,1697.23183 -304.364168,1699.36355 C-306.331577,1700.62071 -308.080385,1701.9872 -308.298986,1702.42448 C-308.572238,1702.80709 -310.321046,1704.77483 -312.179155,1706.74257 C-314.255865,1708.87429 -315.840722,1711.00601 -316.059323,1712.04454 C-316.496525,1713.73898 -316.496525,1713.73898 -316.551175,1712.31784 C-316.605826,1710.62339 -316.715126,1710.51408 -318.409284,1711.38863 C-320.103442,1712.26318 -328.628883,1721.06335 -328.628883,1721.9379 C-328.628883,1722.32052 -329.120735,1723.08575 -329.721888,1723.63234 C-330.541642,1724.39758 -330.814893,1724.45224 -330.814893,1723.85098 C-330.814893,1723.32923 -329.747858,1721.86732 -326.816976,1718.44307 L-326.415077,1717.97478 C-325.106977,1716.45449 -323.460293,1714.57627 -321.415049,1712.26318 C-316.059323,1706.25064 -315.786072,1705.86802 -315.731422,1703.08039 C-315.567471,1698.92627 -313.709362,1695.97466 -309.337341,1692.80441 C-306.495528,1690.72735 -305.019971,1690.01678 -303.653714,1690.01678 C-299.445644,1690.01678 -298.68054,1688.54098 -298.243338,1680.23274 C-297.860787,1671.86984 -297.642186,1670.72199 -296.38523,1671.04995 C-294.41782,1671.54189 -293.598066,1667.33311 -294.800372,1662.96035 C-295.620126,1660.0634 -296.38523,1659.24351 -300.374699,1657.33043 C-302.396758,1656.34656 -305.402522,1654.10552 -307.861784,1651.75516 C-313.818662,1646.07058 -317.53488,1643.72023 -329.175385,1638.19962 C-334.804362,1635.52131 -337.974077,1633.06163 -341.253093,1628.79819 C-341.963546,1627.81432 -342.83795,1626.77579 -343.111202,1626.44784 C-343.439103,1626.06522 -344.532108,1624.69874 -345.570463,1623.33225 C-346.608818,1621.96576 -347.756474,1620.54462 -348.139026,1620.21666 C-348.466927,1619.83404 -349.232031,1618.95949 -349.778533,1618.24892 C-350.325036,1617.59301 -351.800593,1616.17186 -353.057549,1615.18799 C-355.134259,1613.49355 -355.571461,1613.38423 -357.976072,1613.65753 C-360.216733,1613.93082 -360.817886,1613.8215 -362.238793,1612.67366 L-363.82365,1611.36183 L-359.888831,1611.68979 C-357.101668,1611.90842 -355.954013,1611.85376 -355.954013,1611.36183 C-355.954013,1610.99743 -357.370871,1608.91228 -358.911424,1606.87773 L-359.282869,1606.39132 C-360.400358,1604.94044 -361.528339,1603.58926 -362.184142,1602.99893 C-362.730645,1602.45234 -363.441098,1602.01506 -363.71435,1602.01506 C-363.932951,1602.01506 -364.151552,1601.35915 -364.151552,1600.59392 C-364.151552,1598.62618 -364.916655,1597.36901 -368.796824,1592.99625 C-369.172544,1592.56353 -369.567241,1592.10234 -369.9651,1591.63196 L-370.443036,1591.06432 C-371.795757,1589.45051 -373.111917,1587.81955 -373.769997,1586.92905 C-374.644402,1585.67189 -376.775762,1583.10289 -378.46992,1581.18981 C-378.752279,1580.87097 -379.042229,1580.54149 -379.332938,1580.20999 L-379.768717,1579.7123 C-381.072638,1578.22112 -382.322763,1576.77606 -382.896591,1576.16114 C-383.607044,1575.28659 -386.394207,1570.25792 -389.07207,1564.95595 C-393.771993,1555.60919 -394.045244,1555.17191 -397.597511,1552.27496 C-401.914881,1548.77676 -403.062537,1547.35561 -404.046241,1544.34934 C-404.975296,1541.56171 -407.270607,1539.10203 -411.424026,1536.47838 C-415.522796,1533.90939 -417.216954,1533.30813 -420.987822,1532.98018 C-425.141242,1532.59756 -430.934169,1530.13788 -434.213185,1527.35025 C-435.688742,1526.09308 -437.601501,1524.89058 -438.366605,1524.67194 C-439.073289,1524.53058 -441.323307,1523.5768 -443.716175,1522.44093 L-444.292488,1522.16515 C-444.485029,1522.07227 -444.677767,1521.97855 -444.869985,1521.88431 C-447.602498,1520.57248 -450.00711,1519.47929 -450.171061,1519.47929 C-450.335011,1519.47929 -451.537317,1518.98736 -452.848923,1518.44076 C-453.881423,1517.94687 -456.425797,1516.86289 -458.967537,1515.79471 L-459.629544,1515.51681 C-459.959522,1515.37844 -460.287214,1515.24123 -460.60926,1515.10653 C-466.757415,1512.58379 -468.358117,1511.93087 -469.540999,1511.34986 L-469.681203,1511.28037 L-469.681203,1511.28037 C-470.173056,1511.00708 -471.539312,1510.62446 -472.686968,1510.46048 C-473.889273,1510.24184 -476.020634,1509.53127 -477.550841,1508.8207 C-477.832836,1508.68624 -478.117586,1508.55118 -478.403839,1508.41609 L-478.977978,1508.14604 C-479.073878,1508.10107 -479.169853,1508.05615 -479.265855,1508.01128 L-479.841836,1507.74293 C-483.870859,1505.87162 -487.785741,1504.17464 -488.152991,1504.17464 C-488.371592,1504.17464 -489.300647,1503.84669 -490.175051,1503.40941 C-492.03316,1502.4802 -496.35053,1500.62178 -497.498186,1500.1845 C-498.099339,1499.96587 -497.990038,1499.85655 -497.224934,1499.85655 C-496.623781,1499.85655 -494.055219,1500.67644 -491.486657,1501.76963 C-474.709027,1508.76604 -470.99281,1509.53127 -461.429014,1508.2741 C-459.535974,1508.01377 -453.513863,1507.83541 -447.208988,1507.76122 L-446.306783,1507.75133 L-446.306783,1507.75133 L-445.403223,1507.74288 C-437.724265,1507.67712 -430.168502,1507.76808 -429.622563,1508.05546 C-429.07606,1508.38342 -424.70404,1508.71138 -420.004117,1508.87536 C-415.304195,1508.98468 -410.440322,1509.31263 -409.238016,1509.64059 C-405.631099,1510.51514 -403.445089,1510.2965 -401.259078,1508.8207 C-399.56492,1507.61819 -399.237019,1507.01694 -398.963767,1504.93988 C-398.799816,1503.24543 -398.253314,1502.09758 -397.269609,1501.16837 C-395.466151,1499.47393 -395.466151,1499.14597 -397.54286,1496.1397 C-399.61957,1493.13343 -403.71834,1484.49724 -404.592744,1481.32699 C-405.084596,1479.30459 -405.576449,1478.81266 -407.489208,1477.88345 C-408.672225,1477.36901 -410.000472,1476.90298 -410.517141,1476.84994 L-410.604273,1476.84492 C-411.041475,1476.84492 -412.407731,1476.35298 -413.610037,1475.75173 C-414.812343,1475.15047 -416.069299,1474.7132 -416.45185,1474.65854 C-416.779752,1474.65854 -417.216954,1474.4399 -417.435555,1474.11195 C-417.763457,1473.62001 -415.577446,1474.1666 -410.440322,1475.97037 C-406.560153,1477.28219 -406.013651,1477.17287 -406.396203,1475.09582 C-407.92641,1466.51428 -410.00312,1459.68185 -412.462381,1455.30909 C-413.172835,1454.05193 -414.21119,1452.1935 -414.812343,1451.10032 C-415.304195,1450.25061 -416.061282,1448.45871 -416.784279,1446.55911 L-417.023605,1445.92307 C-417.972573,1443.3721 -418.801812,1440.79452 -418.801812,1440.16843 C-418.801812,1439.73115 -419.621565,1438.09137 -420.65992,1436.39692 C-421.698275,1434.75714 -422.955231,1431.80553 -423.447084,1429.89245 L-423.514791,1429.6385 L-423.514791,1429.6385 L-423.653285,1429.13011 C-424.096789,1427.52481 -424.57735,1425.9992 -424.81334,1425.57435 C-429.02141,1417.37543 -429.895814,1416.17293 -432.409726,1415.24372 C-434.868988,1414.36916 -437.054998,1412.94802 -436.617796,1412.51074 C-436.508496,1412.40142 -435.524791,1412.67472 -434.431786,1413.112 C-433.393431,1413.54927 -432.355076,1413.71325 -432.191125,1413.43995 C-431.808573,1412.8387 -433.010879,1410.16039 -433.666682,1410.16039 C-433.885283,1410.16039 -434.103884,1409.88709 -434.103884,1409.50447 C-434.103884,1409.17652 -435.087589,1407.59139 -436.289895,1406.00627 C-437.43755,1404.42114 -440.224713,1400.10305 -442.465374,1396.3862 C-443.185586,1395.20907 -444.001785,1393.87382 -444.834116,1392.51659 L-445.390517,1391.61 C-446.968792,1389.04057 -448.541312,1386.50065 -449.569908,1384.90772 C-451.318716,1382.28407 -452.684973,1379.93371 -452.684973,1379.76973 C-452.684973,1379.55109 -453.559377,1378.23927 -454.652382,1376.76346 C-457.494195,1372.88264 -456.510491,1373.48389 -453.395426,1377.52869 C-451.974519,1379.38711 -450.498962,1381.24554 -450.11641,1381.62815 C-449.733859,1382.01077 -448.422252,1383.75987 -447.165296,1385.56363 C-445.90834,1387.36739 -444.651384,1388.8432 -444.378133,1388.8432 C-443.948557,1388.8432 -441.880596,1390.12215 -439.829362,1391.56841 L-439.357051,1391.90463 C-438.180782,1392.75006 -437.052456,1393.62272 -436.289895,1394.30915 C-435.25154,1395.29302 -433.12018,1397.2061 -431.644623,1398.57258 C-425.578444,1404.20251 -424.81334,1404.69444 -422.900581,1404.69444 C-421.862226,1404.69444 -420.987822,1404.4758 -420.987822,1404.14785 C-420.987822,1402.94534 -419.566915,1403.76523 -415.959998,1407.31809 C-411.369376,1411.69085 -404.592744,1419.23386 -404.592744,1419.94443 C-404.592744,1420.98296 -406.778754,1421.14694 -408.418262,1420.27238 C-409.347317,1419.78045 -410.658923,1419.45249 -411.260076,1419.56181 C-414.32049,1419.99909 -411.424026,1423.82525 -407.161306,1424.91844 C-405.90435,1425.2464 -403.71834,1425.84765 -402.352083,1426.23027 C-400.985827,1426.61288 -397.870762,1426.94084 -395.35685,1426.9955 C-392.897588,1427.05016 -387.869764,1427.59675 -384.208197,1428.19801 C-376.918328,1429.39259 -374.96708,1429.68691 -373.863319,1429.31491 L-373.739468,1429.26905 C-373.638966,1429.22838 -373.544703,1429.18164 -373.452686,1429.12903 L-373.343088,1429.06309 C-373.197714,1428.97146 -373.054,1428.86501 -372.895593,1428.7446 C-371.420036,1427.65141 -371.802588,1426.77686 -374.2072,1425.68367 C-374.964207,1425.32737 -376.918572,1424.20899 -378.917284,1422.97905 L-379.46262,1422.64134 L-379.46262,1422.64134 L-380.004958,1422.30102 C-380.094809,1422.24425 -380.184319,1422.18749 -380.273378,1422.13081 C-380.718677,1421.85751 -381.177094,1421.57859 -381.634748,1421.30238 L-382.182678,1420.97275 C-384.001965,1419.8819 -385.720188,1418.88768 -386.448858,1418.52328 C-387.432562,1418.08601 -388.143016,1417.59407 -388.033715,1417.48475 C-387.924415,1417.32077 -384.91865,1418.68726 -381.311733,1420.49102 C-374.152549,1424.04389 -368.468922,1426.17561 -366.665464,1425.90231 C-364.971306,1425.68367 -364.862005,1423.16934 -366.392212,1420.98296 C-367.157316,1419.99909 -367.594518,1418.52328 -367.594518,1417.48475 C-367.539868,1415.29837 -368.687523,1414.09587 -369.835179,1415.02508 C-370.436332,1415.57167 -370.709583,1415.46235 -370.928184,1414.64246 C-372.29444,1410.37902 -366.884065,1410.37902 -361.528339,1414.64246 C-357.702821,1417.70339 -355.899363,1418.24999 -349.997134,1418.14067 C-346.772769,1418.08601 -346.007665,1417.86737 -344.149557,1416.44622 C-341.089142,1414.15053 -340.70659,1413.43995 -340.815891,1410.543 C-340.925191,1407.42741 -339.996137,1406.4982 -338.028728,1407.75537 C-335.952018,1409.12186 -334.476461,1408.57526 -333.766007,1406.06093 C-332.891603,1402.83602 -331.798598,1402.4534 -322.999906,1402.67204 L-315.40352,1402.89068 L-312.780308,1400.37634 C-309.501292,1397.26076 -307.479232,1392.94266 -305.402522,1384.57976 C-304.090916,1379.2778 -303.981616,1378.02063 -304.473468,1375.61561 C-305.730424,1369.27512 -304.418818,1365.28498 -300.5933,1363.42655 C-298.461939,1362.44268 -294.199219,1358.72584 -294.199219,1357.85129 C-294.199219,1357.52333 -293.871318,1356.97674 -293.434116,1356.64878 C-292.996913,1356.26617 -292.23181,1354.18911 -291.794608,1352.05739 C-288.624893,1337.57263 -287.477237,1331.17748 -287.586538,1328.44451 C-287.641188,1327.242 -288.406292,1323.4705 -289.335346,1320.02695 C-290.756253,1314.561 -291.357406,1313.24918 -294.144569,1309.36836 L-294.494636,1308.85853 C-296.065906,1306.56292 -297.555499,1304.28691 -297.860787,1303.57445 C-299.390994,1300.18557 -300.75725,1296.85134 -300.75725,1296.41407 C-300.75725,1295.80351 -302.363483,1292.37399 -304.108996,1289.17278 L-304.409317,1288.62681 C-304.911214,1287.72247 -305.417638,1286.85099 -305.894375,1286.08343 C-311.031499,1277.61121 -314.529116,1269.84957 -316.824427,1261.70531 C-319.065087,1253.45174 -322.453404,1247.00192 -324.202212,1247.54852 C-325.076616,1247.82181 -330.377691,1243.01178 -336.061318,1236.88992 C-336.799097,1236.08786 -338.704211,1234.13709 -341.058332,1231.77817 L-341.858684,1230.97777 C-342.673694,1230.16428 -343.529726,1229.31458 -344.400175,1228.4561 L-344.982318,1227.88279 C-345.46873,1227.40444 -345.957767,1226.92527 -346.444868,1226.44997 C-350.926189,1222.07721 -357.047018,1215.73672 -360.052782,1212.29317 C-360.616363,1211.6475 -361.202999,1210.97686 -361.794319,1210.30213 L-362.386519,1209.62681 C-364.75612,1206.92629 -367.102666,1204.2719 -368.250321,1203.00106 C-375.901358,1194.47419 -381.748935,1187.25914 -387.050011,1179.7708 C-387.244323,1179.50357 -387.442683,1179.23297 -387.642917,1178.96178 L-388.045241,1178.4194 C-389.524865,1176.43379 -391.027335,1174.51539 -391.695283,1173.75826 C-392.569687,1172.8837 -395.083599,1169.27618 -397.37891,1165.83264 C-399.674221,1162.38909 -402.679985,1158.34429 -404.046241,1156.81383 C-405.412498,1155.33802 -407.270607,1153.09698 -408.145011,1151.89448 C-410.440322,1148.72423 -410.385672,1148.83355 -412.899583,1146.10057 C-414.21119,1144.73409 -416.670451,1142.60237 -418.364609,1141.29054 C-421.807576,1138.72155 -423.774985,1136.58983 -427.436553,1131.39718 C-430.496967,1127.13374 -433.885283,1122.76099 -437.000348,1119.15346 C-440.989817,1114.50741 -441.754921,1113.3049 -446.728094,1103.24756 C-450.367638,1095.92972 -451.765998,1093.1723 -453.20473,1090.71214 L-453.392807,1090.39258 C-453.990297,1089.38378 -454.611598,1088.39406 -455.417486,1087.12302 C-458.095348,1082.75027 -466.238237,1071.32644 -468.205646,1069.08541 C-469.134701,1067.99222 -470.883509,1065.96982 -472.085815,1064.49401 C-473.288121,1063.01821 -474.763678,1061.2691 -475.36483,1060.55853 C-477.27759,1058.48147 -478.589196,1056.84169 -480.501955,1054.32735 C-481.54031,1052.96087 -482.851916,1051.4304 -483.343768,1050.93847 C-485.201877,1049.13471 -488.699494,1043.72342 -490.776204,1039.5693 C-491.268056,1038.53077 -493.508717,1035.90712 -495.640077,1033.72074 C-500.176048,1029.18401 -505.094572,1023.22612 -506.460828,1020.49315 C-507.772434,1018.03348 -516.024624,1005.78976 -517.718782,1003.87668 C-518.483885,1003.00213 -522.200103,997.864139 -526.025621,992.398194 L-526.246182,992.083183 L-526.246182,992.083183 L-526.686072,991.45567 C-530.269748,986.347469 -533.605192,981.689146 -534.22316,980.865049 C-534.933614,979.990498 -535.589417,979.006628 -535.698717,978.678671 C-535.808018,978.350715 -536.081269,977.968098 -536.29987,977.80412 L-536.349676,977.748905 C-536.676053,977.370542 -538.219681,975.404394 -539.906787,973.103407 C-541.688861,970.679379 -544.220568,967.546277 -546.865212,964.424293 L-547.395458,963.800258 C-552.709205,957.565657 -558.304916,951.567583 -559.089028,951.567583 C-559.307629,951.567583 -560.400635,950.747691 -561.49364,949.763821 C-562.586645,948.83461 -564.280803,947.413465 -565.319158,946.648232 C-570.713139,942.743361 -580.115104,933.960484 -599.199007,914.897087 L-601.055959,913.040279 C-601.684927,912.410754 -602.323942,911.770583 -602.973187,911.119589 C-620.433945,893.573904 -625.875062,888.080629 -631.216271,882.256836 L-631.64358,881.789992 C-633.282516,879.995923 -634.94195,878.139715 -636.965649,875.864242 C-640.190014,872.256718 -643.57833,868.485216 -644.452734,867.446686 C-645.381789,866.408157 -646.037592,865.478946 -645.928291,865.314968 C-645.381789,864.823033 -642.922527,866.681454 -639.534211,870.07034 Z M-272.721667,1636.23188 C-274.634426,1638.6369 -274.743727,1639.01951 -275.071628,1643.50159 C-275.34488,1648.36628 -275.563481,1648.91287 -279.061097,1653.44961 C-279.443649,1653.9962 -281.028507,1654.76143 -282.558714,1655.19871 C-286.602833,1656.40122 -287.477237,1657.00247 -289.116745,1659.57147 C-290.2644,1661.37523 -290.537652,1662.52308 -290.592302,1665.42003 C-290.646952,1670.61268 -289.991149,1673.83758 -288.460942,1675.47737 C-287.185769,1676.84385 -287.049144,1677.0716 -285.141445,1676.54019 L-284.735428,1676.4239 C-284.447859,1676.33977 -284.125355,1676.2426 -283.76102,1676.13328 C-280.372703,1675.09475 -278.405294,1674.05622 -276.437885,1672.14314 C-274.087924,1669.9021 -265.671784,1660.55534 -264.032276,1658.3143 C-261.736965,1655.25337 -260.75326,1650.27936 -260.971861,1643.17363 C-261.190462,1636.28654 -261.955566,1634.42812 -265.125281,1633.49891 C-268.131045,1632.67902 -270.481006,1633.49891 -272.721667,1636.23188 Z M-235.942042,1609.88602 C-238.018752,1610.76058 -239.548959,1612.50968 -241.243117,1616.06254 C-242.008221,1617.70233 -245.123286,1621.25519 -249.768558,1625.84658 C-253.758027,1629.78206 -257.255644,1633.71755 -257.583545,1634.53744 C-258.184698,1636.12256 -258.348649,1648.09298 -257.747496,1648.63958 C-256.873092,1649.56879 -255.834737,1648.74889 -252.828973,1644.97739 C-251.080164,1642.73635 -249.058105,1640.60464 -248.293001,1640.27668 C-245.287237,1638.96485 -238.783856,1631.91378 -236.324594,1627.15841 C-235.614141,1625.79192 -234.575786,1624.2068 -234.029283,1623.60555 C-233.537431,1623.00429 -232.444426,1621.03655 -231.624668,1619.23279 C-230.859568,1617.42903 -229.985164,1615.51595 -229.711913,1615.02401 C-228.782858,1613.32957 -229.11076,1611.96308 -230.859568,1610.54194 C-232.772327,1608.90215 -233.42813,1608.84749 -235.942042,1609.88602 Z M-457.190866,1509.6035 L-457.866041,1509.60381 C-461.858668,1509.61632 -464.770663,1509.82176 -465.035931,1510.24184 C-465.527784,1511.06173 -463.287123,1512.75618 -461.155763,1513.24811 C-460.226708,1513.41209 -456.510491,1514.8879 -452.794273,1516.52768 C-449.078055,1518.1128 -445.307188,1519.58861 -444.432783,1519.75259 C-443.558379,1519.97123 -442.738625,1520.35384 -442.574675,1520.62714 C-442.356074,1520.90044 -441.864221,1521.11907 -441.372369,1521.11907 C-440.935167,1521.11907 -439.787511,1521.44703 -438.858457,1521.88431 C-437.847427,1522.34891 -435.702404,1523.10048 -433.468575,1523.81105 L-432.628768,1524.07495 C-430.66903,1524.68325 -428.741328,1525.22878 -427.545853,1525.49183 C-424.321488,1526.2024 -423.337783,1526.09308 -420.058768,1524.67194 C-414.593742,1522.21226 -413.773988,1520.6818 -416.506501,1517.83951 C-419.949467,1514.28664 -425.742395,1512.37356 -438.202654,1510.73378 C-440.827708,1510.38064 -444.043525,1510.10514 -447.325623,1509.91453 L-448.114331,1509.87042 C-448.509052,1509.84918 -448.904124,1509.82918 -449.29864,1509.81041 L-450.086661,1509.77455 C-452.578014,1509.66626 -455.022827,1509.60818 -457.190866,1509.6035 Z M-558.433225,1474.4399 C-551.437992,1476.189 -538.649831,1480.99904 -528.648834,1485.69975 C-526.080272,1486.90226 -523.511709,1488.05011 -522.910556,1488.3234 C-518.975738,1490.07251 -513.018859,1492.75082 -505.968976,1495.97573 C-504.165517,1496.79562 -502.143458,1497.61551 -501.433004,1497.83415 C-500.777201,1498.05279 -500.230699,1498.49006 -500.230699,1498.76336 L-500.231308,1498.8896 C-500.239536,1499.41459 -500.358844,1499.35142 -502.088807,1498.4354 C-502.908561,1497.99813 -503.837616,1497.61551 -504.110867,1497.61551 C-504.384118,1497.61551 -506.187577,1496.90494 -508.045686,1495.97573 C-509.958445,1495.10117 -511.707253,1494.33594 -511.871204,1494.33594 C-512.055884,1494.33594 -514.673248,1493.16398 -517.540512,1491.84091 L-518.157956,1491.55546 L-518.157956,1491.55546 L-519.088024,1491.12348 C-521.150103,1490.16314 -523.140813,1489.21871 -524.264679,1488.66222 L-524.575038,1488.50728 C-524.716419,1488.436 -524.836507,1488.37429 -524.932616,1488.3234 C-525.479119,1487.99545 -526.134922,1487.77681 -526.462823,1487.77681 C-526.736075,1487.77681 -529.249987,1486.73828 -532.03715,1485.53577 C-540.726541,1481.60029 -556.793718,1476.24366 -563.625,1474.93184 C-565.64706,1474.60388 -568.434223,1474.27592 -570.729534,1474.1666 C-571.98649,1474.05729 -572.04114,1474.05729 -571.057435,1473.45603 C-569.800479,1472.74546 -563.187798,1473.23739 -558.433225,1474.4399 Z M-429.841164,1468.59134 C-428.584208,1469.24725 -428.310957,1469.73919 -429.130711,1469.73919 C-429.403962,1469.73919 -429.950465,1469.35657 -430.333016,1468.80998 C-431.04347,1467.99009 -430.988819,1467.99009 -429.841164,1468.59134 Z M-411.096125,1424.91844 C-411.369376,1424.91844 -411.697278,1425.73833 -411.861229,1426.7222 C-412.07983,1427.97937 -411.806578,1429.0179 -410.768223,1430.60302 C-409.565918,1432.46144 -409.347317,1432.62542 -408.582213,1431.86019 C-407.87176,1431.14962 -407.817109,1430.71234 -408.363612,1429.23654 C-409.128716,1426.9955 -410.440322,1424.91844 -411.096125,1424.91844 Z M-392.187135,1415.07974 C-391.859233,1415.07974 -391.367381,1415.35303 -391.20343,1415.62633 C-390.766228,1416.28224 -390.984829,1416.28224 -392.023184,1415.62633 C-392.515037,1415.29837 -392.569687,1415.07974 -392.187135,1415.07974 Z M-463.560374,1295.53952 C-462.813487,1296.08541 -458.895646,1299.99912 -454.775312,1304.22437 L-454.171236,1304.84456 C-453.868819,1305.15542 -453.566094,1305.46715 -453.264223,1305.77854 L-452.661963,1306.40055 C-449.659806,1309.50484 -446.820579,1312.49656 -445.307188,1314.17839 C-444.979286,1314.50635 -444.159532,1315.98215 -443.449079,1317.4033 C-442.683975,1318.8791 -440.170063,1322.43197 -437.765452,1325.32892 C-437.094034,1326.15662 -436.360159,1327.06463 -435.619911,1327.98157 L-435.064406,1328.66984 C-433.399565,1330.73295 -431.773441,1332.75089 -430.824869,1333.91045 C-429.349312,1335.71421 -427.491203,1337.79127 -426.616799,1338.5565 C-424.81334,1340.14163 -422.900581,1343.1479 -422.408729,1345.1703 C-422.244778,1345.99019 -421.206423,1347.73929 -420.058768,1348.99646 C-419.009948,1350.27572 -417.589932,1352.2496 -416.376022,1354.0604 L-416.0505,1354.54956 C-414.825578,1356.40426 -413.883288,1357.9955 -413.883288,1358.34323 C-413.883288,1358.56186 -414.37514,1358.7805 -414.921643,1358.7805 C-415.522796,1358.7805 -416.178599,1359.0538 -416.34255,1359.3271 C-416.779752,1360.09233 -417.271604,1360.03767 -418.637861,1359.0538 C-419.348314,1358.56186 -420.277369,1356.86742 -420.823871,1355.06366 C-423.064532,1347.73929 -432.519027,1333.3092 -441.754921,1322.97856 C-443.121177,1321.50275 -445.471138,1318.76978 -446.946695,1316.96602 C-448.367602,1315.16226 -449.897809,1313.46782 -450.225711,1313.13986 C-450.553612,1312.86656 -452.575672,1310.24291 -454.707032,1307.40062 C-456.838392,1304.55832 -459.844157,1300.84148 -461.374364,1299.2017 C-465.090582,1295.26622 -466.074286,1293.62643 -463.560374,1295.53952 Z M-183.805694,1305.37822 C-183.477793,1305.92481 -183.313842,1306.63538 -183.477793,1307.018 C-183.641744,1307.50994 -183.751044,1307.50994 -183.751044,1307.018 C-183.805694,1306.69004 -183.969645,1305.92481 -184.133596,1305.37822 C-184.406847,1304.44901 -184.406847,1304.44901 -183.805694,1305.37822 Z M-467.877745,1290.89346 C-467.549843,1291.22142 -467.385893,1291.65869 -467.495193,1291.82267 C-467.659144,1291.98665 -467.987045,1291.93199 -468.150996,1291.71335 C-468.369597,1291.54938 -468.533548,1291.1121 -468.533548,1290.78414 C-468.533548,1290.45619 -468.260297,1290.51085 -467.877745,1290.89346 Z M-517.062979,1272.74652 C-515.423471,1273.62107 -513.893264,1276.35405 -513.893264,1278.43111 C-513.893264,1280.34419 -515.915323,1283.73307 -517.28158,1284.11569 C-519.41294,1284.66228 -520.888497,1284.49831 -521.817551,1283.51444 C-523.183808,1282.20261 -523.73031,1280.28953 -523.457059,1278.15781 C-523.129158,1275.53416 -522.309404,1274.16767 -520.341994,1272.96516 C-518.757137,1272.03595 -518.483885,1271.98129 -517.062979,1272.74652 Z M-475.091579,1282.25727 C-474.435776,1282.25727 -473.725323,1283.78773 -474.162525,1284.22501 C-474.326475,1284.38899 -474.709027,1284.00637 -475.091579,1283.40512 C-475.474131,1282.58523 -475.474131,1282.25727 -475.091579,1282.25727 Z M-268.404297,1244.97952 C-268.131045,1245.25282 -267.967094,1245.85407 -268.076395,1246.23669 C-268.240346,1246.67396 -268.458947,1246.40067 -268.677548,1245.69009 C-268.896149,1244.76088 -268.841499,1244.54225 -268.404297,1244.97952 Z M141.363351,1227.16054 C136.328476,1230.21794 134.436772,1231.24119 135.110302,1230.5345 L135.201341,1230.4434 C135.355548,1230.29483 135.588934,1230.09276 135.898325,1229.83885 C136.663429,1229.2376 137.865735,1228.41771 138.630838,1228.03509 C139.395942,1227.65248 140.9808,1226.66861 142.183105,1225.90337 C143.385411,1225.13814 145.626072,1223.82631 147.101629,1222.95176 C151.692251,1220.43743 147.757432,1223.33438 141.363351,1227.16054 Z M-292.17716,1223.11574 C-292.013209,1223.49836 -292.067859,1223.99029 -292.23181,1224.15427 C-292.395761,1224.37291 -292.559711,1224.04495 -292.505061,1223.4437 C-292.505061,1222.84244 -292.34111,1222.67847 -292.17716,1223.11574 Z M153.65966,1219.3989 C153.331758,1219.94549 152.293403,1220.16413 152.293403,1219.72686 C152.293403,1219.61754 152.675955,1219.34424 153.167808,1219.18026 C153.60501,1219.01628 153.823611,1219.07094 153.65966,1219.3989 Z M-210.037819,1179.4975 C-206.485552,1180.37205 -203.261187,1180.70001 -195.5555,1180.86398 C-191.34743,1180.9733 -187.521912,1181.19194 -187.08471,1181.35592 C-186.647508,1181.5199 -185.663803,1181.73854 -184.8987,1181.90251 C-184.133596,1182.01183 -181.838285,1182.77707 -179.761575,1183.5423 C-176.701161,1184.69015 -168.886173,1186.54857 -155.715461,1189.11756 C-154.513155,1189.3362 -148.720228,1189.71882 -140.030836,1190.10143 C-136.806471,1190.26541 -132.270499,1190.97598 -128.28103,1191.95985 C-117.62423,1194.63817 -109.590642,1195.29408 -103.469812,1193.98225 C-99.4256932,1193.1077 -89.6432967,1192.06917 -86.0363796,1192.12383 L-81.8829598,1192.17849 L-85.708478,1193.16236 C-87.7851879,1193.76362 -91.2281543,1194.36487 -93.3595144,1194.52885 C-101.393103,1195.23942 -104.617468,1195.89533 -107.568582,1197.48046 C-110.738297,1199.1749 -118.389333,1201.1973 -122.870655,1201.4706 C-124.346212,1201.57992 -127.461277,1201.4706 -129.701937,1201.30662 C-133.519648,1200.97866 -136.152898,1200.71094 -138.81913,1200.28403 L-139.48708,1200.17385 C-142.837308,1199.60514 -146.397592,1198.7591 -152.545746,1197.20716 C-159.049127,1195.51272 -164.568803,1194.09157 -164.732754,1193.92759 C-164.896704,1193.81827 -166.973414,1193.59964 -169.378026,1193.43566 C-178.021441,1192.83788 -180.708461,1192.58825 -183.100791,1192.06845 L-183.370667,1192.00842 C-183.460408,1191.988 -183.550034,1191.96716 -183.639849,1191.94588 L-183.910165,1191.88063 C-184.091159,1191.83618 -184.274125,1191.7898 -184.461497,1191.74122 C-186.210306,1191.30394 -189.16142,1190.32007 -191.019529,1189.55484 C-196.867106,1187.14982 -198.615915,1186.43925 -199.217068,1186.38459 C-199.381018,1186.32993 -199.76357,1186.16595 -199.982171,1185.94731 C-200.200772,1185.67402 -200.747275,1185.51004 -201.184477,1185.51004 C-201.621679,1185.51004 -202.714684,1185.18208 -203.643739,1184.74481 C-204.205856,1184.52617 -205.053492,1184.18259 -205.93172,1183.82627 L-206.592144,1183.55839 C-207.030939,1183.38055 -207.46145,1183.20653 -207.851809,1183.05036 C-208.630575,1182.7429 -209.443924,1182.40854 -210.25151,1182.06601 L-210.788604,1181.83666 C-214.089956,1180.41736 -217.142353,1178.93041 -217.142353,1178.67761 C-217.142353,1178.29499 -212.988933,1178.78693 -210.037819,1179.4975 Z M9.92947663,1178.78693 C9.38297403,1180.53603 8.12601805,1183.05036 7.14231338,1184.36219 C5.22955428,1186.82186 5.01095324,1187.47778 5.6121061,1189.00824 C5.8853574,1189.71882 6.81441182,1189.88279 10.1480777,1189.88279 C12.4433886,1189.88279 15.6677539,1189.66416 17.361912,1189.39086 C25.2315494,1188.07903 26.1059535,1187.3138 24.7943473,1182.77707 C24.1931944,1180.75467 23.5920416,1180.04409 19.8211737,1177.52976 C13.6456943,1173.32098 11.5689844,1173.59428 9.92947663,1178.78693 Z M-12.9689822,1175.12474 C-12.8596817,1175.12474 -12.7503812,1175.39804 -12.7503812,1175.67134 C-12.7503812,1175.99929 -13.0236325,1176.21793 -13.3515341,1176.21793 C-13.6247853,1176.21793 -13.7340859,1175.99929 -13.5701351,1175.67134 C-13.4061843,1175.39804 -13.132933,1175.12474 -12.9689822,1175.12474 Z M-325.06428,1163.17604 L-324.803365,1163.26364 C-323.437108,1163.70092 -318.682536,1165.83264 -314.201214,1167.96435 C-309.774543,1170.09607 -305.894375,1171.84518 -305.566473,1171.84518 C-305.293222,1171.84518 -305.238572,1172.11847 -305.402522,1172.39177 C-305.949025,1173.32098 -308.572238,1172.99302 -311.414051,1171.62654 C-321.63365,1166.76185 -325.89637,1165.72332 -325.89637,1168.01901 C-325.89637,1168.67493 -325.513818,1169.16686 -324.912665,1169.22152 C-324.420813,1169.22152 -323.710359,1169.33084 -323.437108,1169.3855 C-323.109207,1169.49482 -322.070852,1169.54948 -321.087147,1169.60414 C-319.994142,1169.6588 -319.338339,1169.93209 -319.338339,1170.42403 C-319.338339,1171.57188 -328.902134,1172.11847 -331.361396,1171.07994 C-333.984608,1169.98675 -336.826422,1167.0898 -336.826422,1165.50468 C-336.826422,1162.81726 -330.220951,1161.504 -325.06428,1163.17604 Z M-8.92486301,1169.54948 C-9.90856768,1171.1346 -10.5643708,1171.73586 -10.5643708,1171.02528 C-10.5643708,1170.91596 -9.96321794,1169.87743 -9.1981143,1168.78425 C-7.55860651,1166.37923 -7.34000547,1166.98048 -8.92486301,1169.54948 Z M-310.594297,1146.37387 C-310.594297,1146.59251 -310.211745,1147.63104 -309.719893,1148.66957 C-308.736188,1150.69197 -309.00944,1151.89448 -309.993144,1150.09071 C-310.342906,1149.4348 -310.946245,1147.93932 -311.530347,1146.36687 L-311.723961,1145.84092 C-312.524598,1143.6463 -313.229654,1141.46667 -313.108209,1141.3452 C-312.889608,1141.12656 -310.594297,1145.71796 -310.594297,1146.37387 Z M-282.176162,1130.03069 C-281.84826,1130.24933 -281.73896,1130.63195 -281.902911,1130.90525 C-282.394763,1131.67048 -282.722665,1131.5065 -282.722665,1130.52263 C-282.722665,1130.08535 -282.449413,1129.86672 -282.176162,1130.03069 Z M-325.349867,1103.1929 C-324.748714,1104.66871 -324.366163,1105.98054 -324.475463,1106.14451 C-324.639414,1106.25383 -325.021966,1105.7619 -325.349867,1104.94201 C-326.442872,1102.04505 -326.442872,1100.56925 -325.349867,1103.1929 Z M54.1415368,1076.46443 C55.7263943,1077.50296 57.3659021,1078.37751 57.748454,1078.37751 C58.1310058,1078.37751 57.8577545,1079.14274 56.9833503,1080.23593 C55.3438425,1082.42231 55.234542,1083.13288 56.4368477,1084.44471 C57.6938037,1085.8112 56.9833503,1086.52177 54.4147881,1086.46711 C52.8299306,1086.46711 51.8462259,1086.79507 50.8625212,1087.72428 C50.1520678,1088.38019 49.550915,1088.76281 49.550915,1088.54417 C49.550915,1088.32553 51.026472,1086.41245 52.8299306,1084.28073 C54.6333891,1082.09435 56.1089462,1079.96264 56.1089462,1079.4707 C56.1089462,1078.32285 53.3217829,1076.24579 51.245073,1075.86318 C50.3160186,1075.64454 48.9497621,1075.91784 47.8567569,1076.40977 L45.9986481,1077.33898 L47.6381559,1075.9725 C49.8241663,1074.11407 50.7532207,1074.16873 54.1415368,1076.46443 Z M-332.126499,1076.35511 C-331.743948,1076.73773 -331.306746,1081.11048 -331.634647,1081.11048 C-331.798598,1081.11048 -331.907898,1080.94651 -331.962549,1080.72787 C-331.962549,1080.59122 -331.989874,1080.2496 -332.030862,1079.79183 L-332.063951,1079.42811 C-332.099174,1079.04538 -332.140162,1078.60981 -332.18115,1078.15887 C-332.29045,1077.01103 -332.29045,1076.19113 -332.126499,1076.35511 Z M-331.470696,1018.74405 C-326.661474,1019.07201 -326.278922,1019.18133 -325.021966,1020.65713 C-323.382458,1022.51555 -323.546409,1023.99136 -325.89637,1028.69207 C-327.207976,1031.26106 -327.754479,1031.80766 -329.557937,1032.35425 C-330.705593,1032.68221 -332.18115,1032.84619 -332.782303,1032.68221 C-333.984608,1032.35425 -338.138028,1033.33812 -344.532108,1035.41518 C-348.248326,1036.61769 -350.598287,1037.10963 -355.134259,1037.71088 C-355.223687,1037.72281 -355.312789,1037.73489 -355.402551,1037.74736 L-355.583245,1037.77285 L-355.583245,1037.77285 L-355.767447,1037.79972 C-357.259766,1038.02122 -359.256876,1038.41151 -365.79106,1039.8426 C-370.928184,1040.93579 -374.863003,1042.84887 -377.868767,1045.69116 C-379.125723,1046.89367 -381.147783,1048.20549 -382.350088,1048.64277 C-385.191902,1049.62664 -389.181371,1049.62664 -391.20343,1048.53345 C-393.116189,1047.54958 -395.24755,1045.14457 -395.3022,1043.8874 C-395.3022,1042.41159 -393.17084,1040.17055 -390.766228,1039.07737 C-387.323262,1037.5469 -385.246552,1037.2736 -382.62334,1037.98418 C-377.540865,1039.35066 -370.217731,1038.69475 -363.8783,1036.28973 C-362.348093,1035.74314 -359.724881,1034.86859 -357.976072,1034.37665 C-356.227264,1033.88472 -354.041254,1033.01017 -353.057549,1032.46357 C-352.073844,1031.86232 -350.598287,1031.37038 -349.723883,1031.37038 C-346.23505,1031.37038 -340.848444,1026.36153 -340.657178,1023.02387 L-340.65194,1022.84351 C-340.59729,1019.29064 -338.52058,1018.36143 -331.470696,1018.74405 Z M-721.782852,957.033528 C-719.815443,959.87582 -716.044575,965.451084 -713.366712,969.331905 C-710.688849,973.267386 -706.917981,978.897309 -705.059872,981.903579 C-703.857567,983.848812 -702.723905,985.610965 -702.029024,986.656949 L-701.850669,986.92406 C-701.572467,987.338317 -701.391876,987.594593 -701.343655,987.642821 C-700.943504,988.018026 -699.490413,990.682616 -698.063316,993.494075 L-697.747049,994.12039 C-696.172242,997.255348 -694.728194,1000.37569 -694.894924,1000.54245 C-695.058875,1000.65177 -696.315831,999.667901 -697.682087,998.356074 C-699.649497,996.497653 -700.25065,995.568442 -700.25065,994.256615 C-700.25065,993.327404 -700.797152,991.359664 -701.452955,989.938518 C-702.531056,987.573255 -707.260787,980.249792 -712.614214,972.475583 L-713.190044,971.641113 C-713.286367,971.501815 -713.382855,971.362426 -713.47949,971.222969 L-714.060928,970.385634 C-716.684104,966.615872 -719.389419,962.834884 -721.837502,959.547863 C-725.936272,954.081918 -728.668785,949.818481 -728.668785,948.998589 C-728.668785,948.014719 -724.952567,952.387475 -721.782852,957.033528 Z M-110.191794,986.713611 C-110.082494,987.205546 -110.082494,988.080097 -110.191794,988.626692 C-110.355745,989.118627 -110.465046,988.681351 -110.465046,987.642821 C-110.465046,986.604292 -110.355745,986.167016 -110.191794,986.713611 Z M-109.590642,982.942109 C-109.481341,983.81666 -109.590642,984.691211 -109.863893,984.964508 C-110.137144,985.237806 -110.246445,984.581892 -110.082494,983.379384 C-109.809243,981.520963 -109.754592,981.466303 -109.590642,982.942109 Z M-109.098789,975.78172 C-108.989489,976.273655 -108.989489,977.148207 -109.098789,977.694801 C-109.26274,978.186736 -109.372041,977.749461 -109.372041,976.710931 C-109.372041,975.672401 -109.26274,975.235126 -109.098789,975.78172 Z M-83.6864184,958.345355 C-82.2108614,959.001269 -83.5224676,961.023668 -86.6921827,962.88209 C-89.6432967,964.631192 -102.595408,968.512013 -105.491872,968.512013 C-107.24068,968.512013 -108.115085,969.167927 -108.552287,970.971689 C-108.770888,971.84624 -108.825538,971.79158 -108.880188,970.643732 C-108.880188,969.82384 -109.31739,968.894629 -109.809243,968.512013 C-111.612701,966.926889 -111.667351,966.052338 -109.973193,963.975279 C-108.934838,962.718111 -107.841833,961.952879 -107.07673,961.952879 C-106.420926,961.952879 -105.655823,961.734241 -105.327921,961.460944 C-104.508167,960.695712 -99.1524419,959.329225 -93.6327657,958.509333 C-88.3316905,957.689442 -85.3259262,957.689442 -83.6864184,958.345355 Z M-775.121505,933.748602 C-771.678539,934.404515 -769.328578,935.771001 -771.84249,935.661683 C-772.607594,935.661683 -773.591298,935.497704 -774.0285,935.333726 C-774.499623,935.182941 -775.165694,934.915168 -775.836245,934.622295 L-776.237591,934.444293 C-777.367625,933.935588 -778.400521,933.407451 -778.400521,933.311326 C-778.400521,933.256667 -776.924964,933.420645 -775.121505,933.748602 Z M-660.793162,883.243268 C-658.989703,883.243268 -659.262955,885.538965 -661.285014,888.271938 C-662.43267,889.693083 -663.525675,890.895591 -663.744276,890.895591 C-663.962877,890.895591 -664.181478,891.168889 -664.181478,891.496845 C-664.181478,892.098099 -666.75004,895.104369 -668.82675,896.908131 C-671.176711,898.98519 -674.947579,902.155438 -676.696388,903.467265 C-677.625442,904.232498 -678.991698,905.271027 -679.592851,905.817622 C-680.248654,906.309557 -680.904458,906.746832 -681.068408,906.746832 C-681.232359,906.746832 -682.270714,907.566724 -683.309069,908.550594 C-684.402074,909.479805 -685.822981,910.627653 -686.478784,911.01027 C-688.336893,912.048799 -691.99846,911.775502 -695.550727,910.299697 C-700.4146,908.331956 -704.62267,903.795222 -707.081932,898.00132 C-707.628435,896.634834 -708.940041,894.503115 -709.978396,893.191288 C-711.016751,891.879461 -711.672554,890.676953 -711.508603,890.512975 C-711.290002,890.294337 -710.033046,890.676953 -708.72144,891.332867 C-705.497074,892.917991 -703.529665,892.863332 -701.562256,891.168889 C-700.687852,890.403656 -699.376245,889.638424 -698.665792,889.419786 C-697.190235,889.03717 -688.828745,889.529105 -680.795157,890.458316 C-675.384781,891.05957 -675.275481,891.05957 -672.324367,889.638424 C-670.684859,888.873192 -668.7721,888.0533 -668.006996,887.834662 C-667.296543,887.670684 -666.367488,887.124089 -665.930286,886.741473 C-664.290779,885.04703 -661.558266,883.243268 -660.793162,883.243268 Z M-114.181263,792.23528 C-113.361509,793.875064 -113.361509,794.366999 -113.962662,795.624166 C-114.727766,797.20929 -115.328919,797.482588 -116.585875,797.045312 C-119.318388,796.061442 -120.411393,792.016642 -118.280033,790.868794 C-116.312624,789.830264 -115.110318,790.21288 -114.181263,792.23528 Z" id="Combined-Shape" transform="translate(-298.400521, 1322.309839) rotate(-303.000000) translate(298.400521, -1322.309839) "/>
        </g>
    </g>
</svg>