<svg width="340" height="56" viewBox="0 0 340 56" fill="none" xmlns="http://www.w3.org/2000/svg">
<path d="M33.28 55.312C32.064 55.312 30.912 54.8 29.824 53.776C28.736 52.816 28.192 51.76 28.192 50.608C28.192 49.776 28.288 48.944 28.48 48.112C28.736 47.344 28.832 46.544 28.768 45.712C27.936 45.264 26.912 44.656 25.696 43.888C24.48 43.12 23.872 42.16 23.872 41.008C23.872 39.984 24.288 39.12 25.12 38.416C25.952 37.712 26.688 37.136 27.328 36.688H28V36.784H28.192C28.128 37.36 27.968 37.872 27.712 38.32C27.456 38.768 27.2 39.248 26.944 39.76C26.688 40.208 26.464 40.656 26.272 41.104C26.144 41.488 26.08 41.872 26.08 42.256C26.144 42.896 26.56 43.312 27.328 43.504C28.096 43.632 28.768 43.696 29.344 43.696C29.536 42.352 29.984 41.104 30.688 39.952C31.392 38.736 31.968 37.52 32.416 36.304C33.504 33.68 34.784 31.152 36.256 28.72C37.792 26.288 39.296 23.888 40.768 21.52C42.56 18.704 44.288 15.856 45.952 12.976C47.68 10.032 49.6 7.28 51.712 4.72C52.224 4.144 52.864 3.856 53.632 3.856C54.272 3.856 55.072 4.048 56.032 4.432C57.056 4.816 57.6 5.328 57.664 5.968C57.792 7.184 57.344 8.528 56.32 10C55.36 11.472 54.432 12.656 53.536 13.552H53.152L53.056 13.072C53.056 12.944 53.12 12.88 53.248 12.88C53.248 12.88 53.248 12.784 53.248 12.592H52.96L52.384 13.072C52.512 13.648 52.384 14.32 52 15.088C51.616 15.856 51.168 16.592 50.656 17.296C50.144 17.936 49.76 18.448 49.504 18.832C49.12 19.28 48.736 19.76 48.352 20.272C48.032 20.72 47.744 21.168 47.488 21.616C46.912 22.448 46.624 23.28 46.624 24.112H46.336C45.76 24.368 45.152 24.944 44.512 25.84C43.936 26.736 43.392 27.696 42.88 28.72C42.368 29.68 41.92 30.448 41.536 31.024C40.704 32.304 39.904 33.648 39.136 35.056C38.368 36.4 37.696 37.808 37.12 39.28C36.864 39.984 36.288 40.656 35.392 41.296C34.496 41.872 33.856 42.48 33.472 43.12H38.848C38.976 43.056 39.168 43.024 39.424 43.024V42.928C40.064 42.736 40.768 42.576 41.536 42.448C41.792 42.32 42.016 42.256 42.208 42.256C42.464 42.256 42.592 42.224 42.592 42.16C42.848 42.096 43.104 42 43.36 41.872C43.68 41.68 43.936 41.68 44.128 41.872L45.568 41.392L46.048 40.912V41.296C46.624 41.168 47.2 41.04 47.776 40.912C48.352 40.72 48.928 40.624 49.504 40.624C50.208 40.112 50.976 39.824 51.808 39.76C52.64 39.696 53.44 39.568 54.208 39.376C54.592 38.928 55.296 38.512 56.32 38.128C57.344 37.744 58.176 37.552 58.816 37.552H58.912L60.736 36.592C60.864 36.656 61.216 36.56 61.792 36.304C62.368 35.984 63.008 35.632 63.712 35.248L67.264 33.328C69.056 32.368 70.848 31.12 72.64 29.584C74.432 27.984 75.936 26.224 77.152 24.304C78.432 22.384 79.072 20.4 79.072 18.352C79.072 15.472 77.984 13.04 75.808 11.056C73.632 9.072 70.848 7.408 67.456 6.064C64.64 4.848 61.76 4.048 58.816 3.664C55.936 3.216 53.152 2.992 50.464 2.992C47.904 2.992 45.44 3.12 43.072 3.376C40.704 3.632 38.592 3.888 36.736 4.144C35.712 4.272 34.592 4.432 33.376 4.624C32.16 4.816 31.104 5.04 30.208 5.296C29.504 5.488 28.8 5.776 28.096 6.16C27.456 6.48 26.784 6.736 26.08 6.928C22.88 8.08 19.616 9.328 16.288 10.672C13.024 11.952 10.048 13.744 7.36 16.048C7.104 16.304 6.72 16.656 6.208 17.104C5.76 17.488 5.536 17.904 5.536 18.352C5.536 18.736 5.824 19.024 6.4 19.216C7.04 19.408 7.712 19.536 8.416 19.6C9.12 19.6 9.6 19.6 9.856 19.6L9.76 19.408H8.896L10.72 19.216C10.784 19.216 10.816 19.248 10.816 19.312C10.816 19.312 10.848 19.312 10.912 19.312C11.872 19.184 12.8 19.024 13.696 18.832C14.592 18.64 15.456 18.448 16.288 18.256V18.064H17.44C17.44 18.192 17.44 18.352 17.44 18.544C17.504 18.736 17.408 18.896 17.152 19.024C15.872 19.6 14.208 20.208 12.16 20.848C10.112 21.488 8.32 21.808 6.784 21.808C5.376 21.808 3.936 21.36 2.464 20.464C0.992 19.504 0.256 18.288 0.256 16.816C0.256 15.6 0.992 14.384 2.464 13.168C3.872 11.888 5.664 10.672 7.84 9.52C10.016 8.368 12.224 7.344 14.464 6.448C16.768 5.488 18.784 4.72 20.512 4.144C22.24 3.504 23.328 3.12 23.776 2.992C24.608 2.736 25.408 2.576 26.176 2.512C27.008 2.384 27.84 2.256 28.672 2.128C30.208 1.872 31.712 1.616 33.184 1.36C34.72 1.04 36.256 0.879997 37.792 0.879997V0.783998H40.672L41.44 0.399998C43.104 0.463997 44.768 0.495996 46.432 0.495996C48.16 0.431997 49.824 0.463998 51.424 0.591998C55.456 0.847999 59.424 1.488 63.328 2.512C67.296 3.536 70.912 5.136 74.176 7.312C77.44 9.424 80.064 12.336 82.048 16.048C82.56 16.88 82.88 17.744 83.008 18.64C83.2 19.536 83.296 20.432 83.296 21.328C83.296 24.4 82.368 27.12 80.512 29.488C78.656 31.792 76.288 33.808 73.408 35.536C70.528 37.264 67.52 38.768 64.384 40.048C61.248 41.264 58.4 42.32 55.84 43.216C54.624 43.6 53.536 44.048 52.576 44.56C51.616 45.072 50.464 45.328 49.12 45.328H48.832L48.16 45.52C47.904 45.584 47.648 45.648 47.392 45.712C47.136 45.776 46.976 45.84 46.912 45.904C46.016 46.096 45.12 46.192 44.224 46.192C43.328 46.256 42.432 46.288 41.536 46.288H37.984C37.408 46.288 36.8 46.256 36.16 46.192C35.584 46.128 35.008 46.096 34.432 46.096C34.176 46.096 33.792 46.096 33.28 46.096C32.832 46.16 32.544 46.256 32.416 46.384C31.968 46.768 31.712 47.44 31.648 48.4C31.648 49.36 31.68 50.096 31.744 50.608C31.808 51.248 31.968 52.016 32.224 52.912C32.544 53.808 33.216 54.256 34.24 54.256L34.336 55.12C34.08 55.184 33.856 55.216 33.664 55.216C33.536 55.28 33.408 55.312 33.28 55.312ZM89.821 46.672C88.669 46.672 87.421 46.448 86.077 46C84.797 45.552 83.677 44.88 82.717 43.984C81.821 43.088 81.309 42 81.181 40.72C81.181 40.4 81.181 40.08 81.181 39.76C81.245 39.44 81.245 39.152 81.181 38.896C81.181 38.704 80.989 38.512 80.605 38.32L80.317 38.032C80.061 37.904 79.805 37.744 79.549 37.552C79.293 37.296 79.165 37.008 79.165 36.688C79.357 36.624 79.517 36.592 79.645 36.592C79.965 36.592 80.253 36.624 80.509 36.688C80.829 36.752 81.117 36.784 81.373 36.784C81.309 36.784 81.341 36.656 81.469 36.4C81.469 36.272 81.501 36.144 81.565 36.016C81.629 35.824 81.693 35.696 81.757 35.632C81.821 35.632 81.917 35.408 82.045 34.96C82.173 34.448 82.269 34.16 82.333 34.096C83.229 31.344 84.445 29.008 85.981 27.088C87.581 25.104 89.757 23.632 92.509 22.672C92.765 22.608 92.989 22.576 93.181 22.576C93.437 22.512 93.693 22.48 93.949 22.48C94.461 22.48 95.133 22.672 95.965 23.056C96.797 23.376 97.533 23.824 98.173 24.4C98.877 24.912 99.261 25.456 99.325 26.032C99.325 26.288 99.325 26.512 99.325 26.704C99.389 26.896 99.421 27.12 99.421 27.376C99.421 27.76 99.325 28.208 99.133 28.72L98.557 29.008C98.429 29.264 98.301 29.456 98.173 29.584L97.597 30.256C97.085 30.768 96.893 31.12 97.021 31.312L96.829 31.408C96.829 31.408 96.829 31.44 96.829 31.504C96.829 31.504 96.797 31.504 96.733 31.504L96.829 31.408L96.733 31.504V31.6L96.253 31.696C95.997 31.888 95.773 32.112 95.581 32.368C95.389 32.56 95.197 32.784 95.005 33.04C94.045 34.064 92.797 34.96 91.261 35.728C89.725 36.432 88.317 37.072 87.037 37.648C86.845 37.712 86.557 37.808 86.173 37.936C85.853 38 85.629 38.128 85.501 38.32C85.245 38.64 85.085 39.056 85.021 39.568C84.957 40.08 84.925 40.56 84.925 41.008C85.053 41.776 85.245 42.512 85.501 43.216C85.821 43.92 86.461 44.272 87.421 44.272H88.285C88.605 44.272 88.925 44.24 89.245 44.176C89.629 44.112 90.013 44.048 90.397 43.984L91.069 43.6L91.165 43.696C91.549 43.568 92.221 43.28 93.181 42.832C94.141 42.384 95.069 41.936 95.965 41.488C96.861 40.976 97.405 40.624 97.597 40.432L97.693 40.336L97.789 40.144L98.077 39.856C99.229 39.024 100.349 38.32 101.437 37.744C102.525 37.104 103.581 36.272 104.605 35.248L104.797 35.44H105.085C105.021 35.888 104.861 36.24 104.605 36.496C104.349 36.688 104.061 36.944 103.741 37.264L103.453 37.744C102.685 38.96 101.501 40.176 99.901 41.392C98.365 42.608 96.957 43.632 95.677 44.464C95.229 44.72 94.781 45.04 94.333 45.424C93.885 45.744 93.373 46 92.797 46.192C91.709 46.512 90.717 46.672 89.821 46.672ZM86.749 34.768C87.133 34.768 87.389 34.768 87.517 34.768C87.709 34.704 87.965 34.64 88.285 34.576C89.565 33.872 90.749 33.04 91.837 32.08C92.989 31.12 94.077 30.16 95.101 29.2C95.229 28.752 95.549 28.368 96.061 28.048L96.445 27.76C96.573 27.632 96.669 27.504 96.733 27.376C96.861 27.248 96.925 27.12 96.925 26.992C96.989 26.928 96.957 26.704 96.829 26.32L96.733 25.84V25.648C96.541 25.584 96.285 25.552 95.965 25.552C95.517 25.744 95.069 26.032 94.621 26.416C94.173 26.8 93.693 27.024 93.181 27.088C92.925 27.472 92.381 27.984 91.549 28.624C91.101 29.008 90.653 29.392 90.205 29.776C89.821 30.096 89.565 30.32 89.437 30.448C88.989 30.896 88.445 31.6 87.805 32.56C87.165 33.456 86.813 34.192 86.749 34.768ZM106.065 48.304C105.169 48.304 104.497 47.92 104.049 47.152C103.665 46.448 103.473 45.776 103.473 45.136C103.473 43.664 103.665 42.224 104.049 40.816C104.433 39.344 104.753 37.904 105.009 36.496C105.201 35.6 105.329 34.704 105.393 33.808C105.521 32.912 105.617 32.016 105.681 31.12C105.745 30.672 105.809 30.256 105.873 29.872C105.937 29.424 106.001 28.976 106.065 28.528V27.76C106.065 27.056 105.937 26.608 105.681 26.416C105.425 26.224 104.817 26.128 103.857 26.128C103.537 26.128 103.313 26.064 103.185 25.936C103.121 25.872 103.089 25.84 103.089 25.84C103.089 25.776 103.089 25.744 103.089 25.744C103.089 25.488 103.185 25.296 103.377 25.168C103.633 25.04 103.857 24.944 104.049 24.88L105.393 25.168L105.585 25.072C105.969 25.136 106.385 25.168 106.833 25.168C107.345 25.104 107.825 25.072 108.273 25.072C108.977 25.072 109.617 25.36 110.193 25.936C110.769 26.448 111.057 27.056 111.057 27.76C111.057 28.144 110.993 28.528 110.865 28.912C110.801 29.232 110.737 29.584 110.673 29.968C110.673 30.032 110.705 30.128 110.769 30.256V30.448C110.897 30.896 110.769 31.504 110.385 32.272C110.001 32.976 109.745 33.584 109.617 34.096C109.553 34.48 109.489 34.864 109.425 35.248C109.425 35.568 109.361 35.888 109.233 36.208C109.105 36.528 109.009 36.88 108.945 37.264C108.881 37.648 108.785 38.032 108.657 38.416C108.401 39.056 108.209 39.856 108.081 40.816C108.081 41.072 108.081 41.2 108.081 41.2C108.145 41.2 108.209 41.136 108.273 41.008C108.593 40.496 108.881 39.952 109.137 39.376C109.393 38.8 109.681 38.288 110.001 37.84C111.281 36.176 112.625 34.544 114.033 32.944C115.505 31.344 117.009 29.808 118.545 28.336C119.569 27.44 120.561 26.576 121.521 25.744C122.481 24.912 123.601 24.272 124.881 23.824C125.457 23.632 126.001 23.536 126.513 23.536C127.921 23.536 128.977 23.952 129.681 24.784C130.001 25.232 130.161 25.616 130.161 25.936C130.161 26.192 130.033 26.32 129.777 26.32C129.649 26.32 129.329 26.16 128.817 25.84C128.561 25.648 128.209 25.552 127.761 25.552C127.377 25.552 127.025 25.552 126.705 25.552C126.001 25.552 125.041 25.936 123.825 26.704C123.569 26.896 123.313 27.088 123.057 27.28C122.865 27.408 122.737 27.6 122.673 27.856C122.225 27.92 121.937 28.08 121.809 28.336C121.681 28.592 121.457 28.88 121.137 29.2L120.465 29.488L118.353 31.792H118.257L118.353 32.176C118.033 32.176 117.809 32.24 117.681 32.368C117.297 32.624 116.977 32.976 116.721 33.424C116.465 33.808 116.177 34.16 115.857 34.48L115.569 34.768C115.313 35.024 115.089 35.312 114.897 35.632C114.769 35.952 114.609 36.304 114.417 36.688L113.553 37.264L113.649 37.552C113.393 37.744 113.265 37.936 113.265 38.128C112.817 38.576 112.241 39.28 111.537 40.24C110.833 41.2 110.449 41.936 110.385 42.448C109.937 42.64 109.457 43.088 108.945 43.792C108.497 44.496 108.113 45.232 107.793 46C107.473 46.704 107.313 47.248 107.313 47.632C107.249 47.888 107.089 48.048 106.833 48.112C106.577 48.24 106.321 48.304 106.065 48.304ZM123.826 51.28C123.442 51.28 123.122 51.12 122.866 50.8C122.546 50.544 122.258 50.224 122.002 49.84L121.618 49.264C121.49 49.136 121.362 48.976 121.234 48.784C121.042 48.592 120.818 48.496 120.562 48.496C120.562 48.176 120.498 47.92 120.37 47.728C120.242 47.536 120.178 47.28 120.178 46.96C121.522 45.104 123.218 43.44 125.266 41.968C127.314 40.432 129.394 39.12 131.506 38.032H131.794C132.178 37.648 132.658 37.328 133.234 37.072C133.81 36.816 134.29 36.464 134.674 36.016C133.65 35.504 132.626 35.088 131.602 34.768C130.642 34.384 129.714 33.84 128.818 33.136C128.05 32.56 127.314 31.856 126.61 31.024C125.906 30.128 125.554 29.2 125.554 28.24C125.554 26.768 125.938 25.328 126.706 23.92C127.538 22.448 128.53 21.392 129.682 20.752C129.938 20.304 130.578 19.824 131.602 19.312C132.626 18.8 133.682 18.32 134.77 17.872C135.858 17.424 136.658 17.104 137.17 16.912C137.618 16.592 138.098 16.432 138.61 16.432L139.858 15.856H139.954C140.594 15.856 141.33 15.824 142.162 15.76C142.994 15.696 143.666 15.664 144.178 15.664C144.626 15.664 145.234 15.856 146.002 16.24C146.77 16.624 147.474 17.104 148.114 17.68C148.754 18.192 149.074 18.704 149.074 19.216C149.138 19.536 148.978 20.048 148.594 20.752C148.274 21.392 147.89 22.032 147.442 22.672C147.058 23.248 146.738 23.6 146.482 23.728L146.194 23.824H145.81L145.714 23.344C146.034 23.024 146.322 22.512 146.578 21.808C146.834 21.104 146.962 20.496 146.962 19.984C146.962 19.024 146.418 18.544 145.33 18.544C144.562 18.544 143.794 18.672 143.026 18.928C142.322 19.12 141.618 19.344 140.914 19.6C138.418 20.432 136.21 21.456 134.29 22.672C132.37 23.824 130.674 25.616 129.202 28.048C128.754 28.752 128.53 29.392 128.53 29.968C128.53 30.928 129.362 31.792 131.026 32.56C131.282 32.624 131.826 32.912 132.658 33.424C133.554 33.872 134.418 34.32 135.25 34.768C136.082 35.152 136.498 35.344 136.498 35.344C136.818 35.344 137.138 35.216 137.458 34.96C137.778 34.64 138.066 34.416 138.322 34.288C139.41 33.776 140.754 33.136 142.354 32.368C143.954 31.536 145.33 31.056 146.482 30.928C146.674 30.864 146.866 30.8 147.058 30.736C147.314 30.672 147.57 30.608 147.826 30.544C148.146 30.544 148.37 30.704 148.498 31.024C148.37 31.344 148.082 31.568 147.634 31.696C147.314 31.952 146.834 32.24 146.194 32.56C145.554 32.816 145.01 33.04 144.562 33.232C144.114 33.36 143.73 33.616 143.41 34C143.346 34.192 143.154 34.384 142.834 34.576C142.386 34.896 141.682 35.376 140.722 36.016C139.826 36.592 139.41 37.232 139.474 37.936C139.474 38.128 139.666 38.448 140.05 38.896C140.498 39.28 140.754 39.632 140.818 39.952C140.882 40.464 140.754 41.168 140.434 42.064C140.178 42.96 139.826 43.632 139.378 44.08L139.474 44.464C139.026 44.592 138.738 44.784 138.61 45.04C138.482 45.232 138.29 45.488 138.034 45.808C137.842 46.064 137.618 46.256 137.362 46.384C137.106 46.576 136.754 46.672 136.306 46.672L135.826 47.248H135.73C135.282 47.248 134.898 47.408 134.578 47.728C134.258 48.112 133.938 48.464 133.618 48.784L133.33 48.688C133.01 48.688 132.562 48.816 131.986 49.072C131.474 49.392 131.058 49.616 130.738 49.744C130.29 49.936 129.81 50.096 129.298 50.224C128.786 50.352 128.21 50.416 127.57 50.416C127.378 50.416 127.186 50.416 126.994 50.416C126.802 50.416 126.61 50.384 126.418 50.32C126.354 50.384 126.258 50.416 126.13 50.416L125.842 50.608C125.458 50.736 125.17 50.8 124.978 50.8C124.594 50.8 124.402 50.672 124.402 50.416C124.466 50.224 124.594 50.032 124.786 49.84C124.914 49.712 125.202 49.552 125.65 49.36C126.098 49.232 126.546 49.04 126.994 48.784C127.506 48.592 127.954 48.368 128.338 48.112C128.786 47.92 129.138 47.792 129.394 47.728C129.458 47.664 129.522 47.6 129.586 47.536C129.65 47.472 129.714 47.408 129.778 47.344L130.354 46.96C131.25 46.384 132.21 45.648 133.234 44.752C134.258 43.792 135.122 42.768 135.826 41.68C136.594 40.592 136.914 39.568 136.786 38.608C136.786 38.48 136.754 38.256 136.69 37.936C136.626 37.616 136.498 37.456 136.306 37.456C136.114 37.456 135.89 37.584 135.634 37.84C135.378 38.096 135.186 38.288 135.058 38.416C134.61 38.736 134.098 39.056 133.522 39.376C133.01 39.696 132.498 40.048 131.986 40.432C131.346 40.88 130.77 41.392 130.258 41.968C129.746 42.48 129.17 42.992 128.53 43.504C127.698 44.144 126.898 44.816 126.13 45.52C125.426 46.16 124.722 46.864 124.018 47.632C123.634 48.144 123.442 48.72 123.442 49.36C123.506 49.616 123.602 49.872 123.73 50.128C123.858 50.448 123.954 50.768 124.018 51.088L123.922 51.28H123.826ZM200.431 29.776C199.215 29.776 197.967 29.776 196.687 29.776C195.407 29.712 194.127 29.648 192.847 29.584C192.079 29.584 191.567 29.52 191.311 29.392C191.055 29.2 190.927 29.008 190.927 28.816C190.927 28.56 191.023 28.336 191.215 28.144C191.407 27.952 191.535 27.824 191.599 27.76L191.503 27.472C191.759 27.536 191.919 27.632 191.983 27.76C192.111 27.824 192.207 27.856 192.271 27.856L192.367 27.76H192.463C192.719 27.632 193.071 27.568 193.519 27.568C193.839 27.568 194.127 27.6 194.383 27.664C194.639 27.664 194.895 27.664 195.151 27.664C195.727 27.664 196.303 27.632 196.879 27.568C197.519 27.504 198.159 27.44 198.799 27.376C198.927 27.376 199.311 27.312 199.951 27.184C200.143 27.12 200.303 27.088 200.431 27.088C200.623 27.024 200.751 26.928 200.815 26.8H201.775C202.095 26.8 202.383 26.8 202.639 26.8C202.959 26.736 203.151 26.608 203.215 26.416C204.175 26.416 205.103 26.32 205.999 26.128C206.959 25.872 207.919 25.68 208.879 25.552C209.519 25.424 210.095 25.232 210.607 24.976C211.183 24.656 211.823 24.464 212.527 24.4L215.599 23.248C216.111 23.056 216.495 22.832 216.751 22.576C217.071 22.32 217.391 22.064 217.711 21.808C217.839 21.68 217.967 21.584 218.095 21.52C218.287 21.392 218.479 21.296 218.671 21.232C219.951 20.592 220.975 19.696 221.743 18.544C222.511 17.392 223.087 16.24 223.471 15.088C223.855 13.872 224.047 12.976 224.047 12.4C224.047 10.416 223.279 8.88 221.743 7.792C220.271 6.704 218.415 5.904 216.175 5.392C213.999 4.88 211.759 4.56 209.455 4.432C207.151 4.304 205.231 4.24 203.695 4.24C203.055 4.24 202.415 4.304 201.775 4.432C201.199 4.56 200.591 4.688 199.951 4.816C198.991 5.008 197.999 5.104 196.975 5.104C196.015 5.04 195.055 5.072 194.095 5.2C189.999 6.032 185.903 7.28 181.807 8.944C177.775 10.544 174.159 12.56 170.959 14.992C170.191 15.568 169.295 16.304 168.271 17.2C167.247 18.032 166.383 18.928 165.679 19.888C164.975 20.848 164.655 21.808 164.719 22.768C164.719 22.96 164.879 23.248 165.199 23.632C165.519 24.016 165.679 24.336 165.679 24.592C165.679 24.912 165.423 25.072 164.911 25.072C164.271 24.752 163.759 24.08 163.375 23.056C163.055 21.968 162.895 21.168 162.895 20.656C162.703 18.8 162.959 16.976 163.663 15.184C164.431 13.328 165.711 12.08 167.503 11.44C168.015 11.248 168.527 11.12 169.039 11.056C169.615 10.928 170.127 10.8 170.575 10.672C171.279 10.416 171.983 10.032 172.687 9.52C173.455 8.944 174.159 8.432 174.799 7.984C175.311 7.92 175.791 7.792 176.239 7.6C176.687 7.344 177.135 7.152 177.583 7.024C178.223 6.768 179.279 6.416 180.751 5.968C182.223 5.456 183.695 5.008 185.167 4.624C186.639 4.176 187.663 3.952 188.239 3.952C188.751 3.632 189.327 3.44 189.967 3.376C190.607 3.248 191.247 3.184 191.887 3.184C192.207 2.992 192.751 2.832 193.519 2.704C194.287 2.512 194.863 2.448 195.247 2.512C195.503 2.448 196.079 2.384 196.975 2.32C197.871 2.256 198.863 2.192 199.951 2.128C201.039 2 201.967 1.904 202.735 1.84C203.567 1.776 203.983 1.744 203.983 1.744C205.647 1.744 207.343 1.776 209.071 1.84C210.863 1.84 212.591 2.064 214.255 2.512C216.239 2.96 218.223 3.728 220.207 4.816C222.191 5.84 223.887 7.152 225.295 8.752C226.703 10.352 227.503 12.176 227.695 14.224C227.759 15.248 227.663 16.24 227.407 17.2C227.151 18.096 226.767 18.96 226.255 19.792C224.847 22.16 222.799 24.016 220.111 25.36C217.423 26.704 214.671 27.728 211.855 28.432C211.215 28.56 210.543 28.72 209.839 28.912C209.135 29.04 208.431 29.136 207.727 29.2C206.511 29.264 205.263 29.392 203.983 29.584C202.767 29.712 201.583 29.776 200.431 29.776ZM187.279 48.784C186.319 48.784 185.231 48.464 184.015 47.824C182.799 47.184 181.743 46.384 180.847 45.424C179.951 44.4 179.439 43.44 179.311 42.544C179.183 40.88 179.503 39.184 180.271 37.456C181.039 35.664 181.839 34.096 182.671 32.752C183.503 31.344 183.887 30.384 183.823 29.872C183.951 29.744 184.143 29.584 184.399 29.392C184.719 29.136 184.815 28.944 184.687 28.816C186.415 26 188.207 23.312 190.063 20.752C190.255 20.496 190.415 20.24 190.543 19.984C190.671 19.664 190.831 19.376 191.023 19.12C191.471 18.544 191.951 18 192.463 17.488C192.975 16.912 193.455 16.368 193.903 15.856C194.607 14.96 195.279 14.064 195.919 13.168C196.559 12.208 197.199 11.312 197.839 10.48C198.159 10.096 198.639 9.584 199.279 8.944C199.983 8.24 200.335 7.632 200.335 7.12C200.271 6.992 200.143 6.832 199.951 6.64L199.855 6.448C199.599 6.256 199.471 6 199.471 5.68L199.759 5.392C200.143 5.456 200.879 5.648 201.967 5.968C203.119 6.288 204.175 6.736 205.135 7.312C206.095 7.888 206.575 8.592 206.575 9.424C206.575 10.064 206.223 10.736 205.519 11.44C204.879 12.08 204.143 12.72 203.311 13.36C202.543 13.936 201.903 14.48 201.391 14.992C199.855 16.592 198.095 18.608 196.111 21.04C194.127 23.408 192.207 25.968 190.351 28.72C188.495 31.408 186.991 34.128 185.839 36.88C184.687 39.632 184.207 42.224 184.399 44.656C184.463 45.168 184.623 45.712 184.879 46.288C185.135 46.864 185.583 47.152 186.223 47.152L189.967 44.848C190.671 44.336 191.311 43.856 191.887 43.408C192.527 42.96 192.847 42.576 192.847 42.256H193.711C193.455 42.96 193.167 43.504 192.847 43.888C192.527 44.208 192.175 44.656 191.791 45.232C191.215 46 190.575 46.768 189.871 47.536C189.231 48.368 188.367 48.784 187.279 48.784ZM234.887 22.672C234.247 22.672 233.479 22.608 232.583 22.48C231.687 22.288 231.207 21.712 231.143 20.752C231.143 20.624 231.367 20.304 231.815 19.792C232.327 19.28 232.839 18.768 233.351 18.256C233.927 17.744 234.279 17.424 234.407 17.296C234.599 17.168 235.047 16.816 235.751 16.24C236.519 15.664 237.031 15.568 237.287 15.952C237.351 16.016 237.383 16.464 237.383 17.296V18.64C237.383 18.768 237.319 18.896 237.191 19.024C237.127 19.024 236.967 19.088 236.711 19.216C236.519 19.28 236.423 19.344 236.423 19.408L236.519 19.504C236.647 19.568 236.743 19.696 236.807 19.888C236.935 20.08 236.967 20.24 236.903 20.368C236.647 20.816 236.327 21.328 235.943 21.904C235.559 22.416 235.207 22.672 234.887 22.672ZM225.959 47.44C225.703 47.44 225.159 47.344 224.327 47.152C223.559 46.96 223.047 46.8 222.791 46.672C222.151 46.224 221.703 45.84 221.447 45.52C221.191 45.2 221.063 44.528 221.063 43.504C221.063 41.648 221.479 39.824 222.311 38.032C223.207 36.176 224.007 34.416 224.711 32.752C224.839 32.624 224.839 32.528 224.711 32.464V32.272C224.519 31.632 224.679 30.896 225.191 30.064C225.703 29.168 226.311 28.336 227.015 27.568C227.719 26.8 228.263 26.288 228.647 26.032C228.967 26.032 229.543 26.096 230.375 26.224C231.207 26.288 232.007 26.416 232.775 26.608C233.543 26.8 233.927 27.12 233.927 27.568C233.927 27.632 233.831 27.792 233.639 28.048C233.447 28.304 233.223 28.592 232.967 28.912L232.199 29.776C231.943 30.032 231.815 30.192 231.815 30.256C231.239 31.28 230.471 32.528 229.511 34C228.551 35.472 227.655 36.976 226.823 38.512C226.247 39.536 225.767 40.528 225.383 41.488C225.063 42.384 224.903 43.184 224.903 43.888C224.903 44.464 225.031 44.88 225.287 45.136C225.991 45.008 226.727 44.56 227.495 43.792C228.327 43.024 228.999 42.32 229.511 41.68H229.991C229.991 42.32 229.767 42.864 229.319 43.312L229.031 43.6C228.711 44.176 228.295 44.976 227.783 46C227.335 46.96 226.727 47.44 225.959 47.44ZM240.028 48.4C239.388 48.4 238.844 48.304 238.396 48.112C238.012 47.984 237.66 47.856 237.34 47.728C237.148 47.6 236.924 47.44 236.668 47.248C236.476 47.056 236.252 46.96 235.996 46.96C235.932 46.832 235.804 46.672 235.612 46.48L235.228 46.192C234.652 45.744 234.268 45.2 234.076 44.56C233.884 43.92 233.788 43.184 233.788 42.352C233.788 41.264 234.044 40.272 234.556 39.376C235.068 38.48 235.484 37.52 235.804 36.496C235.932 36.176 235.996 35.856 235.996 35.536C235.996 35.216 236.028 34.896 236.092 34.576C236.22 34.128 236.412 33.712 236.668 33.328C236.924 32.944 237.18 32.56 237.436 32.176C238.908 29.616 240.668 27.568 242.716 26.032C244.764 24.432 247.228 23.088 250.108 22C250.428 21.872 250.972 21.744 251.74 21.616C252.572 21.488 253.148 21.424 253.468 21.424C253.98 21.424 254.46 21.52 254.908 21.712C255.356 21.84 255.804 21.968 256.252 22.096C256.38 22.16 256.508 22.224 256.636 22.288C256.828 22.288 257.052 22.288 257.308 22.288L257.116 22.576C257.692 22.832 258.14 23.184 258.46 23.632C258.844 24.08 259.26 24.496 259.708 24.88L260.572 25.648C260.828 25.904 260.988 26.256 261.052 26.704C261.18 27.088 261.244 27.408 261.244 27.664C261.372 28.56 261.308 29.424 261.052 30.256C260.86 31.024 260.604 31.76 260.284 32.464C259.9 33.104 259.484 33.776 259.036 34.48C258.588 35.12 258.108 35.76 257.596 36.4C257.148 37.04 256.7 37.68 256.252 38.32C255.804 38.96 255.292 39.568 254.716 40.144C254.588 40.272 254.268 40.592 253.756 41.104C253.244 41.552 252.732 42.032 252.22 42.544C251.772 43.056 251.516 43.376 251.452 43.504C250.876 43.696 250.396 43.984 250.012 44.368L249.436 44.944C248.284 46.096 246.812 46.96 245.02 47.536C243.228 48.112 241.564 48.4 240.028 48.4ZM240.508 46.576C240.572 46.512 240.668 46.48 240.796 46.48L241.66 46.192C241.98 46.064 242.268 45.968 242.524 45.904C242.844 45.84 243.036 45.776 243.1 45.712C243.356 45.584 243.868 45.264 244.636 44.752C245.468 44.24 246.236 43.696 246.94 43.12C247.644 42.544 247.964 42.128 247.9 41.872C248.348 41.68 248.892 41.168 249.532 40.336C250.236 39.504 250.876 38.608 251.452 37.648C252.092 36.688 252.508 36.016 252.7 35.632C252.828 35.312 252.956 35.024 253.084 34.768C253.212 34.512 253.404 34.256 253.66 34C253.66 33.68 253.724 33.392 253.852 33.136C254.044 32.88 254.14 32.656 254.14 32.464C254.268 32.336 254.332 32.144 254.332 31.888C254.396 31.568 254.46 31.344 254.524 31.216C254.652 30.704 254.748 30.384 254.812 30.256L254.716 30.16C254.78 30.032 254.812 29.904 254.812 29.776C254.876 29.584 254.94 29.456 255.004 29.392V29.104C255.004 28.784 255.036 28.496 255.1 28.24C255.164 27.92 255.164 27.6 255.1 27.28C255.228 27.024 255.292 26.8 255.292 26.608C255.292 26.416 255.26 26.224 255.196 26.032C255.196 25.84 255.164 25.648 255.1 25.456L255.196 25.36C255.132 24.784 254.94 24.304 254.62 23.92C254.3 23.536 253.884 23.344 253.372 23.344C251.772 23.344 250.364 23.76 249.148 24.592C247.932 25.424 246.748 26.352 245.596 27.376C245.148 27.696 244.732 28.016 244.348 28.336C244.028 28.656 243.708 29.04 243.388 29.488C243.388 29.552 243.356 29.616 243.292 29.68C243.42 29.552 243.612 29.456 243.868 29.392C244.444 28.944 245.18 28.72 246.076 28.72C246.396 28.72 247.036 29.008 247.996 29.584C248.956 30.16 249.436 30.704 249.436 31.216V31.696C248.988 31.504 248.732 31.376 248.668 31.312L248.284 31.12C248.028 30.992 247.74 30.928 247.42 30.928C246.396 30.928 245.308 31.408 244.156 32.368C243.068 33.328 242.172 34.256 241.468 35.152C241.02 35.664 240.604 36.176 240.22 36.688C239.836 37.136 239.676 37.776 239.74 38.608C240.06 38.8 240.284 39.152 240.412 39.664C240.22 39.728 240.028 39.76 239.836 39.76C239.516 39.76 239.196 39.6 238.876 39.28C238.684 39.536 238.524 39.888 238.396 40.336C238.268 40.784 238.14 41.168 238.012 41.488L237.82 41.776C237.82 42.032 237.788 42.288 237.724 42.544C237.724 42.8 237.756 43.056 237.82 43.312C237.884 44.272 238.108 45.072 238.492 45.712C238.876 46.288 239.548 46.576 240.508 46.576ZM265.849 44.848C265.401 44.848 264.857 44.656 264.217 44.272C263.641 43.888 263.321 43.44 263.257 42.928C263.193 41.712 263.385 40.24 263.833 38.512C264.345 36.72 264.985 34.864 265.753 32.944C266.521 31.024 267.321 29.232 268.153 27.568C268.985 25.84 269.689 24.432 270.265 23.344C270.585 22.704 270.841 22.096 271.033 21.52C271.289 20.88 271.641 20.272 272.089 19.696C272.601 19.696 273.241 19.824 274.009 20.08C274.841 20.336 275.577 20.656 276.217 21.04C276.921 21.424 277.273 21.872 277.273 22.384C277.273 22.96 276.921 23.6 276.217 24.304C275.577 24.944 275.065 25.488 274.681 25.936C273.337 27.472 271.961 29.104 270.553 30.832C269.209 32.496 268.153 34.288 267.385 36.208C267.193 36.656 267.033 37.104 266.905 37.552C266.841 38 266.681 38.416 266.425 38.8C266.361 38.992 266.265 39.184 266.137 39.376C266.009 39.568 265.945 39.792 265.945 40.048L265.849 41.104C266.361 40.528 267.161 39.6 268.249 38.32C269.401 37.04 270.617 35.696 271.897 34.288C273.241 32.816 274.489 31.536 275.641 30.448C276.793 29.36 277.593 28.752 278.041 28.624C278.297 28.496 278.553 28.432 278.809 28.432C279.961 28.432 281.049 28.816 282.073 29.584C283.161 30.288 283.737 31.12 283.801 32.08C283.801 32.336 283.737 32.752 283.609 33.328C283.545 33.904 283.481 34.352 283.417 34.672C283.353 35.312 283.257 36.016 283.129 36.784C283.065 37.488 283.033 38.224 283.033 38.992C283.033 40.144 283.225 41.136 283.609 41.968C283.993 42.736 284.697 43.12 285.721 43.12C285.977 42.992 286.265 42.896 286.585 42.832C286.969 42.704 287.289 42.64 287.545 42.64C287.865 42.64 288.089 42.832 288.217 43.216C288.217 43.6 287.993 43.92 287.545 44.176C287.097 44.432 286.713 44.56 286.393 44.56H285.145C284.697 44.56 284.281 44.56 283.897 44.56C283.513 44.496 283.129 44.4 282.745 44.272C282.105 44.144 281.497 43.856 280.921 43.408C280.345 42.96 279.897 42.32 279.577 41.488C279.257 40.528 278.969 39.696 278.713 38.992C278.521 38.288 278.425 37.424 278.425 36.4V33.712C278.425 33.264 278.425 32.848 278.425 32.464C278.489 32.08 278.489 31.792 278.425 31.6C277.849 31.792 277.241 32.272 276.601 33.04C275.961 33.808 275.449 34.416 275.065 34.864C274.809 35.12 274.585 35.28 274.393 35.344L274.105 35.632C273.849 35.888 273.529 36.272 273.145 36.784C272.761 37.232 272.409 37.616 272.089 37.936C271.897 38.128 271.737 38.256 271.609 38.32L271.129 38.704L270.457 39.376C270.073 40.08 269.625 40.72 269.113 41.296C268.665 41.808 268.217 42.416 267.769 43.12C267.641 43.248 267.577 43.344 267.577 43.408L267.385 43.792C267.193 44.112 267.001 44.368 266.809 44.56C266.617 44.752 266.297 44.848 265.849 44.848ZM297.665 46.672C296.513 46.672 295.265 46.448 293.921 46C292.641 45.552 291.521 44.88 290.561 43.984C289.665 43.088 289.153 42 289.025 40.72C289.025 40.4 289.025 40.08 289.025 39.76C289.089 39.44 289.089 39.152 289.025 38.896C289.025 38.704 288.833 38.512 288.449 38.32L288.161 38.032C287.905 37.904 287.649 37.744 287.393 37.552C287.137 37.296 287.009 37.008 287.009 36.688C287.201 36.624 287.361 36.592 287.489 36.592C287.809 36.592 288.097 36.624 288.353 36.688C288.673 36.752 288.961 36.784 289.217 36.784C289.153 36.784 289.185 36.656 289.313 36.4C289.313 36.272 289.345 36.144 289.409 36.016C289.473 35.824 289.537 35.696 289.601 35.632C289.665 35.632 289.761 35.408 289.889 34.96C290.017 34.448 290.113 34.16 290.177 34.096C291.073 31.344 292.289 29.008 293.825 27.088C295.425 25.104 297.601 23.632 300.353 22.672C300.609 22.608 300.833 22.576 301.025 22.576C301.281 22.512 301.537 22.48 301.793 22.48C302.305 22.48 302.977 22.672 303.809 23.056C304.641 23.376 305.377 23.824 306.017 24.4C306.721 24.912 307.105 25.456 307.169 26.032C307.169 26.288 307.169 26.512 307.169 26.704C307.233 26.896 307.265 27.12 307.265 27.376C307.265 27.76 307.169 28.208 306.977 28.72L306.401 29.008C306.273 29.264 306.145 29.456 306.017 29.584L305.441 30.256C304.929 30.768 304.737 31.12 304.865 31.312L304.673 31.408C304.673 31.408 304.673 31.44 304.673 31.504C304.673 31.504 304.641 31.504 304.577 31.504L304.673 31.408L304.577 31.504V31.6L304.097 31.696C303.841 31.888 303.617 32.112 303.425 32.368C303.233 32.56 303.041 32.784 302.849 33.04C301.889 34.064 300.641 34.96 299.105 35.728C297.569 36.432 296.161 37.072 294.881 37.648C294.689 37.712 294.401 37.808 294.017 37.936C293.697 38 293.473 38.128 293.345 38.32C293.089 38.64 292.929 39.056 292.865 39.568C292.801 40.08 292.769 40.56 292.769 41.008C292.897 41.776 293.089 42.512 293.345 43.216C293.665 43.92 294.305 44.272 295.265 44.272H296.129C296.449 44.272 296.769 44.24 297.089 44.176C297.473 44.112 297.857 44.048 298.241 43.984L298.913 43.6L299.009 43.696C299.393 43.568 300.065 43.28 301.025 42.832C301.985 42.384 302.913 41.936 303.809 41.488C304.705 40.976 305.249 40.624 305.441 40.432L305.537 40.336L305.633 40.144L305.921 39.856C307.073 39.024 308.193 38.32 309.281 37.744C310.369 37.104 311.425 36.272 312.449 35.248L312.641 35.44H312.929C312.865 35.888 312.705 36.24 312.449 36.496C312.193 36.688 311.905 36.944 311.585 37.264L311.297 37.744C310.529 38.96 309.345 40.176 307.745 41.392C306.209 42.608 304.801 43.632 303.521 44.464C303.073 44.72 302.625 45.04 302.177 45.424C301.729 45.744 301.217 46 300.641 46.192C299.553 46.512 298.561 46.672 297.665 46.672ZM294.593 34.768C294.977 34.768 295.233 34.768 295.361 34.768C295.553 34.704 295.809 34.64 296.129 34.576C297.409 33.872 298.593 33.04 299.681 32.08C300.833 31.12 301.921 30.16 302.945 29.2C303.073 28.752 303.393 28.368 303.905 28.048L304.289 27.76C304.417 27.632 304.513 27.504 304.577 27.376C304.705 27.248 304.769 27.12 304.769 26.992C304.833 26.928 304.801 26.704 304.673 26.32L304.577 25.84V25.648C304.385 25.584 304.129 25.552 303.809 25.552C303.361 25.744 302.913 26.032 302.465 26.416C302.017 26.8 301.537 27.024 301.025 27.088C300.769 27.472 300.225 27.984 299.393 28.624C298.945 29.008 298.497 29.392 298.049 29.776C297.665 30.096 297.409 30.32 297.281 30.448C296.833 30.896 296.289 31.6 295.649 32.56C295.009 33.456 294.657 34.192 294.593 34.768ZM313.909 48.016C313.461 48.016 312.981 47.888 312.469 47.632C311.957 47.376 311.605 47.024 311.413 46.576L311.509 46.096C311.893 44.112 312.469 42.192 313.237 40.336C314.005 38.48 314.709 36.624 315.349 34.768C315.861 33.36 316.437 31.632 317.077 29.584C317.717 27.536 318.037 25.712 318.037 24.112C318.037 23.92 318.037 23.728 318.037 23.536C318.037 23.28 318.005 23.056 317.941 22.864C317.493 22.864 317.077 22.928 316.693 23.056C316.309 23.12 315.893 23.152 315.445 23.152H315.349C315.029 23.152 314.869 22.96 314.869 22.576C314.869 22.384 314.997 22.16 315.253 21.904C315.509 21.648 315.893 21.52 316.405 21.52C316.597 21.584 317.141 21.616 318.037 21.616C318.549 21.616 319.253 21.648 320.149 21.712C321.045 21.712 321.877 21.808 322.645 22C323.477 22.192 323.957 22.608 324.085 23.248C324.149 23.632 323.957 24.368 323.509 25.456C323.125 26.48 322.677 27.6 322.165 28.816C321.589 30.032 321.045 31.216 320.533 32.368C320.341 32.88 320.149 33.392 319.957 33.904C319.765 34.352 319.669 34.736 319.669 35.056V35.152L319.861 34.864C320.245 34.288 320.629 33.744 321.013 33.232C321.461 32.72 321.813 32.24 322.069 31.792C322.389 31.408 322.869 30.832 323.509 30.064C324.213 29.232 324.917 28.368 325.621 27.472C326.389 26.576 327.125 25.68 327.829 24.784C328.597 23.888 329.269 23.216 329.845 22.768C329.973 22.64 330.101 22.48 330.229 22.288C330.421 22.096 330.613 21.968 330.805 21.904C330.997 21.84 331.253 21.808 331.573 21.808C331.957 21.744 332.501 21.712 333.205 21.712C333.397 21.712 333.589 21.744 333.781 21.808C333.973 21.808 334.133 21.808 334.261 21.808C334.517 21.808 335.061 22 335.893 22.384C336.725 22.704 337.557 23.088 338.389 23.536C339.221 23.984 339.637 24.368 339.637 24.688C339.701 25.328 339.477 25.808 338.965 26.128C338.517 26.384 338.133 26.704 337.813 27.088C337.365 27.664 336.917 28.304 336.469 29.008C336.085 29.648 335.765 30.32 335.509 31.024L335.317 31.6C335.061 31.856 334.837 31.984 334.645 31.984C334.261 31.984 334.133 31.76 334.261 31.312C334.261 30.672 334.325 30.096 334.453 29.584C334.581 29.008 334.677 28.496 334.741 28.048C334.869 27.536 334.933 27.056 334.933 26.608C334.997 26.096 334.997 25.552 334.933 24.976C334.933 24.784 334.869 24.688 334.741 24.688C334.165 24.688 333.621 24.944 333.109 25.456C332.597 25.968 332.181 26.416 331.861 26.8L331.285 27.184C330.965 27.632 330.421 28.144 329.653 28.72L327.829 30.064C327.381 30.384 326.741 31.024 325.909 31.984C325.077 32.88 324.437 33.584 323.989 34.096C323.989 34.16 323.765 34.192 323.317 34.192H323.221L323.125 34.288V34.48C323.253 34.672 323.189 34.896 322.933 35.152C322.549 35.664 321.877 36.528 320.917 37.744C319.957 38.96 319.029 40.176 318.133 41.392C317.237 42.544 316.725 43.376 316.597 43.888C316.341 44.592 316.117 45.232 315.925 45.808C315.797 46.384 315.765 47.088 315.829 47.92C315.381 47.856 315.061 47.824 314.869 47.824C314.741 47.888 314.645 47.92 314.581 47.92C314.389 47.984 314.165 48.016 313.909 48.016Z" fill="#FF211C"/>
</svg>
