<svg fill="none" xmlns="http://www.w3.org/2000/svg" viewBox="0 0 116 39" class="clients-icon lazyloaded"><path fill-rule="evenodd" clip-rule="evenodd" d="M60.88 22.306h-4.7a.111.111 0 0 1-.087-.043.107.107 0 0 1-.018-.094l2.35-8.041a.108.108 0 0 1 .105-.081.11.11 0 0 1 .106.081l2.35 8.04a.106.106 0 0 1-.019.095.108.108 0 0 1-.086.043Zm2.188 6.964h3.054l-4.656-15.937a3.041 3.041 0 0 0-1.105-1.568 3.08 3.08 0 0 0-3.66 0c-.529.391-.917.941-1.106 1.568l-4.657 15.939h3.063l1.345-4.615a.108.108 0 0 1 .106-.078h6.153a.11.11 0 0 1 .106.078l1.357 4.613Zm17.21-9.153h1.795a.11.11 0 0 1 .11.109v6.287c.006.798.33 1.562.902 2.124a3.052 3.052 0 0 0 2.151.872 6.33 6.33 0 0 0 1.796-.257v-2.066c-.338.029-.718.049-1 .049a.902.902 0 0 1-.635-.261.888.888 0 0 1-.263-.63v-6.12a.11.11 0 0 1 .11-.109h1.795v-2.27h-1.796a.11.11 0 0 1-.11-.11v-3.773h-2.96v3.774a.108.108 0 0 1-.11.108h-1.796l.01 2.273Zm16.977 9.153h2.936v-7.89a3.785 3.785 0 0 0-1.138-2.674 3.843 3.843 0 0 0-2.707-1.095 6.462 6.462 0 0 0-3.412 1.05.113.113 0 0 1-.114 0 .108.108 0 0 1-.057-.095v-7.169h-2.95V29.27h2.943v-8.543a.106.106 0 0 1 .059-.097c.553-.28 1.645-.75 2.739-.75a1.697 1.697 0 0 1 1.562 1.02c.085.2.129.415.13.632v7.731l.009.007ZM67.769 17.844v7.891a3.784 3.784 0 0 0 1.136 2.677 3.842 3.842 0 0 0 2.709 1.097 6.455 6.455 0 0 0 3.76-1.287.112.112 0 0 1 .146.01.108.108 0 0 1 .027.044l.31.996h2.297V17.844h-2.95v8.546a.108.108 0 0 1-.06.096c-.553.28-1.645.75-2.738.75a1.691 1.691 0 0 1-1.192-.483 1.666 1.666 0 0 1-.5-1.176v-7.733h-2.945Zm41.027 9.392c-.898 0-1.617-.502-2.186-1.536-.684-1.248-1.062-3.153-1.062-5.364 0-2.21.378-4.115 1.062-5.363.566-1.034 1.28-1.537 2.186-1.537.905 0 1.616.503 2.185 1.537.684 1.248 1.062 3.153 1.062 5.363 0 2.21-.378 4.116-1.062 5.364-.566 1.032-1.28 1.536-2.185 1.536Zm0-16.074c-1.893 0-3.495.875-4.63 2.531-1.136 1.656-1.726 3.943-1.726 6.643 0 2.7.596 4.991 1.726 6.644 1.129 1.652 2.737 2.53 4.63 2.53 1.892 0 3.494-.875 4.63-2.53 1.135-1.656 1.725-3.947 1.725-6.646 0-2.698-.596-4.99-1.725-6.643-1.13-1.652-2.738-2.53-4.63-2.53Z" fill="#80808E"></path><path d="M34.45 11.999 30.54.07H17.9L21.807 12h12.644ZM17.902.07H5.265L1.36 12h12.636L17.901.07ZM1.361 12a17.14 17.14 0 0 0-.001 10.669 17.27 17.27 0 0 0 6.318 8.631l3.905-11.928L1.36 11.999Zm33.083 0-10.23 7.372 3.904 11.928a17.27 17.27 0 0 0 6.327-8.629A17.14 17.14 0 0 0 34.45 12h-.007Zm-26.766 19.3 10.225 7.373 10.222-7.373-10.224-7.372-10.223 7.372Z" fill="#80808E"></path></svg>