<svg fill="none" xmlns="http://www.w3.org/2000/svg" viewBox="0 0 150 36" class="clients-icon lazyloaded"><path d="M51.14 9.104c2.015 0 3.61.723 4.734 2.125l-1.406.95c-.844-1.086-1.969-1.674-3.375-1.674-1.125 0-2.063.271-2.766.86-.703.587-1.078 1.356-1.125 2.305 0 .86.281 1.538.797 2.08.563.543 1.5.995 2.813 1.357 1.78.497 2.953.95 3.515 1.356.61.407 1.032.86 1.36 1.447.28.588.468 1.266.468 2.125 0 1.357-.515 2.487-1.5 3.346-.984.86-2.297 1.312-3.89 1.357-2.485 0-4.36-.86-5.625-2.532l1.547-.995c.843 1.402 2.203 2.08 3.984 2.125 1.172 0 2.11-.316 2.813-.95.703-.632 1.078-1.401 1.078-2.35 0-.543-.094-.995-.328-1.357-.188-.362-.516-.678-.938-.904-.422-.272-.938-.498-1.594-.724-.656-.226-1.406-.452-2.25-.723-1.312-.407-2.297-.995-2.906-1.719-.61-.723-.938-1.673-.938-2.848 0-1.357.516-2.442 1.594-3.301C48.28 9.6 49.5 9.104 51.14 9.104Zm21.375.452v1.401h-9v5.969h8.437v1.402h-8.437v6.51h9.375v1.402H61.874V9.556h10.64Zm8.11 0 10.593 14.65h.047V9.556h1.64v16.73h-2.062L80.25 11.636h-.093v14.65h-1.641V9.556h2.11Zm29.718 0v1.401h-9v5.969h8.438v1.402h-8.438v6.51h9.375v1.402H99.703V9.556h10.64Zm13.829-.452c2.578 0 4.547.859 6 2.622l-1.313 1.085c-.468-.723-1.125-1.266-1.968-1.673-.797-.407-1.735-.588-2.719-.588-2.157 0-3.938.679-5.297 2.08-1.36 1.357-2.063 3.165-2.063 5.336 0 2.17.703 3.934 2.063 5.29 1.359 1.357 3.14 2.08 5.297 2.08.937 0 1.875-.226 2.859-.678.985-.452 1.735-1.085 2.297-1.944l1.313.95c-1.547 2.034-3.704 3.074-6.469 3.074-2.672 0-4.828-.86-6.469-2.487-1.641-1.673-2.484-3.753-2.531-6.285 0-2.577.843-4.657 2.531-6.285 1.687-1.628 3.844-2.532 6.469-2.577Zm13.547 11.304h7.969l-3.938-9.18-4.031 9.18Zm4.969-10.852L150 26.286h-1.828l-1.875-4.431h-9.188l-1.968 4.43h-1.688l7.594-16.73h1.641Z" fill="#80808E"></path><path fill-rule="evenodd" clip-rule="evenodd" d="M18.374 14.529c-.188 0-.375-.181-.422-.407L17.155 4.4c-.235-2.532.281-4.205 1.219-4.205.984 0 1.453 1.673 1.218 4.205l-.796 9.722c-.047.271-.235.407-.422.407ZM18.374 21.313c.188 0 .375.18.422.406l.797 9.722c.234 2.532-.282 4.205-1.219 4.205-.984 0-1.453-1.673-1.219-4.205l.797-9.722c0-.27.188-.407.422-.407ZM21.843 17.921c0-.18.187-.362.422-.407l10.078-.768c2.625-.226 4.36.27 4.36 1.175 0 .95-1.735 1.402-4.36 1.175l-10.078-.768c-.235-.045-.422-.226-.422-.407ZM14.859 17.92c0 .181-.188.362-.422.407l-10.079.769C1.733 19.322 0 18.825 0 17.92c0-.95 1.734-1.401 4.36-1.175l10.078.768c.234.046.422.226.422.407ZM22.311 13.174c-.14-.136-.187-.362-.093-.498l4.593-5.561c1.172-1.447 2.438-1.99 3.094-1.312.703.679.14 1.854-1.36 2.985l-5.765 4.43c-.094.137-.328.091-.469-.044ZM13.64 21.537c.141.136.188.362.094.498L9.14 27.596c-1.172 1.447-2.437 1.99-3.093 1.311-.704-.678-.141-1.853 1.359-2.984l5.766-4.43c.093-.137.328-.091.468.044ZM22.311 21.538c.141-.136.375-.181.516-.09l5.766 4.43c1.5 1.131 2.062 2.352 1.36 2.985-.704.678-1.923.136-3.095-1.311l-4.593-5.562c-.141-.09-.094-.316.046-.452ZM13.64 13.173c-.14.136-.375.181-.516.09L7.36 8.834c-1.5-1.13-2.063-2.352-1.36-2.985.703-.678 1.922-.135 3.094 1.312l4.594 5.561c.14.09.094.317-.047.452Z" fill="#80808E"></path></svg>