<svg fill="none" xmlns="http://www.w3.org/2000/svg" viewBox="0 0 109 33" class="clients-icon lazyloaded"><path d="M21.698 21.918c-2.927 0-5.31 2.36-5.31 5.257s2.383 5.258 5.31 5.258c2.928 0 5.31-2.361 5.31-5.258 0-2.896-2.38-5.257-5.31-5.257ZM23.212 12.126c1.992-2.696 2.881-5.705 2.881-9.75v-.65A1.062 1.062 0 0 0 25.031.664h-4.95a1.062 1.062 0 0 0-1.062 1.062v.645c0 2.58-.41 4.093-1.52 5.585-1.177 1.58-3.216 3.208-6.435 5.702-3.337 2.584-5.972 4.626-7.818 7.125-1.992 2.696-2.88 5.705-2.88 9.75v.645a1.062 1.062 0 0 0 1.062 1.063h4.949a1.062 1.062 0 0 0 1.062-1.063v-.644c0-2.58.41-4.093 1.52-5.585 1.177-1.58 3.217-3.209 6.436-5.703 3.337-2.58 5.971-4.62 7.817-7.12ZM6.781 11.517l-4.915 3.914a.924.924 0 0 1-1.5-.718V1.725A1.062 1.062 0 0 1 1.428.665h4.949a1.061 1.061 0 0 1 1.062 1.06v8.427a1.746 1.746 0 0 1-.658 1.365ZM38.769 32.246v-12.27h2.168v4.733l5.258-4.728h2.56l-5.863 5.22 6.38 7.05h-2.534l-5.8-6.482v6.482l-2.17-.005ZM56.282 32.245v-12.27h1.979l.074 1.602c.934-1.26 2.313-1.887 4.136-1.88 2.035 0 3.403.724 4.105 2.17.395.807.593 2.073.593 3.798v6.582H65v-6.38c0-1.643-.225-2.797-.674-3.462-.45-.665-1.216-1-2.3-1.003-1.43 0-2.434.568-3.014 1.703-.379.706-.568 1.866-.566 3.48v5.662l-2.164-.002ZM81.247 26.67h-9.872c.033 1.33.447 2.354 1.242 3.071.794.718 1.898 1.078 3.31 1.08 1.528 0 2.877-.324 4.046-.972l.669 1.564c-1.43.738-3.01 1.113-4.742 1.121-2.101 0-3.738-.56-4.91-1.683-1.172-1.122-1.758-2.696-1.759-4.721 0-1.985.547-3.549 1.642-4.692 1.095-1.144 2.582-1.715 4.463-1.715 1.84 0 3.285.542 4.336 1.627 1.05 1.084 1.577 2.572 1.577 4.463l-.002.858Zm-9.822-1.654h7.703c-.15-2.395-1.399-3.593-3.745-3.593-1.168 0-2.098.311-2.792.933-.694.622-1.082 1.509-1.166 2.66ZM84.408 21.73h-1.891v-1.753h1.941v-4.073h2.094v4.073h3.479v1.752h-3.48v5.978c0 1.152.141 1.925.423 2.32.28.396.828.594 1.641.593.395-.01.787-.08 1.161-.205l.391 1.752a9.474 9.474 0 0 1-2.093.252c-1.563 0-2.605-.444-3.126-1.334-.363-.64-.544-1.821-.543-3.544l.003-5.812ZM97.763 32.246v-12.27h2.169v4.733l5.257-4.728h2.559l-5.862 5.22 6.38 7.05h-2.535l-5.8-6.482v6.482l-2.168-.005ZM51.24 32.246v-12.27h2.17v12.27h-2.17ZM52.319 17.548a1.444 1.444 0 1 0 0-2.888 1.444 1.444 0 0 0 0 2.888ZM92.788 32.246v-12.27h2.169v12.27h-2.168ZM93.864 17.548a1.444 1.444 0 1 0 0-2.888 1.444 1.444 0 0 0 0 2.888Z" fill="#80808E"></path></svg>