<svg fill="none" xmlns="http://www.w3.org/2000/svg" viewBox="0 0 119 25" class="clients-icon lazyloaded"><path d="M68.568 3.07h3.019c.344 0 .72.015 1.128.043.415.029.827.1 1.235.215.416.108.813.272 1.193.494.386.222.727.527 1.02.914.3.386.54.873.72 1.46.179.581.268 1.287.268 2.117v.462c0 1.397-.2 2.536-.601 3.417-.401.874-.992 1.504-1.773 1.891l2.944 7.338h-2.944l-2.438-6.865h-1.042v6.865h-2.729V3.071Zm3.148 9.477c.487 0 .899-.054 1.235-.162.337-.107.609-.286.817-.537.207-.258.358-.594.45-1.01.094-.422.14-.942.14-1.558V7.83c0-.473-.043-.881-.129-1.225a1.885 1.885 0 0 0-.44-.849c-.2-.222-.469-.386-.806-.494-.336-.107-.759-.161-1.267-.161h-.42v7.446h.42ZM81.956 3.07h3.2l3.395 18.351h-2.814l-.505-3.287H81.88l-.483 3.287h-2.825l3.384-18.35Zm2.954 12.968-1.29-9.143h-.117l-1.3 9.143h2.707ZM89.08 3.07h2.847l2.02 14.537h.118l2.03-14.537h2.836l-3.34 18.351h-3.18l-3.33-18.35ZM100.824 3.07h6.8v2.192h-4.018v5.49h3.105v2.192h-3.105v6.285h4.125v2.192h-6.907V3.071ZM109.85 3.07h2.256l4.447 12.28h.065c-.022-.286-.05-.604-.086-.955a32.77 32.77 0 0 1-.097-1.193c-.029-.451-.054-.96-.075-1.526a49.837 49.837 0 0 1-.032-1.912V3.07h2.492v18.351h-2.277l-4.426-11.958h-.086c.021.322.05.673.086 1.053.036.372.068.813.096 1.322.029.508.054 1.103.076 1.783.021.673.032 1.476.032 2.407v5.393h-2.471V3.071ZM54.244 10.464C46.459 6.031 34.473 1.38 21.98.334 6.663-.929 0 2.752 0 2.752S22.94 1.49 39.017 11.71c.018.018.036.018.036.018a4.333 4.333 0 0 1-.253.678c-1.43 3.096-6.138 3.92-10.501 1.85-3.169-1.502-5.305-4.14-5.667-6.65a13.375 13.375 0 0 0-.236 2.565c0 7.675 6.156 13.904 13.742 13.904 4.672 0 8.818-2.363 11.298-5.972.09-.128 2.046-2.803 3.096-3.627 1.087-.843 2.97-1.887 4.744-2.107 1.792-.201-.218-1.447-1.032-1.905Z" fill="#80808E"></path></svg>