<svg fill="none" xmlns="http://www.w3.org/2000/svg" viewBox="0 0 118 33" class="clients-icon lazyloaded"><path fill-rule="evenodd" clip-rule="evenodd" d="M61.222 6.559v4.09c0 1.938 1.237 3.014 2.923 2.906 1.8 0 2.924-1.076 2.924-2.906V8.173h-2.924V9.25h1.912v1.508c0 1.184-.674 1.83-1.8 1.83-1.124 0-1.798-.646-1.798-1.938v-4.09c0-1.292.674-1.938 1.686-1.938 1.013 0 1.688.538 1.688 1.83h1.236c-.112-1.83-1.124-2.906-2.924-2.906-1.799 0-2.923 1.076-2.923 3.014Zm-5.29 6.89h1.238V3.654h-1.238v9.795ZM51.55 3.655v9.795h-1.125V8.93c0-1.076 0-2.045.113-3.014h-.113c-.12.4-.302.832-.498 1.293-.173.406-.355.837-.514 1.29L48.29 11.19h-1.125L46.04 8.5a58.24 58.24 0 0 0-1.012-2.476h-.113c.113.969.225 1.938.225 2.906v4.521h-1.237V3.655h1.237l1.8 4.09c.112.27.253.647.394 1.025.14.376.28.752.393 1.02h.112c.111-.267.25-.64.39-1.015.142-.38.284-.759.397-1.03l1.8-4.09h1.124Zm25.078-.001v9.795H75.39V9.035h-3.26v4.414h-1.238V3.654h1.237V7.96h3.261V3.654h1.238Zm6.858 1.076h2.136V3.654H80V4.73h2.25v8.719h1.237V4.73Zm7.311 5.382-2.474-6.458h1.237l1.35 3.552c.112.215.197.484.28.753.085.27.17.539.282.754.098-.234.174-.467.248-.692.096-.293.187-.571.315-.815l1.35-3.445h1.123l-2.586 6.459v3.336h-1.237v-3.444h.112Zm-44.31 14.32c1.125 0 1.912.537 1.912 1.722 0 1.076-.562 1.615-1.799 1.722H45.14v-3.445h1.348Zm-1.348-1.08v-3.121h1.348c1.013 0 1.575.43 1.575 1.507 0 1.076-.562 1.615-1.575 1.615H45.14Zm1.576 5.596c1.8 0 2.924-1.076 2.924-2.798 0-1.184-.562-2.045-1.574-2.26.675-.323 1.125-1.077 1.125-2.154 0-1.614-1.012-2.583-2.7-2.583h-2.586v9.795h2.811Zm6.52-3.01v-6.89h1.237v6.89c0 1.398.675 2.044 1.687 2.044s1.687-.646 1.687-2.045V19.05h1.236v6.888c0 2.045-1.124 3.121-2.923 3.121-1.687 0-2.924-1.183-2.924-3.12Zm11.248 2.905h-1.238V19.05h1.238v9.794Zm9.108-1.076v1.076h-4.836V19.05h1.237v8.718h3.599Zm7.76-1.937c0 1.292-.675 1.938-1.913 1.938h-1.237v-7.643h1.237c1.238 0 1.912.646 1.912 1.938v3.767Zm-1.912-6.781h-2.474v9.902h2.474c2.024 0 3.15-1.184 3.15-3.013v-3.875c0-1.938-1.238-3.014-3.15-3.014Zm7.199 9.794h1.124V19.05h-1.124v9.794Zm11.354 0V19.05h-1.125v4.52c0 .862 0 2.26.113 3.122l-.01-.022c-.228-.546-.67-1.602-1.003-2.238l-2.586-5.382h-1.236v9.794h1.236v-4.628c0-.86 0-2.152-.113-3.014l.028.065c.232.556.66 1.58.985 2.303l2.473 5.274h1.238Zm4.164-2.799v-4.09c0-1.938 1.125-3.013 2.924-3.013s2.812 1.075 2.924 2.905h-1.236c-.113-1.292-.675-1.83-1.688-1.83-1.012 0-1.686.647-1.686 1.937v4.091c0 1.291.674 1.938 1.799 1.938 1.124 0 1.799-.646 1.799-1.83v-1.507h-1.799v-1.077h2.811v2.476c0 1.83-1.125 2.906-2.924 2.906-1.799.108-2.924-.968-2.924-2.906Zm10.346.215h-1.238c.113 1.722 1.238 2.798 2.812 2.798 1.911 0 2.924-1.291 2.924-2.69 0-1.653-1.319-2.4-2.51-3.074-.982-.555-1.877-1.062-1.877-1.985 0-.861.563-1.4 1.575-1.4.9 0 1.575.539 1.575 1.615H117c-.113-1.615-1.124-2.69-2.812-2.69-1.575 0-2.699 1.075-2.699 2.475 0 1.562 1.267 2.284 2.439 2.953 1.009.575 1.948 1.11 1.948 2.106 0 .968-.564 1.614-1.688 1.614-1.012 0-1.686-.646-1.686-1.722Z" fill="#80808E"></path><path d="M64.145 13.555v-.41h-.013l-.013.002.026.408Zm2.924-5.382h.41v-.41h-.41v.41Zm-2.924 0v-.41h-.41v.41h.41Zm0 1.076h-.41v.41h.41v-.41Zm1.912 0h.41v-.41h-.41v.41Zm-.225-2.798h-.41v.41h.41v-.41Zm1.237 0v.41h.435l-.026-.435-.409.025Zm-9.9 6.998v.41h.41v-.41h-.41Zm-1.237 0h-.41v.41h.41v-.41Zm1.238-9.795h.41v-.41h-.41v.41Zm-1.238 0v-.41h-.41v.41h.41ZM51.55 13.45v.41h.41v-.41h-.41Zm0-9.795h.41v-.41h-.41v.41Zm-1.125 9.795h-.41v.41h.41v-.41Zm.113-7.535.407.048.053-.457h-.46v.41Zm-.113 0v-.41h-.305l-.087.294.392.116Zm-.498 1.293-.377-.16-.003.008.38.152Zm0 0-.38-.152-.005.01-.004.012.389.13Zm0 0-.389-.13-.002.009-.003.008.394.113Zm0 0 .377.16.01-.023.007-.025-.394-.112Zm-.514 1.29.378.159.005-.012.004-.012-.386-.134ZM48.29 11.19v.41h.273l.105-.252-.378-.158Zm-1.125 0-.378.158.106.252h.272v-.41ZM46.04 8.5l-.382.149.004.009.378-.158Zm-1.012-2.476.373-.167-.108-.242h-.265v.41Zm-.113 0v-.41h-.46l.053.457.407-.047Zm.225 7.427v.41h.41v-.41h-.41Zm-1.237 0h-.41v.41h.41v-.41Zm0-9.795v-.41h-.41v.41h.41Zm1.237 0 .375-.165-.108-.245h-.267v.41Zm1.8 4.09.378-.158-.004-.007-.374.165Zm.394 1.025.385-.138-.002-.006-.383.144Zm0 0-.386.137v.003l.386-.14Zm0 0-.385.14.003.008.382-.148Zm0 0-.382.148.001.004.38-.152Zm0 0 .381-.149v-.004l-.381.153Zm0 0-.382.148.002.004.38-.152Zm0 0 .382-.149-.002-.004-.38.153Zm0 0 .384-.144-.003-.005-.381.149Zm.393 1.02-.378.158.105.252h.273v-.41Zm.112 0v.41h.273l.105-.252-.378-.158Zm.39-1.015-.38-.152-.003.009.383.143Zm0 0-.376-.161-.004.01.38.151Zm0 0 .377.162.004-.01.003-.009-.384-.143Zm.397-1.03-.375-.165-.003.007.378.158Zm1.8-4.09v-.41h-.268l-.108.245.375.165Zm26.202 9.794v.41h.41v-.41h-.41Zm0-9.795h.41v-.41h-.41v.41Zm-1.238 9.795h-.41v.41h.41v-.41Zm0-4.414h.41v-.41h-.41v.41Zm-3.26 0v-.41h-.41v.41h.41Zm0 4.414v.41h.409v-.41h-.41Zm-1.238 0h-.41v.41h.41v-.41Zm0-9.795v-.41h-.41v.41h.41Zm1.237 0h.41v-.41h-.41v.41Zm0 4.306h-.41v.41h.41v-.41Zm3.261 0v.41h.41v-.41h-.41Zm0-4.306v-.41h-.41v.41h.41ZM85.622 4.73v.41h.41v-.41h-.41Zm-2.136 0v-.41h-.41v.41h.41Zm2.136-1.076h.41v-.41h-.41v.41Zm-5.623 0v-.41h-.41v.41H80Zm0 1.076h-.41v.41H80v-.41Zm2.25 0h.41v-.41h-.41v.41Zm0 8.719h-.41v.41h.41v-.41Zm1.237 0v.41h.41v-.41h-.41Zm4.837-9.795v-.41h-.595l.213.556.382-.146Zm2.474 6.458v.41h.596l-.213-.556-.383.146ZM89.56 3.654l.383-.146-.1-.264h-.283v.41Zm1.35 3.552-.383.145.009.023.01.021.364-.19Zm.28.753.392-.122-.391.122Zm.282.754-.363.19.403.772.338-.804-.378-.158Zm.248-.692.39.128-.39-.128Zm.315-.815.363.19.01-.02.008-.02-.381-.15Zm1.35-3.445v-.41h-.28l-.102.261.381.15Zm1.123 0 .38.153.226-.562h-.606v.41Zm-2.586 6.459-.38-.152-.03.073v.079h.41Zm0 3.336v.41h.41v-.41h-.41Zm-1.237 0h-.41v.41h.41v-.41Zm0-3.444v-.41h-.41v.41h.41ZM46.6 27.876v.41h.018l.018-.002-.036-.408Zm-1.461 0h-.41v.41h.41v-.41Zm0-3.445v-.41h-.41v.41h.41Zm0-4.2v-.41h-.41v.41h.41Zm0 3.122h-.41v.41h.41v-.41Zm2.926.536-.177-.37-1.085.52 1.176.251.086-.4Zm-4.161-4.736v-.41h-.41v.41h.41Zm0 9.795h-.41v.41h.41v-.41Zm9.33-9.9v-.409h-.409v.41h.41Zm1.238 0h.41v-.409h-.41v.41Zm3.374 0v-.409h-.41v.41h.41Zm1.236 0h.41v-.409h-.41v.41Zm4.163 9.796h-.41v.41h.41v-.41Zm1.238 0v.41h.41v-.41h-.41Zm-1.238-9.795v-.41h-.41v.41h.41Zm1.238 0h.41v-.41h-.41v.41Zm9.108 9.794v.41H74v-.41h-.41Zm0-1.076H74v-.41h-.41v.41Zm-4.836 1.076h-.41v.41h.41v-.41Zm0-9.794v-.41h-.41v.41h.41Zm1.237 0h.41v-.41h-.41v.41Zm0 8.718h-.41v.41h.41v-.41Zm8.209 0h-.41v.41h.41v-.41Zm0-7.642v-.41h-.41v.41h.41Zm-1.236-1.076v-.41h-.41v.41h.41Zm0 9.902h-.41v.41h.41v-.41Zm10.797-.108v.41h.41v-.41h-.41Zm-1.124 0h-.41v.41h.41v-.41Zm1.124-9.794h.41v-.41h-.41v.41Zm-1.124 0v-.41h-.41v.41h.41Zm11.354 0h.41v-.41h-.41v.41Zm0 9.794v.41h.41v-.41h-.41Zm-1.125-9.794v-.41h-.41v.41h.41Zm.113 7.642-.378.158.784-.211-.406.053Zm-.01-.022-.383.144.003.007.003.007.378-.158Zm0 0 .384-.144-.005-.013-.378.157Zm0 0 .379-.158-.379.157Zm-1.003-2.238-.369.177.006.012.363-.19Zm-2.586-5.382.37-.178-.112-.232h-.258v.41Zm-1.236 0v-.41h-.41v.41h.41Zm0 9.794h-.41v.41h.41v-.41Zm1.236 0v.41h.41v-.41h-.41Zm-.113-7.642.378-.158-.784.211.406-.053Zm.028.065.377-.158-.377.158Zm.985 2.303-.374.168.003.006.371-.174Zm2.473 5.274-.37.174.11.236h.26v-.41Zm11.25-6.997v.41h.435l-.026-.435-.409.025Zm-1.236 0-.408.036.032.374h.376v-.41Zm.224 2.8h.41v-.41h-.41v.41Zm-1.799 0h-.41v.409h.41v-.41Zm0-1.078v-.41h-.41v.41h.41Zm2.811 0h.409v-.41h-.409v.41Zm-2.924 5.382v-.41h-.012l-.012.001.024.41Zm6.184-2.691v-.41h-.437l.029.437.408-.027Zm1.238 0h.409v-.41h-.409v.41Zm1.988-2.966-.202.356.202-.356Zm1.273-1.77h-.41v.41h.41v-.41Zm1.237 0v.41h.439l-.031-.439-.408.029Zm-3.072 2.738-.203.355.203-.355ZM61.631 10.649v-4.09h-.819v4.09h.82Zm2.489 2.498c-.75.047-1.362-.168-1.786-.574-.424-.405-.703-1.043-.703-1.924h-.819c0 1.057.34 1.926.956 2.516.616.59 1.466.86 2.404.8l-.052-.818Zm2.54-2.498c0 .83-.254 1.442-.665 1.847-.413.406-1.031.65-1.85.65v.819c.982 0 1.825-.295 2.424-.885.6-.59.91-1.431.91-2.431h-.82Zm0-2.476v2.476h.819V8.173h-.82Zm-2.514.41h2.923v-.82h-2.924v.82Zm.41.666V8.173h-.82V9.25h.82Zm1.501-.41h-1.912v.82h1.912v-.82Zm.41 1.918V9.248h-.82v1.508h.82Zm-2.21 2.24c.64 0 1.206-.186 1.612-.592.406-.406.598-.98.598-1.648h-.82c0 .515-.145.856-.357 1.07-.213.212-.547.35-1.032.35v.82Zm-2.208-2.348c0 .714.187 1.314.592 1.736.407.426.977.611 1.617.611v-.819c-.485 0-.814-.137-1.025-.358-.214-.223-.364-.592-.364-1.17h-.82Zm0-4.09v4.09h.82v-4.09h-.82Zm2.096-2.347c-.595 0-1.136.192-1.525.617-.384.42-.57 1.016-.57 1.73h.819c0-.578.15-.951.356-1.177.202-.22.504-.351.92-.351v-.82Zm2.097 2.24c0-.715-.187-1.292-.584-1.69-.396-.397-.937-.55-1.513-.55v.819c.438 0 .74.115.934.31.194.195.344.532.344 1.11h.82Zm.827-.41h-1.237v.82h1.237v-.82Zm-2.924-2.087c.816 0 1.405.241 1.804.645.403.408.66 1.029.711 1.876l.818-.05c-.06-.982-.365-1.814-.947-2.402-.585-.592-1.402-.889-2.386-.889v.82Zm-2.514 2.604c0-.89.257-1.53.669-1.946.412-.415 1.028-.658 1.846-.658v-.82c-.982 0-1.828.295-2.428.902-.6.607-.906 1.474-.906 2.522h.82Zm-4.461 6.48h-1.238v.82h1.238v-.82Zm-.41-9.385v9.795h.82V3.654h-.82Zm-.828.41h1.238v-.82h-1.238v.82Zm.41 9.385V3.654h-.82v9.795h.82Zm-4.383.001V3.655h-.819v9.795h.82Zm-1.534.41h1.125v-.82h-1.125v.82Zm-.41-4.931v4.521h.82V8.93h-.82Zm.116-3.061c-.116.996-.115 1.99-.115 3.06h.819c0-1.08 0-2.024.11-2.965l-.814-.095Zm.294.457h.113v-.82h-.113v.82Zm-.121 1.043c.193-.456.386-.909.514-1.336l-.785-.233c-.112.374-.285.782-.483 1.249l.754.32Zm.003-.008-.76-.304.76.304Zm.009-.023-.778-.259.778.26Zm.005-.017-.788-.225.788.225Zm-.52 1.313c.152-.439.33-.857.503-1.265l-.754-.32c-.172.405-.36.847-.523 1.316l.773.27Zm-1.134 2.714 1.124-2.69-.755-.316-1.125 2.69.756.316Zm-1.503.252h1.125v-.82h-1.125v.82Zm-1.502-2.942 1.124 2.69.756-.316-1.124-2.69-.756.316ZM44.654 6.19c.332.742.666 1.594 1.004 2.457l.763-.299c-.336-.859-.678-1.73-1.02-2.493l-.747.335Zm.26.242h.114v-.82h-.113v.82Zm.636 2.496c0-.996-.116-1.988-.228-2.953l-.814.094c.113.973.222 1.919.222 2.859h.82Zm0 4.521V8.93h-.82v4.521h.82Zm-1.647.41h1.237v-.82h-1.237v.82Zm-.41-10.205v9.795h.82V3.655h-.82Zm1.647-.41h-1.237v.82h1.237v-.82Zm2.174 4.335-1.8-4.09-.75.33 1.8 4.09.75-.33Zm.404 1.046c-.14-.374-.284-.76-.4-1.039l-.756.316c.108.26.246.63.388 1.01l.767-.287Zm.001.006-.771.275.771-.275Zm0-.002-.77.28.77-.28Zm-.004-.009-.763.297.764-.297Zm0-.004-.762.305.761-.305Zm0 .004-.763.297.764-.297Zm0-.004-.762.305.761-.305Zm0 .004-.763.297.764-.297Zm.39 1.012c-.109-.26-.246-.628-.387-1.007l-.768.287c.14.373.283.757.399 1.035l.756-.315Zm-.266-.252h-.112v.819h.112v-.82Zm.007-.749c-.141.377-.277.742-.385 1l.756.316c.115-.276.258-.658.396-1.03l-.767-.286Zm.003-.009.76.304-.76-.304Zm.004-.01.753.324-.753-.323Zm.395-1.026c-.117.28-.262.669-.402 1.045l.767.286c.143-.382.281-.753.39-1.015l-.755-.316ZM50.05 3.49l-1.799 4.09.75.33L50.8 3.82l-.75-.33Zm1.5-.245h-1.125v.82h1.125v-.82ZM77.037 13.45V3.654h-.819v9.795h.82Zm-1.647.41h1.238v-.82H75.39v.82Zm-.41-4.824v4.414h.82V9.035h-.82Zm-2.85.41h3.26v-.82h-3.26v.82Zm.409 4.004V9.035h-.82v4.414h.82Zm-1.647.41h1.237v-.82h-1.237v.82Zm-.41-10.205v9.795h.82V3.654h-.82Zm1.647-.41h-1.237v.82h1.237v-.82Zm.41 4.716V3.654h-.82V7.96h.82Zm2.851-.41h-3.26v.82h3.26v-.82Zm-.41-3.896V7.96h.82V3.654h-.82Zm1.648-.41H75.39v.82h1.238v-.82Zm8.994 1.077h-2.136v.819h2.136v-.82Zm-.41-.667V4.73h.82V3.654h-.82ZM80 4.064h5.623v-.82H80v.82Zm.41.666V3.654h-.82V4.73h.82Zm1.84-.41h-2.25v.82h2.25v-.82Zm.41 9.129V4.73h-.82v8.719h.82Zm.827-.41h-1.237v.82h1.237v-.82Zm-.41-8.309v8.719h.82V4.73h-.82Zm4.865-.93 2.474 6.459.765-.293-2.474-6.459-.765.293Zm1.619-.556h-1.237v.82h1.237v-.82Zm1.733 3.816-1.35-3.552-.766.291 1.35 3.552.766-.29Zm.289.777c-.081-.26-.176-.567-.309-.82l-.726.378c.092.177.166.408.253.687l.782-.245Zm.253.686c-.092-.176-.166-.407-.253-.686l-.782.245c.081.26.176.566.309.82l.726-.379Zm-.504-.63a8.627 8.627 0 0 1-.237.661l.756.317c.105-.25.186-.5.26-.722l-.78-.255Zm.341-.877c-.146.28-.248.592-.341.878l.778.255c.099-.301.18-.545.289-.753l-.726-.38Zm1.33-3.404-1.349 3.444.763.3 1.35-3.445-.763-.299Zm1.506-.26h-1.124v.819h1.124v-.82Zm-2.206 7.02 2.587-6.458-.76-.305-2.587 6.459.76.304Zm.03 3.184V10.22h-.82v3.336h.82Zm-1.647.41h1.237v-.82h-1.237v.82Zm-.41-3.854v3.444h.82v-3.444h-.82Zm.522-.41h-.112v.82h.112v-.82ZM48.81 26.155c0-.69-.233-1.245-.68-1.62-.436-.364-1.02-.512-1.642-.512v.819c.504 0 .876.12 1.115.321.228.19.388.497.388.992h.819Zm-2.173 2.13c.662-.057 1.22-.235 1.611-.61.401-.384.562-.91.562-1.52h-.82c0 .467-.12.747-.309.928-.199.191-.54.336-1.115.386l.07.816Zm-1.497.002H46.6v-.82H45.14v.82Zm-.41-3.855v3.445h.82v-3.445h-.82Zm1.758-.41H45.14v.82h1.348v-.82Zm-1.758-3.79v3.122h.82V20.23h-.82Zm1.758-.41H45.14v.82h1.348v-.82Zm1.985 1.917c0-.606-.16-1.114-.542-1.46-.375-.34-.888-.457-1.443-.457v.82c.459 0 .733.098.892.243.152.137.274.383.274.854h.819Zm-1.985 2.024c.576 0 1.09-.154 1.458-.525.368-.37.527-.893.527-1.5h-.82c0 .471-.122.755-.288.923-.166.168-.44.283-.877.283v.82Zm-1.348 0h1.348v-.82H45.14v.82Zm4.09 2.388c0 .77-.248 1.355-.66 1.749-.414.396-1.035.64-1.854.64v.819c.981 0 1.822-.295 2.42-.867.6-.575.914-1.388.914-2.341h-.82Zm-1.25-1.86c.406.087.708.297.915.598.21.307.336.733.336 1.262h.82c0-.655-.156-1.252-.48-1.725a2.248 2.248 0 0 0-1.42-.936l-.17.801Zm.801-2.554c0 .964-.396 1.546-.892 1.784l.354.739c.853-.409 1.357-1.333 1.357-2.523h-.819Zm-2.29-2.173c.767 0 1.33.219 1.7.572.367.352.59.882.59 1.601h.82c0-.894-.283-1.656-.844-2.192-.559-.535-1.345-.8-2.266-.8v.819Zm-2.586 0h2.586v-.82h-2.586v.82Zm.41 9.385v-9.795h-.82v9.795h.82Zm2.401-.41h-2.811v.82h2.811v-.82Zm6.11-9.49v6.89h.82v-6.89h-.82Zm1.647-.409h-1.237v.82h1.237v-.82Zm.41 7.298V19.05h-.82v6.888h.82Zm1.277 1.636c-.416 0-.714-.13-.915-.359-.208-.236-.362-.638-.362-1.277h-.82c0 .76.184 1.381.566 1.817.39.444.934.638 1.53.638v-.82Zm1.277-1.636c0 .64-.154 1.04-.362 1.277-.2.23-.5.359-.915.359v.819c.596 0 1.142-.194 1.53-.637.383-.437.566-1.058.566-1.818h-.819Zm0-6.888v6.888h.82V19.05h-.82Zm1.646-.41h-1.236v.82h1.236v-.82Zm.41 7.298V19.05h-.82v6.888h.82Zm-3.333 3.531c.981 0 1.83-.295 2.43-.919.6-.622.903-1.516.903-2.612h-.82c0 .95-.26 1.616-.672 2.043-.41.426-1.024.669-1.841.669v.819Zm-3.334-3.53c0 1.057.34 1.945.945 2.571.606.627 1.447.959 2.389.959v-.82c-.745 0-1.365-.259-1.8-.708-.435-.45-.714-1.122-.714-2.003h-.82Zm10.42 3.315h1.238v-.82h-1.238v.82Zm-.41-10.204v9.794h.82V19.05h-.82Zm1.648-.41h-1.238v.82h1.238v-.82Zm.41 10.204V19.05h-.82v9.794h.82Zm9.107 0v-1.076h-.819v1.076h.82Zm-5.245.41h4.836v-.82h-4.836v.82Zm-.41-10.204v9.794h.82V19.05h-.82Zm1.647-.41h-1.237v.82h1.237v-.82Zm.41 9.128V19.05h-.82v8.718h.82Zm3.189-.41h-3.599v.82h3.599v-.82Zm5.847.82c.686 0 1.285-.18 1.71-.604.425-.425.612-1.03.612-1.743h-.82c0 .578-.15.942-.371 1.163-.222.222-.58.365-1.13.365v.82Zm-1.237 0h1.237v-.819h-1.237v.82Zm-.41-8.052v7.643h.82v-7.643h-.82Zm1.647-.41h-1.237v.82h1.237v-.82Zm2.322 2.348c0-.714-.187-1.319-.612-1.743-.425-.425-1.023-.605-1.71-.605v.82c.551 0 .91.143 1.13.364.222.221.373.586.373 1.164h.819Zm0 3.767v-3.767h-.82v3.767h.82Zm-4.795-6.372h2.474v-.819h-2.474v.82Zm.41 9.493V19.05h-.82v9.902h.82Zm2.064-.41h-2.474v.82h2.474v-.82Zm2.74-2.603c0 .83-.254 1.469-.693 1.9-.44.432-1.115.704-2.047.704v.819c1.092 0 1.992-.32 2.62-.938.63-.618.939-1.486.939-2.485h-.82Zm0-3.875v3.875h.819v-3.875h-.82Zm-2.74-2.605c.881 0 1.559.248 2.012.67.45.42.728 1.056.728 1.935h.819c0-1.06-.34-1.93-.988-2.534-.643-.6-1.54-.89-2.571-.89v.82Zm8.323 8.976h-1.124v.82h1.124v-.82Zm-.41-9.385v9.794h.82V19.05h-.82Zm-.714.41h1.124v-.82h-1.124v.82Zm.41 9.384V19.05h-.82v9.794h.82Zm10.534-9.794v9.794h.82V19.05h-.82Zm-.715.41h1.125v-.82h-1.125v.82Zm.41 4.11v-4.52h-.82v4.52h.82Zm.11 3.069c-.11-.829-.11-2.196-.11-3.069h-.82c0 .85 0 2.281.117 3.175l.812-.106Zm-.794.19.01.021.755-.316-.01-.022-.755.316Zm-.006-.015.767-.288-.767.288Zm.005.012.757-.313-.757.313Zm-.988-2.204c.323.617.758 1.654.989 2.206l.755-.317c-.226-.54-.675-1.614-1.017-2.269l-.727.38Zm-2.592-5.395 2.586 5.382.739-.355-2.587-5.382-.738.355Zm-.867.232h1.236v-.819h-1.236v.82Zm.41 9.386v-9.795h-.82v9.794h.82Zm.826-.41h-1.236v.82h1.236v-.82Zm-.41-4.219v4.628h.82v-4.628h-.82Zm-.109-2.96c.109.829.11 2.09.11 2.96h.819c0-.85 0-2.173-.116-3.067l-.813.106Zm.811-.147-.027-.065-.755.317.027.064.755-.316Zm.982 2.294c-.322-.719-.748-1.737-.982-2.294l-.755.316c.232.555.662 1.583.99 2.313l.747-.335Zm2.47 5.268-2.473-5.275-.742.348 2.474 5.274.741-.347Zm.867-.236h-1.238v.82h1.238v-.82Zm3.755-6.48v4.09h.819v-4.09h-.819Zm3.333-3.423c-.981 0-1.827.295-2.427.901-.601.607-.906 1.474-.906 2.521h.819c0-.89.257-1.528.669-1.944.411-.416 1.027-.659 1.845-.659v-.819Zm3.333 3.29c-.06-.982-.366-1.814-.947-2.402-.585-.592-1.402-.888-2.386-.888v.82c.816 0 1.405.24 1.803.644.403.408.66 1.029.712 1.876l.818-.05Zm-1.645.435h1.236v-.82h-1.236v.82Zm-1.688-1.83c.433 0 .704.113.884.303.191.2.343.552.396 1.153l.816-.071c-.061-.691-.246-1.255-.618-1.646-.381-.402-.898-.558-1.478-.558v.819Zm-1.277 1.527c0-.577.151-.95.357-1.176.202-.22.504-.351.92-.351v-.82c-.595 0-1.136.193-1.525.618-.384.42-.571 1.016-.571 1.73h.819Zm0 4.091v-4.09h-.819v4.09h.819Zm1.39 1.528c-.485 0-.814-.137-1.025-.358-.214-.223-.365-.592-.365-1.17h-.819c0 .714.187 1.314.592 1.736.407.426.977.611 1.617.611v-.819Zm1.39-1.42c0 .515-.146.856-.359 1.07-.212.212-.546.35-1.031.35v.82c.64 0 1.205-.186 1.611-.592.406-.406.598-.98.598-1.648h-.819Zm0-1.507v1.507h.819v-1.507h-.819Zm-1.39.41h1.799v-.82h-1.799v.82Zm-.41-1.487v1.077h.82v-1.077h-.82Zm3.221-.41h-2.811v.82h2.811v-.82Zm.409 2.886v-2.476h-.819v2.476h.819Zm-3.333 3.316c.981 0 1.825-.295 2.424-.885.6-.59.909-1.431.909-2.43h-.819c0 .829-.253 1.441-.665 1.846-.412.406-1.031.65-1.849.65v.819Zm-3.333-3.316c0 1.046.304 1.917.909 2.512.608.597 1.462.862 2.449.803l-.049-.818c-.813.049-1.42-.17-1.825-.569-.407-.4-.665-1.036-.665-1.928h-.819Zm9.517.625h1.238v-.82h-1.238v.82Zm2.812 1.978c-.69 0-1.259-.234-1.667-.635-.409-.403-.685-1.003-.736-1.78l-.817.054c.061.944.404 1.744.979 2.31.576.566 1.357.87 2.241.87v-.819Zm2.514-2.28a2.23 2.23 0 0 1-.627 1.581c-.406.412-1.028.7-1.887.7v.819c1.052 0 1.892-.358 2.47-.942a3.05 3.05 0 0 0 .863-2.158h-.819Zm-2.302-2.718c1.235.7 2.302 1.338 2.302 2.718h.819c0-1.927-1.57-2.781-2.718-3.43l-.403.712Zm-2.084-2.341c0 .616.307 1.076.706 1.435.386.347.898.635 1.378.906l.403-.713c-.502-.284-.927-.527-1.234-.802-.293-.265-.434-.52-.434-.826h-.819Zm1.984-1.81c-.575 0-1.079.154-1.442.483-.368.335-.542.803-.542 1.326h.819c0-.337.108-.568.273-.719.171-.155.456-.27.892-.27v-.82Zm1.984 2.025c0-.627-.198-1.146-.576-1.507-.374-.358-.878-.518-1.408-.518v.82c.37 0 .653.11.842.29.185.177.323.465.323.915h.819Zm.828-.41h-1.237v.82H117v-.82Zm-2.812-1.87c.753 0 1.319.237 1.709.62.393.388.643.959.694 1.688l.817-.057c-.061-.885-.373-1.66-.936-2.214-.566-.557-1.35-.857-2.284-.857v.82Zm-2.29 2.065c0-1.146.913-2.066 2.29-2.066v-.82c-1.772 0-3.109 1.232-3.109 2.886h.819Zm2.233 2.597c-.596-.34-1.156-.662-1.574-1.077-.402-.398-.659-.87-.659-1.52h-.819c0 .91.377 1.582.901 2.102.509.505 1.17.878 1.745 1.206l.406-.711Zm2.154 2.462c0-.65-.314-1.134-.728-1.513-.402-.367-.933-.668-1.426-.95l-.406.712c.516.294.959.55 1.279.842.307.28.462.562.462.909h.819Zm-2.097 2.023c.64 0 1.178-.185 1.556-.564.376-.378.541-.897.541-1.46h-.819c0 .407-.117.695-.303.882-.185.186-.491.323-.975.323v.82Zm-2.096-2.131c0 .625.198 1.167.583 1.554.386.386.919.578 1.513.578v-.82c-.418 0-.728-.131-.932-.337-.205-.205-.345-.524-.345-.975h-.819Z" fill="#80808E"></path><path fill-rule="evenodd" clip-rule="evenodd" d="m16.428 27.07-.916.81L.063 14.649v17.418h27.3l4.161-3.51V19.98l-3.315-3.037-11.78 10.126ZM.066 10.53V.536h27.298l4.162 3.713v5.672L15.584 23.694h-.142L.065 10.53Z" fill="#80808E"></path></svg>