<svg fill="none" xmlns="http://www.w3.org/2000/svg" viewBox="0 0 116 31" class="clients-icon lazyloaded"><path d="M65.332 22.885c-2.227 0-4.506.074-6.73-.21-.679-.086-1.057-.525-1.306-1.146a2.453 2.453 0 0 1-.164-.924V4.225h-3.34v17.367c.054.598.227 1.18.508 1.71.274.514.64.974 1.08 1.357 1.634 1.418 3.694 1.186 5.698 1.245h4.373v-3.02h-.119ZM81.246 13.476l-.104-.166a6.15 6.15 0 0 0-1.53-1.648 6.893 6.893 0 0 0-2.041-1.016 8.37 8.37 0 0 0-5.602.277 8.148 8.148 0 0 0-4.346 4.327 8.02 8.02 0 0 0-.632 3.17c-.003.803.111 1.602.338 2.373.222.748.556 1.46.991 2.11a8.403 8.403 0 0 0 1.548 1.736 5.315 5.315 0 0 0 3.453 1.245h3.058V22.61h-2.435a3.532 3.532 0 0 1-3.044-1.714v-.022a4.743 4.743 0 0 1-.635-2.439 4.642 4.642 0 0 1 .372-1.888 4.96 4.96 0 0 1 2.598-2.587 4.725 4.725 0 0 1 1.904-.37h.041c.935.004 1.83.376 2.49 1.036a3.502 3.502 0 0 1 1.026 2.482v8.78h3.34v-9.482a5.747 5.747 0 0 0-.79-2.93ZM99.691 16.914a7.393 7.393 0 0 0-1.362-3.356 7.9 7.9 0 0 0-2.598-2.313 7.108 7.108 0 0 0-3.326-.875 6.353 6.353 0 0 0-3.479 1.016V4.225h-3.34V17.56c.02.964.24 1.913.65 2.786h3.38l-.07-.088a4.3 4.3 0 0 1-.668-1.201 3.966 3.966 0 0 1-.234-1.356c0-.476.096-.948.282-1.386.28-.746.781-1.39 1.437-1.848a3.907 3.907 0 0 1 2.305-.709c.563.003 1.118.13 1.626.37.497.23.943.555 1.314.957.375.405.673.874.88 1.385.218.521.329 1.08.326 1.645a4.415 4.415 0 0 1-.37 1.755 4.696 4.696 0 0 1-.959 1.448 4.494 4.494 0 0 1-3.203 1.327h-6.697v3.244h6.497a8.195 8.195 0 0 0 1.963-.292 7.637 7.637 0 0 0 1.749-.739 7.475 7.475 0 0 0 1.856-1.478 7.749 7.749 0 0 0 2.027-6.51l.014.044ZM114.628 14.803c.328-.45.51-.987.524-1.541a2.463 2.463 0 0 0-.201-.968 2.806 2.806 0 0 0-.538-.846 2.687 2.687 0 0 0-.824-.617 2.496 2.496 0 0 0-1.08-.233h-10.008v2.99h8.571l-7.921 7.944a2.478 2.478 0 0 0-.65 1.692c.007.686.272 1.345.743 1.848a2.434 2.434 0 0 0 1.919.816h9.929v-3.063h-8.537l8.073-8.022ZM10.238 11.475l-.108 11.85-8.745-5.173A2.817 2.817 0 0 1 0 15.692L.093 5.458l10.145 6.016ZM33.056 12.797v11.85l-8.46 4.915a3.481 3.481 0 0 1-1.74.465V18.72l10.2-5.923ZM45.7 5.504v10.232a2.813 2.813 0 0 1-1.404 2.435l-8.794 5.11V11.438L45.7 5.504ZM45.7 5.502l-10.198 5.935-10.2-5.912L34.073.407a2.835 2.835 0 0 1 2.855 0L45.7 5.502Z" fill="#80808E"></path><path d="m45.7 5.502-10.198 5.935-10.2-5.912L34.073.407a2.835 2.835 0 0 1 2.855 0L45.7 5.502ZM22.855 18.72v11.307c-.61 0-1.21-.16-1.737-.465l-8.46-4.915v-11.85l10.197 5.923Z" fill="#80808E"></path><path d="M33.056 12.794v.004l-10.2 5.923-10.198-5.923v-.004l10.197-5.923 10.201 5.923ZM20.417 5.502l-10.205 5.935L0 5.502 8.783.407a2.842 2.842 0 0 1 2.858 0l8.776 5.095Z" fill="#80808E"></path></svg>