<svg fill="none" xmlns="http://www.w3.org/2000/svg" viewBox="0 0 183 35" class="clients-icon lazyloaded"><path d="M43.107 15.155v-2.84H45.6c.238 0 .464.023.679.068.226.034.424.102.593.204.17.102.306.244.407.425.102.182.153.414.153.698 0 .51-.153.878-.458 1.105-.305.227-.695.34-1.17.34h-2.697Zm-2.662-4.915v12.143h5.868a6.08 6.08 0 0 0 1.577-.204c.52-.136.978-.346 1.373-.63.407-.283.73-.646.967-1.088.238-.453.356-.986.356-1.598 0-.76-.186-1.406-.56-1.94-.361-.543-.915-.923-1.661-1.139.542-.26.95-.595 1.22-1.003.283-.408.425-.918.425-1.53 0-.567-.096-1.044-.289-1.43a2.208 2.208 0 0 0-.78-.918 3.31 3.31 0 0 0-1.22-.51c-.476-.102-1.001-.153-1.578-.153h-5.698Zm2.662 10.068v-3.333h2.9c.577 0 1.04.136 1.391.408.35.26.526.703.526 1.326 0 .318-.057.579-.17.783a1.283 1.283 0 0 1-.424.493c-.18.113-.39.198-.627.255a3.967 3.967 0 0 1-.747.068h-2.849ZM53.352 10.24v1.99h2.29v-1.99h-2.29Zm3.494 0v1.99h2.29v-1.99h-2.29Zm3.51 12.143V13.59h-2.408v4.608c0 .896-.147 1.542-.44 1.939-.295.385-.77.578-1.425.578-.577 0-.978-.175-1.204-.527-.226-.363-.34-.907-.34-1.633V13.59h-2.408V19c0 .544.045 1.043.136 1.496a3 3 0 0 0 .509 1.14c.237.306.56.544.966.714.419.17.95.255 1.595.255.508 0 1.006-.113 1.492-.34.486-.227.882-.595 1.187-1.106h.051v1.225h2.29ZM68.154 16.686h2.357c-.034-.567-.17-1.055-.407-1.463a3.16 3.16 0 0 0-.933-1.037 3.8 3.8 0 0 0-1.289-.63 5.39 5.39 0 0 0-1.492-.204c-.712 0-1.345.12-1.9.358a3.946 3.946 0 0 0-1.407 1.003c-.384.42-.678.924-.882 1.514a5.952 5.952 0 0 0-.288 1.887c0 .658.107 1.264.322 1.82.215.544.514 1.015.899 1.412.384.396.848.708 1.39.935a4.966 4.966 0 0 0 1.815.323c1.165 0 2.12-.306 2.866-.918.746-.613 1.199-1.503 1.357-2.67h-2.323c-.08.544-.278.98-.594 1.31-.305.316-.746.475-1.323.475-.373 0-.69-.085-.95-.255a2.01 2.01 0 0 1-.627-.646 3.28 3.28 0 0 1-.322-.901 4.792 4.792 0 0 1 0-1.956c.068-.34.18-.646.339-.918.17-.284.384-.51.644-.68.26-.182.583-.273.967-.273 1.029 0 1.622.505 1.78 1.514ZM71.922 10.24v12.143h2.409v-4.609c0-.896.147-1.536.44-1.922.294-.396.77-.595 1.425-.595.577 0 .978.181 1.204.544.226.352.34.89.34 1.616v4.966h2.407v-5.408c0-.544-.05-1.038-.152-1.48-.09-.453-.255-.833-.492-1.14-.237-.317-.565-.56-.984-.73-.407-.182-.932-.273-1.577-.273-.452 0-.916.12-1.39.358-.475.226-.865.595-1.17 1.105h-.052V10.24h-2.408ZM87.877 17.043h-3.918c.012-.17.046-.363.102-.578.068-.216.175-.42.322-.613.159-.192.362-.351.61-.476.26-.136.583-.204.968-.204.588 0 1.023.159 1.305.476.294.318.498.783.61 1.395Zm-3.918 1.53h6.326a6.224 6.224 0 0 0-.17-1.955 4.709 4.709 0 0 0-.78-1.667 3.74 3.74 0 0 0-1.356-1.156c-.554-.295-1.204-.443-1.95-.443a4.59 4.59 0 0 0-1.832.358 4.27 4.27 0 0 0-1.408.986 4.222 4.222 0 0 0-.916 1.463 5.141 5.141 0 0 0-.322 1.836c0 .68.102 1.304.305 1.87.215.568.515 1.055.9 1.463a3.97 3.97 0 0 0 1.407.953c.554.215 1.176.323 1.865.323.995 0 1.843-.227 2.544-.68.701-.454 1.221-1.208 1.56-2.262h-2.12c-.079.272-.293.533-.644.782-.35.238-.769.357-1.255.357-.678 0-1.198-.175-1.56-.527-.362-.351-.56-.918-.594-1.7ZM91.713 13.59v8.793h2.409V18.42c0-.397.04-.765.118-1.105.08-.34.21-.635.39-.884.193-.261.441-.465.746-.613.306-.147.679-.22 1.12-.22.147 0 .3.01.458.033.158.012.294.029.407.051v-2.245a1.873 1.873 0 0 0-.526-.085c-.305 0-.6.046-.882.136-.282.091-.548.222-.797.392-.249.158-.47.357-.661.595a2.83 2.83 0 0 0-.458.748h-.034V13.59h-2.29ZM98.305 13.59v8.793h2.408V18.42c0-.397.04-.765.119-1.105.079-.34.209-.635.39-.884.192-.261.441-.465.746-.613.305-.147.678-.22 1.119-.22.147 0 .3.01.458.033a3.3 3.3 0 0 1 .407.051v-2.245a1.87 1.87 0 0 0-.526-.085c-.305 0-.599.046-.881.136a3.05 3.05 0 0 0-.797.392 2.74 2.74 0 0 0-.662.595 2.836 2.836 0 0 0-.458.748h-.034V13.59h-2.29ZM110.5 17.043h-3.918c.012-.17.046-.363.102-.578.068-.216.175-.42.322-.613.159-.192.362-.351.611-.476.26-.136.582-.204.967-.204.588 0 1.023.159 1.305.476.294.318.498.783.611 1.395Zm-3.918 1.53h6.326a6.238 6.238 0 0 0-.169-1.955 4.719 4.719 0 0 0-.781-1.667 3.734 3.734 0 0 0-1.356-1.156c-.554-.295-1.204-.443-1.951-.443-.667 0-1.277.12-1.831.358a4.271 4.271 0 0 0-1.408.986 4.236 4.236 0 0 0-.916 1.463 5.159 5.159 0 0 0-.322 1.836c0 .68.102 1.304.306 1.87a4.35 4.35 0 0 0 .898 1.463c.385.409.854.726 1.408.953.554.215 1.176.323 1.865.323.995 0 1.843-.227 2.544-.68.701-.454 1.221-1.208 1.561-2.262h-2.12c-.079.272-.294.533-.645.782-.35.238-.769.357-1.255.357-.678 0-1.198-.175-1.56-.527-.362-.351-.56-.918-.594-1.7ZM118.424 20.308c-.374 0-.684-.08-.933-.238a1.976 1.976 0 0 1-.611-.612 2.843 2.843 0 0 1-.322-.834 5.473 5.473 0 0 1-.085-.952c0-.329.034-.64.102-.935a2.46 2.46 0 0 1 .356-.8c.17-.238.373-.425.611-.56.248-.137.542-.205.882-.205.395 0 .723.074.983.221.26.148.469.346.628.595.158.25.271.539.339.868.068.317.102.657.102 1.02 0 .318-.046.624-.136.918a2.305 2.305 0 0 1-.373.766c-.17.227-.385.408-.645.544-.26.136-.559.204-.898.204Zm4.341 1.514V13.59h-2.289v1.173h-.034c-.294-.51-.662-.873-1.103-1.088-.429-.216-.932-.324-1.509-.324-.611 0-1.153.12-1.628.358a3.456 3.456 0 0 0-1.17.969c-.317.397-.56.862-.729 1.394a5.567 5.567 0 0 0-.238 1.633c0 .601.068 1.174.204 1.718.147.533.373 1.003.678 1.411.305.397.695.714 1.17.953.475.226 1.04.34 1.696.34.531 0 1.035-.108 1.509-.323.487-.227.86-.573 1.12-1.038h.034v1.157c.011.623-.142 1.14-.458 1.547-.306.408-.797.613-1.476.613a2.31 2.31 0 0 1-1.136-.273c-.328-.17-.548-.482-.661-.935h-2.392c.034.499.17.924.407 1.275.249.363.554.658.916.885.373.227.78.391 1.221.493.452.113.893.17 1.323.17 1.006 0 1.809-.136 2.408-.408.599-.272 1.057-.607 1.374-1.003a2.84 2.84 0 0 0 .61-1.259c.102-.453.153-.856.153-1.207ZM127.18 12.23v-1.99h-2.408v1.99h2.408Zm-2.408 1.36v8.793h2.408V13.59h-2.408ZM130.942 19.526h-2.29c.023.59.153 1.082.39 1.48.249.385.56.697.933.935.384.238.82.408 1.306.51a7.242 7.242 0 0 0 2.951 0c.486-.09.916-.255 1.289-.493.373-.238.672-.55.898-.936.238-.396.357-.884.357-1.462 0-.408-.08-.748-.238-1.02a2.062 2.062 0 0 0-.627-.698 3.203 3.203 0 0 0-.899-.459 9.581 9.581 0 0 0-1.018-.29c-.339-.078-.672-.152-1-.22a10.037 10.037 0 0 1-.882-.221 1.962 1.962 0 0 1-.611-.34.663.663 0 0 1-.237-.528c0-.181.045-.323.136-.425a.862.862 0 0 1 .322-.255c.135-.057.282-.09.441-.102.158-.023.305-.034.441-.034.429 0 .802.085 1.119.255.317.159.492.47.526.935h2.289c-.045-.544-.186-.992-.424-1.343a2.634 2.634 0 0 0-.865-.867 3.646 3.646 0 0 0-1.204-.46 7.056 7.056 0 0 0-2.764 0c-.452.08-.859.227-1.221.443a2.437 2.437 0 0 0-.882.85c-.215.363-.322.828-.322 1.394 0 .386.079.715.237.987.158.26.368.482.628.663.26.17.554.312.882.425.339.102.684.193 1.034.272.859.182 1.526.363 2.001.545.486.181.729.453.729.816 0 .215-.05.397-.152.544a1.27 1.27 0 0 1-.39.34c-.147.08-.317.142-.509.187a2.845 2.845 0 0 1-1.221-.034 1.906 1.906 0 0 1-.577-.255 1.65 1.65 0 0 1-.424-.459 1.446 1.446 0 0 1-.152-.68ZM141.238 13.59v-2.636h-2.409v2.636h-1.458v1.616h1.458v5.187c0 .442.074.8.221 1.072.147.272.345.481.594.629.26.147.554.243.881.289.34.056.696.085 1.069.085.237 0 .48-.006.729-.017.249-.012.475-.034.678-.068v-1.87c-.113.022-.231.039-.356.05a4.3 4.3 0 0 1-.39.017c-.407 0-.678-.068-.814-.204-.136-.136-.203-.408-.203-.816v-4.354h1.763v-1.615h-1.763ZM150.049 17.043h-3.918c.012-.17.046-.363.102-.578.068-.216.175-.42.322-.613.159-.192.362-.351.611-.476.26-.136.582-.204.967-.204.587 0 1.023.159 1.305.476.294.318.498.783.611 1.395Zm-3.918 1.53h6.326a6.238 6.238 0 0 0-.169-1.955 4.719 4.719 0 0 0-.781-1.667 3.734 3.734 0 0 0-1.356-1.156c-.554-.295-1.204-.443-1.951-.443-.667 0-1.277.12-1.831.358a4.271 4.271 0 0 0-1.408.986 4.236 4.236 0 0 0-.916 1.463 5.159 5.159 0 0 0-.322 1.836c0 .68.102 1.304.305 1.87.215.568.515 1.055.899 1.463.385.409.854.726 1.408.953.554.215 1.176.323 1.865.323.995 0 1.843-.227 2.544-.68.701-.454 1.221-1.208 1.56-2.262h-2.119c-.08.272-.294.533-.645.782-.35.238-.769.357-1.255.357-.678 0-1.198-.175-1.56-.527-.362-.351-.56-.918-.594-1.7ZM153.885 13.59v8.793h2.409V18.42c0-.397.039-.765.118-1.105.079-.34.209-.635.39-.884a1.98 1.98 0 0 1 .747-.613c.305-.147.678-.22 1.119-.22.147 0 .299.01.458.033a3.3 3.3 0 0 1 .407.051v-2.245a1.875 1.875 0 0 0-.526-.085c-.305 0-.599.046-.882.136-.283.091-.548.222-.797.392a2.735 2.735 0 0 0-.661.595 2.81 2.81 0 0 0-.458.748h-.034V13.59h-2.29ZM159.022 19.764v2.619h2.662v-2.62h-2.662ZM169.864 17.961c0 .363-.034.714-.102 1.055-.068.34-.181.646-.339.918-.158.26-.373.47-.644.63-.26.158-.588.237-.984.237-.373 0-.695-.08-.967-.238-.26-.17-.48-.385-.661-.646a2.999 2.999 0 0 1-.373-.918 4.498 4.498 0 0 1-.119-1.02c0-.364.034-.71.102-1.038.079-.34.198-.64.356-.902.17-.26.39-.47.661-.629.272-.159.605-.238 1.001-.238.396 0 .724.08.984.238.26.159.469.369.627.63.17.249.288.544.356.884.068.329.102.674.102 1.037Zm.034 3.3v1.122h2.289V10.24h-2.408v4.422h-.034a2.521 2.521 0 0 0-1.119-.97 3.312 3.312 0 0 0-1.475-.34c-.645 0-1.21.13-1.696.392-.486.249-.893.584-1.221 1.003-.317.42-.56.907-.73 1.462a6.069 6.069 0 0 0-.237 1.701c0 .612.079 1.202.237 1.769.17.567.413 1.071.73 1.513.328.431.74.777 1.238 1.038.497.25 1.074.374 1.73.374.576 0 1.091-.102 1.543-.306a2.532 2.532 0 0 0 1.119-1.038h.034ZM179.909 17.043h-3.917c.011-.17.045-.363.102-.578.067-.216.175-.42.322-.613a1.85 1.85 0 0 1 .61-.476c.26-.136.583-.204.967-.204.588 0 1.023.159 1.306.476.294.318.497.783.61 1.395Zm-3.917 1.53h6.326a6.238 6.238 0 0 0-.17-1.955 4.7 4.7 0 0 0-.78-1.667 3.745 3.745 0 0 0-1.357-1.156c-.554-.295-1.204-.443-1.95-.443-.667 0-1.278.12-1.832.358a4.267 4.267 0 0 0-1.407.986 4.221 4.221 0 0 0-.916 1.463 5.137 5.137 0 0 0-.322 1.836c0 .68.101 1.304.305 1.87.215.568.514 1.055.899 1.463.384.409.853.726 1.407.953.554.215 1.176.323 1.866.323.995 0 1.843-.227 2.544-.68.701-.454 1.221-1.208 1.56-2.262h-2.12c-.079.272-.294.533-.644.782-.351.238-.769.357-1.255.357-.679 0-1.199-.175-1.561-.527-.361-.351-.559-.918-.593-1.7Z" fill="#80808E"></path><path d="M43.107 15.155v-2.84H45.6c.238 0 .464.023.679.068.226.034.424.102.593.204.17.102.306.244.407.425.102.182.153.414.153.698 0 .51-.153.878-.458 1.105-.305.227-.695.34-1.17.34h-2.697Zm-2.662-4.915v12.143h5.868a6.08 6.08 0 0 0 1.577-.204c.52-.136.978-.346 1.373-.63.407-.283.73-.646.967-1.088.238-.453.356-.986.356-1.598 0-.76-.186-1.406-.56-1.94-.361-.543-.915-.923-1.661-1.139.542-.26.95-.595 1.22-1.003.283-.408.425-.918.425-1.53 0-.567-.096-1.044-.289-1.43a2.208 2.208 0 0 0-.78-.918 3.31 3.31 0 0 0-1.22-.51c-.476-.102-1.001-.153-1.578-.153h-5.698Zm2.662 10.068v-3.333h2.9c.577 0 1.04.136 1.391.408.35.26.526.703.526 1.326 0 .318-.057.579-.17.783a1.283 1.283 0 0 1-.424.493c-.18.113-.39.198-.627.255a3.967 3.967 0 0 1-.747.068h-2.849ZM53.352 10.24v1.99h2.29v-1.99h-2.29Zm3.494 0v1.99h2.29v-1.99h-2.29Zm3.51 12.143V13.59h-2.408v4.608c0 .896-.147 1.542-.44 1.939-.295.385-.77.578-1.425.578-.577 0-.978-.175-1.204-.527-.226-.363-.34-.907-.34-1.633V13.59h-2.408V19c0 .544.045 1.043.136 1.496a3 3 0 0 0 .509 1.14c.237.306.56.544.966.714.419.17.95.255 1.595.255.508 0 1.006-.113 1.492-.34.486-.227.882-.595 1.187-1.106h.051v1.225h2.29ZM68.154 16.686h2.357c-.034-.567-.17-1.055-.407-1.463a3.16 3.16 0 0 0-.933-1.037 3.8 3.8 0 0 0-1.289-.63 5.39 5.39 0 0 0-1.492-.204c-.712 0-1.345.12-1.9.358a3.946 3.946 0 0 0-1.407 1.003c-.384.42-.678.924-.882 1.514a5.952 5.952 0 0 0-.288 1.887c0 .658.107 1.264.322 1.82.215.544.514 1.015.899 1.412.384.396.848.708 1.39.935a4.966 4.966 0 0 0 1.815.323c1.165 0 2.12-.306 2.866-.918.746-.613 1.199-1.503 1.357-2.67h-2.323c-.08.544-.278.98-.594 1.31-.305.316-.746.475-1.323.475-.373 0-.69-.085-.95-.255a2.01 2.01 0 0 1-.627-.646 3.28 3.28 0 0 1-.322-.901 4.792 4.792 0 0 1 0-1.956c.068-.34.18-.646.339-.918.17-.284.384-.51.644-.68.26-.182.583-.273.967-.273 1.029 0 1.622.505 1.78 1.514ZM71.922 10.24v12.143h2.409v-4.609c0-.896.147-1.536.44-1.922.294-.396.77-.595 1.425-.595.577 0 .978.181 1.204.544.226.352.34.89.34 1.616v4.966h2.407v-5.408c0-.544-.05-1.038-.152-1.48-.09-.453-.255-.833-.492-1.14-.237-.317-.565-.56-.984-.73-.407-.182-.932-.273-1.577-.273-.452 0-.916.12-1.39.358-.475.226-.865.595-1.17 1.105h-.052V10.24h-2.408ZM87.877 17.043h-3.918c.012-.17.046-.363.102-.578.068-.216.175-.42.322-.613.159-.192.362-.351.61-.476.26-.136.583-.204.968-.204.588 0 1.023.159 1.305.476.294.318.498.783.61 1.395Zm-3.918 1.53h6.326a6.224 6.224 0 0 0-.17-1.955 4.709 4.709 0 0 0-.78-1.667 3.74 3.74 0 0 0-1.356-1.156c-.554-.295-1.204-.443-1.95-.443a4.59 4.59 0 0 0-1.832.358 4.27 4.27 0 0 0-1.408.986 4.222 4.222 0 0 0-.916 1.463 5.141 5.141 0 0 0-.322 1.836c0 .68.102 1.304.305 1.87.215.568.515 1.055.9 1.463a3.97 3.97 0 0 0 1.407.953c.554.215 1.176.323 1.865.323.995 0 1.843-.227 2.544-.68.701-.454 1.221-1.208 1.56-2.262h-2.12c-.079.272-.293.533-.644.782-.35.238-.769.357-1.255.357-.678 0-1.198-.175-1.56-.527-.362-.351-.56-.918-.594-1.7ZM91.713 13.59v8.793h2.409V18.42c0-.397.04-.765.118-1.105.08-.34.21-.635.39-.884.193-.261.441-.465.746-.613.306-.147.679-.22 1.12-.22.147 0 .3.01.458.033.158.012.294.029.407.051v-2.245a1.873 1.873 0 0 0-.526-.085c-.305 0-.6.046-.882.136-.282.091-.548.222-.797.392-.249.158-.47.357-.661.595a2.83 2.83 0 0 0-.458.748h-.034V13.59h-2.29ZM98.305 13.59v8.793h2.408V18.42c0-.397.04-.765.119-1.105.079-.34.209-.635.39-.884.192-.261.441-.465.746-.613.305-.147.678-.22 1.119-.22.147 0 .3.01.458.033a3.3 3.3 0 0 1 .407.051v-2.245a1.87 1.87 0 0 0-.526-.085c-.305 0-.599.046-.881.136a3.05 3.05 0 0 0-.797.392 2.74 2.74 0 0 0-.662.595 2.836 2.836 0 0 0-.458.748h-.034V13.59h-2.29ZM110.5 17.043h-3.918c.012-.17.046-.363.102-.578.068-.216.175-.42.322-.613.159-.192.362-.351.611-.476.26-.136.582-.204.967-.204.588 0 1.023.159 1.305.476.294.318.498.783.611 1.395Zm-3.918 1.53h6.326a6.238 6.238 0 0 0-.169-1.955 4.719 4.719 0 0 0-.781-1.667 3.734 3.734 0 0 0-1.356-1.156c-.554-.295-1.204-.443-1.951-.443-.667 0-1.277.12-1.831.358a4.271 4.271 0 0 0-1.408.986 4.236 4.236 0 0 0-.916 1.463 5.159 5.159 0 0 0-.322 1.836c0 .68.102 1.304.306 1.87a4.35 4.35 0 0 0 .898 1.463c.385.409.854.726 1.408.953.554.215 1.176.323 1.865.323.995 0 1.843-.227 2.544-.68.701-.454 1.221-1.208 1.561-2.262h-2.12c-.079.272-.294.533-.645.782-.35.238-.769.357-1.255.357-.678 0-1.198-.175-1.56-.527-.362-.351-.56-.918-.594-1.7ZM118.424 20.308c-.374 0-.684-.08-.933-.238a1.976 1.976 0 0 1-.611-.612 2.843 2.843 0 0 1-.322-.834 5.473 5.473 0 0 1-.085-.952c0-.329.034-.64.102-.935a2.46 2.46 0 0 1 .356-.8c.17-.238.373-.425.611-.56.248-.137.542-.205.882-.205.395 0 .723.074.983.221.26.148.469.346.628.595.158.25.271.539.339.868.068.317.102.657.102 1.02 0 .318-.046.624-.136.918a2.305 2.305 0 0 1-.373.766c-.17.227-.385.408-.645.544-.26.136-.559.204-.898.204Zm4.341 1.514V13.59h-2.289v1.173h-.034c-.294-.51-.662-.873-1.103-1.088-.429-.216-.932-.324-1.509-.324-.611 0-1.153.12-1.628.358a3.456 3.456 0 0 0-1.17.969c-.317.397-.56.862-.729 1.394a5.567 5.567 0 0 0-.238 1.633c0 .601.068 1.174.204 1.718.147.533.373 1.003.678 1.411.305.397.695.714 1.17.953.475.226 1.04.34 1.696.34.531 0 1.035-.108 1.509-.323.487-.227.86-.573 1.12-1.038h.034v1.157c.011.623-.142 1.14-.458 1.547-.306.408-.797.613-1.476.613a2.31 2.31 0 0 1-1.136-.273c-.328-.17-.548-.482-.661-.935h-2.392c.034.499.17.924.407 1.275.249.363.554.658.916.885.373.227.78.391 1.221.493.452.113.893.17 1.323.17 1.006 0 1.809-.136 2.408-.408.599-.272 1.057-.607 1.374-1.003a2.84 2.84 0 0 0 .61-1.259c.102-.453.153-.856.153-1.207ZM127.18 12.23v-1.99h-2.408v1.99h2.408Zm-2.408 1.36v8.793h2.408V13.59h-2.408ZM130.942 19.526h-2.29c.023.59.153 1.082.39 1.48.249.385.56.697.933.935.384.238.82.408 1.306.51a7.242 7.242 0 0 0 2.951 0c.486-.09.916-.255 1.289-.493.373-.238.672-.55.898-.936.238-.396.357-.884.357-1.462 0-.408-.08-.748-.238-1.02a2.062 2.062 0 0 0-.627-.698 3.203 3.203 0 0 0-.899-.459 9.581 9.581 0 0 0-1.018-.29c-.339-.078-.672-.152-1-.22a10.037 10.037 0 0 1-.882-.221 1.962 1.962 0 0 1-.611-.34.663.663 0 0 1-.237-.528c0-.181.045-.323.136-.425a.862.862 0 0 1 .322-.255c.135-.057.282-.09.441-.102.158-.023.305-.034.441-.034.429 0 .802.085 1.119.255.317.159.492.47.526.935h2.289c-.045-.544-.186-.992-.424-1.343a2.634 2.634 0 0 0-.865-.867 3.646 3.646 0 0 0-1.204-.46 7.056 7.056 0 0 0-2.764 0c-.452.08-.859.227-1.221.443a2.437 2.437 0 0 0-.882.85c-.215.363-.322.828-.322 1.394 0 .386.079.715.237.987.158.26.368.482.628.663.26.17.554.312.882.425.339.102.684.193 1.034.272.859.182 1.526.363 2.001.545.486.181.729.453.729.816 0 .215-.05.397-.152.544a1.27 1.27 0 0 1-.39.34c-.147.08-.317.142-.509.187a2.845 2.845 0 0 1-1.221-.034 1.906 1.906 0 0 1-.577-.255 1.65 1.65 0 0 1-.424-.459 1.446 1.446 0 0 1-.152-.68ZM141.238 13.59v-2.636h-2.409v2.636h-1.458v1.616h1.458v5.187c0 .442.074.8.221 1.072.147.272.345.481.594.629.26.147.554.243.881.289.34.056.696.085 1.069.085.237 0 .48-.006.729-.017.249-.012.475-.034.678-.068v-1.87c-.113.022-.231.039-.356.05a4.3 4.3 0 0 1-.39.017c-.407 0-.678-.068-.814-.204-.136-.136-.203-.408-.203-.816v-4.354h1.763v-1.615h-1.763ZM150.049 17.043h-3.918c.012-.17.046-.363.102-.578.068-.216.175-.42.322-.613.159-.192.362-.351.611-.476.26-.136.582-.204.967-.204.587 0 1.023.159 1.305.476.294.318.498.783.611 1.395Zm-3.918 1.53h6.326a6.238 6.238 0 0 0-.169-1.955 4.719 4.719 0 0 0-.781-1.667 3.734 3.734 0 0 0-1.356-1.156c-.554-.295-1.204-.443-1.951-.443-.667 0-1.277.12-1.831.358a4.271 4.271 0 0 0-1.408.986 4.236 4.236 0 0 0-.916 1.463 5.159 5.159 0 0 0-.322 1.836c0 .68.102 1.304.305 1.87.215.568.515 1.055.899 1.463.385.409.854.726 1.408.953.554.215 1.176.323 1.865.323.995 0 1.843-.227 2.544-.68.701-.454 1.221-1.208 1.56-2.262h-2.119c-.08.272-.294.533-.645.782-.35.238-.769.357-1.255.357-.678 0-1.198-.175-1.56-.527-.362-.351-.56-.918-.594-1.7ZM153.885 13.59v8.793h2.409V18.42c0-.397.039-.765.118-1.105.079-.34.209-.635.39-.884a1.98 1.98 0 0 1 .747-.613c.305-.147.678-.22 1.119-.22.147 0 .299.01.458.033a3.3 3.3 0 0 1 .407.051v-2.245a1.875 1.875 0 0 0-.526-.085c-.305 0-.599.046-.882.136-.283.091-.548.222-.797.392a2.735 2.735 0 0 0-.661.595 2.81 2.81 0 0 0-.458.748h-.034V13.59h-2.29ZM159.022 19.764v2.619h2.662v-2.62h-2.662ZM169.864 17.961c0 .363-.034.714-.102 1.055-.068.34-.181.646-.339.918-.158.26-.373.47-.644.63-.26.158-.588.237-.984.237-.373 0-.695-.08-.967-.238-.26-.17-.48-.385-.661-.646a2.999 2.999 0 0 1-.373-.918 4.498 4.498 0 0 1-.119-1.02c0-.364.034-.71.102-1.038.079-.34.198-.64.356-.902.17-.26.39-.47.661-.629.272-.159.605-.238 1.001-.238.396 0 .724.08.984.238.26.159.469.369.627.63.17.249.288.544.356.884.068.329.102.674.102 1.037Zm.034 3.3v1.122h2.289V10.24h-2.408v4.422h-.034a2.521 2.521 0 0 0-1.119-.97 3.312 3.312 0 0 0-1.475-.34c-.645 0-1.21.13-1.696.392-.486.249-.893.584-1.221 1.003-.317.42-.56.907-.73 1.462a6.069 6.069 0 0 0-.237 1.701c0 .612.079 1.202.237 1.769.17.567.413 1.071.73 1.513.328.431.74.777 1.238 1.038.497.25 1.074.374 1.73.374.576 0 1.091-.102 1.543-.306a2.532 2.532 0 0 0 1.119-1.038h.034ZM179.909 17.043h-3.917c.011-.17.045-.363.102-.578.067-.216.175-.42.322-.613a1.85 1.85 0 0 1 .61-.476c.26-.136.583-.204.967-.204.588 0 1.023.159 1.306.476.294.318.497.783.61 1.395Zm-3.917 1.53h6.326a6.238 6.238 0 0 0-.17-1.955 4.7 4.7 0 0 0-.78-1.667 3.745 3.745 0 0 0-1.357-1.156c-.554-.295-1.204-.443-1.95-.443-.667 0-1.278.12-1.832.358a4.267 4.267 0 0 0-1.407.986 4.221 4.221 0 0 0-.916 1.463 5.137 5.137 0 0 0-.322 1.836c0 .68.101 1.304.305 1.87.215.568.514 1.055.899 1.463.384.409.853.726 1.407.953.554.215 1.176.323 1.866.323.995 0 1.843-.227 2.544-.68.701-.454 1.221-1.208 1.56-2.262h-2.12c-.079.272-.294.533-.644.782-.351.238-.769.357-1.255.357-.679 0-1.199-.175-1.561-.527-.361-.351-.559-.918-.593-1.7Z" stroke="#80808E" stroke-width=".397"></path><path fill-rule="evenodd" clip-rule="evenodd" d="M23 6.395a.338.338 0 0 0-.467-.318L8.086 11.854v16.514l-2.605 1.3V10.083l16.05-6.46c1.938-.823 4.075.63 4.075 2.773H23Z" fill="#80808E"></path><path fill-rule="evenodd" clip-rule="evenodd" d="M17.945 3.028a.338.338 0 0 0-.468-.319L3.031 8.487v15.83L.426 25.62V6.715l16.05-6.46c1.938-.824 4.075.63 4.075 2.773h-2.606Z" fill="#80808E"></path><path fill-rule="evenodd" clip-rule="evenodd" d="M29.59 25.139c-.758 1.532-1.98 2.252-5.817 3.837l-12.9 5.11.103-20.586 3.986-1.527v7.184l2.246-2.544 2.246.727V10.25l4.725-1.81c.25-.122.487-.22.714-.296 3.73-1.263 5.014 5.247 2.196 7.936a8.356 8.356 0 0 1-1.349 1.053c.256-.117.51-.183.76-.207 3.424-.332 4.58 5.2 3.09 8.212Z" fill="#80808E"></path></svg>