<svg fill="none" xmlns="http://www.w3.org/2000/svg" viewBox="0 0 128 39" class="clients-icon lazyloaded"><path fill-rule="evenodd" clip-rule="evenodd" d="M23.515.07c-2.395 0-4.343 1.887-4.343 4.208 0 2.32 1.948 4.207 4.343 4.207 2.396 0 4.343-1.887 4.343-4.207S25.911.07 23.515.07ZM35.928 20.307c-2.395 0-4.343 1.887-4.343 4.207s1.948 4.208 4.343 4.208 4.343-1.887 4.343-4.208c0-2.32-1.948-4.207-4.343-4.207ZM23.523 19.86c-2.395 0-4.343 1.886-4.343 4.207 0 2.32 1.948 4.207 4.343 4.207s4.343-1.887 4.343-4.207-1.948-4.208-4.343-4.208ZM10.917 19.86c-2.395 0-4.343 1.886-4.343 4.207 0 2.32 1.948 4.207 4.343 4.207s4.343-1.887 4.343-4.207-1.948-4.208-4.343-4.208ZM17.318 9.967c-2.396 0-4.343 1.887-4.343 4.207 0 2.321 1.947 4.208 4.343 4.208 2.395 0 4.342-1.887 4.342-4.208 0-2.32-1.947-4.207-4.342-4.207ZM29.922 9.967c-2.396 0-4.343 1.887-4.343 4.207 0 2.321 1.947 4.208 4.343 4.208 2.395 0 4.342-1.887 4.342-4.208 0-2.32-1.947-4.207-4.342-4.207ZM4.48 29.74c-2.42 0-4.379 1.91-4.379 4.243 0 2.344 1.972 4.243 4.38 4.243 2.419 0 4.379-1.91 4.379-4.243.011-2.344-1.96-4.243-4.38-4.243ZM17.24 29.74c-2.419 0-4.379 1.91-4.379 4.243 0 2.344 1.972 4.243 4.38 4.243 2.407 0 4.379-1.91 4.379-4.243 0-2.344-1.972-4.243-4.38-4.243ZM29.992 29.74c-2.42 0-4.38 1.91-4.38 4.243 0 2.344 1.973 4.243 4.38 4.243 2.42 0 4.38-1.91 4.38-4.243 0-2.344-1.96-4.243-4.38-4.243ZM42.744 29.74c-2.42 0-4.38 1.91-4.38 4.243 0 2.344 1.973 4.243 4.38 4.243 2.42 0 4.38-1.91 4.38-4.243 0-2.344-1.96-4.243-4.38-4.243ZM62.843 19.235V8.84H58.74V6.555h11.102v2.284h-4.103v10.396h-2.896ZM73.016 19.235V6.555h9.022V8.73h-6.2V11.7h5.829v2.176h-5.83v3.184h6.201v2.176h-9.022ZM89.05 19.235V8.84h-4.103V6.555h11.101v2.284h-4.102v10.396h-2.897ZM106.609 11.762c.371-.282.557-.723.557-1.322 0-.612-.186-1.055-.557-1.331-.372-.276-.972-.414-1.801-.414h-2.766v3.49h2.766c.829 0 1.429-.141 1.801-.423Zm3.973 7.473h-3.156l-2.265-4.047c-.186-.311-.409-.536-.669-.674-.26-.138-.588-.207-.984-.207h-1.429v4.928h-2.86V6.555h6.016c1.534 0 2.695.327 3.481.98.786.654 1.179 1.598 1.179 2.833 0 .96-.276 1.762-.826 2.41-.551.648-1.328 1.073-2.33 1.277.68.168 1.256.642 1.726 1.421l2.117 3.76ZM117.864 14.307h4.197l-2.099-4.749-2.098 4.749Zm6.386 4.928-1.243-2.806h-6.09l-1.243 2.806h-2.915l6.015-12.68h2.32l6.015 12.68h-2.859ZM59.803 31.645h1.398v-7.397h-1.398v7.397ZM70.391 24.248h1.31v7.397h-1.05l-4.094-5.162v5.162h-1.3v-7.397h1.04l4.094 5.152v-5.152ZM76.63 31.51a3.854 3.854 0 0 1-1.3-.651l.466-.987c.368.273.756.473 1.164.599.408.126.85.189 1.327.189.526 0 .933-.09 1.218-.268.285-.178.428-.428.428-.75 0-.28-.132-.493-.396-.64-.263-.147-.702-.287-1.315-.42-.636-.133-1.152-.287-1.55-.462-.396-.174-.696-.398-.898-.671-.202-.273-.303-.62-.303-1.039 0-.433.123-.822.368-1.165.246-.342.592-.61 1.04-.802.447-.192.964-.289 1.548-.289.535 0 1.043.079 1.527.236.484.158.881.373 1.192.646l-.466.986c-.679-.525-1.43-.787-2.253-.787-.49 0-.879.096-1.164.289a.916.916 0 0 0-.428.802c0 .287.127.507.38.661.252.154.682.298 1.288.43.643.14 1.164.296 1.565.467.4.172.707.39.92.656.213.266.32.602.32 1.007 0 .441-.121.828-.363 1.16-.242.332-.592.587-1.05.766-.459.178-.998.267-1.62.267a5.696 5.696 0 0 1-1.645-.23ZM84.978 31.645h1.397v-7.397h-1.397v7.397ZM96.732 27.648v3.547a5.234 5.234 0 0 1-1.261.398 7.771 7.771 0 0 1-1.511.147c-.787 0-1.47-.152-2.047-.456a3.126 3.126 0 0 1-1.326-1.312c-.307-.57-.46-1.246-.46-2.03 0-.776.153-1.45.46-2.02a3.15 3.15 0 0 1 1.31-1.311c.567-.305 1.233-.457 1.998-.457a4.9 4.9 0 0 1 1.505.226c.47.15.86.365 1.17.645l-.466.976a3.75 3.75 0 0 0-1.045-.572 3.532 3.532 0 0 0-1.132-.173c-.786 0-1.38.226-1.781.677-.4.45-.6 1.12-.6 2.009 0 1.819.822 2.728 2.468 2.728.49 0 .982-.067 1.473-.2v-1.857h-1.646v-.965h2.891ZM105.981 24.248h1.364v7.397h-1.364v-3.21h-3.91v3.21h-1.375v-7.397h1.375v3.095h3.91v-3.095ZM113.179 31.645V25.36h-2.491v-1.112h6.379v1.112h-2.49v6.285h-1.398ZM121.372 31.51a3.868 3.868 0 0 1-1.3-.651l.466-.987c.368.273.757.473 1.165.599.406.126.849.189 1.326.189.526 0 .933-.09 1.218-.268.285-.178.428-.428.428-.75 0-.28-.132-.493-.396-.64-.262-.147-.702-.287-1.315-.42-.636-.133-1.152-.287-1.549-.462-.397-.174-.696-.398-.899-.671-.202-.273-.303-.62-.303-1.039 0-.433.123-.822.369-1.165.245-.342.592-.61 1.039-.802.448-.192.964-.289 1.548-.289.535 0 1.044.079 1.528.236.483.158.88.373 1.191.646l-.466.986c-.678-.525-1.429-.787-2.253-.787-.49 0-.879.096-1.163.289a.915.915 0 0 0-.429.802c0 .287.127.507.38.661.253.154.682.298 1.289.43.642.14 1.163.296 1.564.467.401.172.708.39.921.656.212.266.319.602.319 1.007 0 .441-.121.828-.363 1.16-.242.332-.592.587-1.05.766-.459.178-.998.267-1.619.267a5.698 5.698 0 0 1-1.646-.23Z" fill="#80808E"></path></svg>